<svg width="710" height="704" viewBox="0 0 710 704" fill="none" xmlns="http://www.w3.org/2000/svg">
<path d="M354.835 47.9668C329.295 74.7534 316.836 88.4583 328.049 78.4912C338.639 69.147 349.852 61.0487 352.966 61.6716C355.458 62.2946 357.95 59.1798 357.95 55.4422C357.95 46.098 380.376 30.5244 387.851 35.5079C391.589 37.3768 392.212 36.1309 389.72 32.3932C387.851 28.6556 388.474 24.2949 392.212 21.8032C395.327 19.9343 398.441 21.8032 399.064 26.1638C399.064 30.5244 401.556 28.6556 404.671 21.8032C409.031 11.8361 410.277 14.3278 410.9 34.2621C411.523 47.9668 413.392 54.1963 415.261 47.3439C420.244 28.6556 442.671 84.0977 446.408 124.589C448.9 153.244 447.654 160.72 437.064 170.064C425.228 181.277 424.605 180.654 420.867 158.851C417.13 138.294 404.671 127.704 404.671 144.523C404.671 150.13 402.179 149.507 398.441 143.277C393.458 135.179 392.212 135.802 392.212 144.523C392.212 150.753 386.605 158.851 380.376 163.212C374.147 166.949 369.786 174.425 371.655 178.785C374.147 184.392 371.655 185.638 364.802 183.146C357.327 180.031 354.212 185.015 351.098 204.949C348.606 218.654 344.868 228.621 341.753 226.752C338.639 224.883 336.147 228.621 336.147 234.85C335.524 242.949 333.032 241.08 325.557 227.998C318.705 214.293 316.836 198.097 318.705 163.835C320.573 138.917 320.573 119.605 318.705 121.474C316.836 123.343 313.098 151.376 311.229 183.769C306.869 245.44 301.885 259.768 291.295 240.457C287.557 234.227 275.098 218.031 263.262 204.949C250.804 191.244 243.328 180.654 245.197 180.654C257.656 180.654 287.557 201.834 295.656 216.785C305.623 233.604 305.623 233.604 302.508 218.031C300.639 209.31 298.77 192.49 298.147 180.654L296.901 158.851L292.541 180.654L288.18 202.457L286.311 177.539C285.066 157.605 283.82 155.736 281.951 169.441C278.836 188.752 278.213 189.375 260.771 180.654C237.722 168.195 236.476 181.277 258.279 207.441C279.459 232.358 287.557 254.162 272.607 245.44C268.246 242.949 266.377 242.949 268.869 246.063C271.361 248.555 270.738 254.784 267 259.768C260.771 266.62 257.656 266.62 250.181 260.391C243.951 255.407 244.574 258.522 252.049 268.489L264.508 284.686L271.984 266.62C280.082 247.309 292.541 247.932 292.541 267.243C292.541 280.325 281.328 290.915 267.623 289.669C262.64 289.669 256.41 292.161 253.918 295.899C247.689 304.62 229.623 292.784 214.673 269.112C207.82 258.522 199.722 249.801 195.984 249.178C192.87 249.178 193.493 252.293 197.853 256.653C208.443 267.243 207.197 274.096 194.739 270.358C186.017 267.866 186.64 269.112 195.984 274.719C202.837 279.079 216.542 290.292 225.886 300.259L243.328 317.079L225.886 321.44C216.542 323.308 199.099 327.669 187.263 330.784C172.313 334.521 161.1 333.275 146.772 326.423C129.329 317.702 128.706 317.702 139.297 327.046C146.149 332.03 154.87 336.39 157.985 336.39C161.723 336.39 159.854 339.505 153.624 343.243C144.903 348.226 136.182 345.734 113.756 333.898C98.1822 325.177 88.838 321.44 92.5757 326.423C96.3133 331.407 108.149 338.259 118.116 342.62C138.674 351.341 140.542 355.079 129.952 365.669C115.002 380.619 19.6912 313.964 27.1665 294.653C29.0353 289.669 28.4124 287.178 25.2977 289.046C22.1829 290.915 18.4453 285.932 17.1994 277.833C15.3306 268.489 16.5764 263.506 20.9371 265.375C24.6747 266.62 36.5107 265.375 46.4778 262.26C63.9202 256.653 64.5432 256.653 49.5925 256.03C37.1336 255.407 35.8877 254.162 43.3631 249.178C51.4613 243.571 51.4613 242.949 43.3631 243.571C38.3795 243.571 26.5436 246.686 17.1994 251.047L0.379883 258.522L16.5764 291.538C29.0353 318.325 40.2483 330.161 72.0185 350.718C93.8216 365.046 113.133 380.619 115.002 384.98C116.248 389.34 115.625 391.832 112.51 389.963C110.018 388.095 102.543 391.832 96.9363 398.062C86.3462 409.898 86.9692 410.521 119.362 417.373C137.428 421.734 161.1 423.602 171.067 421.734C188.509 419.242 187.886 419.242 166.706 417.996C154.247 417.996 141.788 414.258 139.919 411.144C138.051 407.406 128.706 404.291 119.362 404.291C108.149 403.668 106.28 402.422 113.756 400.553C120.608 398.685 123.723 393.701 121.854 389.34C114.379 368.783 195.984 325.177 227.132 332.653C235.853 335.144 242.705 338.882 242.705 341.997C242.705 345.111 236.476 346.357 229.001 344.488C217.165 341.374 215.919 342.62 222.771 349.472C229.623 356.324 227.132 361.308 210.312 375.636C193.493 389.963 192.87 391.832 205.329 385.603C214.05 381.865 225.263 374.39 230.869 369.406C238.968 362.554 242.082 362.554 243.951 368.783C250.181 383.734 237.099 404.291 219.656 408.652C190.378 416.127 120.608 490.88 132.444 502.093C133.69 503.962 139.919 495.241 145.526 483.405C156.739 459.733 185.394 432.947 215.919 418.619C236.476 408.652 253.295 413.012 236.476 423.602C231.492 426.717 227.132 432.324 227.132 436.061C227.132 439.799 217.165 451.635 205.329 461.602C191.624 473.438 189.132 477.176 199.722 470.946L215.919 460.979L217.165 489.635C217.788 509.569 214.673 523.274 207.197 531.995L195.984 545.077L210.312 533.241C220.902 523.896 224.017 523.274 224.017 530.126C224.017 535.109 220.279 543.208 216.542 548.191C209.689 555.667 210.312 555.667 219.033 548.814C227.755 542.585 230.246 543.208 235.853 553.798C242.082 565.011 240.214 566.257 213.427 569.994C167.329 576.224 138.051 586.191 177.296 581.83L208.443 578.716L215.919 605.502C219.656 620.453 226.509 645.371 230.869 661.567L239.591 691.469L284.443 659.075C309.36 641.01 328.049 625.436 326.803 623.568C324.934 622.322 318.705 625.436 312.475 631.043C306.246 637.272 298.147 641.633 294.41 641.633C290.672 641.633 285.688 645.994 283.82 651.6C281.328 657.207 275.721 660.321 270.115 657.83C265.131 655.961 262.017 656.584 263.885 659.698C265.754 662.813 262.64 666.551 256.41 667.797C247.066 670.288 242.082 663.436 231.492 636.027C215.919 596.781 215.296 576.224 230.246 574.978C251.427 573.109 258.902 569.371 278.836 548.814C290.049 536.978 298.77 531.995 298.77 536.355C298.77 543.208 300.016 543.208 305.623 535.732C309.983 528.88 311.229 533.864 308.737 554.421C305.623 575.601 306.246 579.339 311.229 569.994C316.213 560.027 316.836 561.896 314.344 579.339C311.852 596.781 312.475 598.65 318.082 589.929C328.049 572.486 344.245 588.06 335.524 606.748C329.918 619.207 329.918 619.207 338.639 608.617C347.36 597.404 348.606 598.027 364.802 616.715C374.147 627.305 385.36 634.781 389.097 632.912C393.458 631.666 411.523 646.617 428.966 667.174C447.031 687.108 465.097 703.927 468.834 703.305C477.555 703.305 527.391 601.765 532.997 573.109C535.489 560.65 540.473 554.421 548.571 554.421C557.292 554.421 560.407 547.568 563.522 520.159C566.014 501.47 566.636 482.159 564.768 477.176C562.276 471.569 565.391 466.586 571.62 465.34C579.718 462.848 579.095 462.225 569.128 461.602C554.801 460.979 521.784 429.832 535.489 429.832C541.096 429.832 540.473 427.34 532.997 421.734C518.67 411.144 524.899 383.111 539.85 388.718C544.833 390.586 556.669 393.701 565.391 395.57L582.21 398.685L566.636 391.832C557.915 388.095 541.096 382.488 529.26 379.996C507.457 375.013 507.457 375.013 526.145 374.39C536.735 373.767 550.44 368.783 557.292 363.8L569.751 353.833L557.292 356.947C518.047 368.16 513.063 368.16 496.244 355.079C486.9 347.603 479.424 339.505 479.424 337.013C479.424 334.521 490.014 329.538 503.096 325.8L526.145 318.948L503.719 322.062C486.277 324.554 481.293 322.685 481.293 315.21C481.293 307.735 488.145 305.243 508.703 305.243C523.653 305.243 534.866 307.735 532.997 310.849C531.129 313.964 540.473 317.702 553.555 320.194C578.472 323.931 602.767 342.62 582.833 342.62C577.227 342.62 572.866 345.111 572.866 348.849C572.866 357.57 580.964 356.947 593.423 346.98C599.03 343.243 601.521 336.39 599.03 332.653C591.554 321.44 542.965 298.391 523.03 297.145C512.44 296.522 504.342 294.03 504.342 290.915C504.342 288.423 506.834 286.555 509.326 286.555C512.44 286.555 519.916 282.194 526.768 277.21C537.358 268.489 537.358 268.489 519.916 275.342C509.949 279.702 494.375 287.178 486.277 292.161C471.949 301.505 471.326 301.505 478.801 287.801C482.539 280.325 488.768 273.473 491.883 273.473C495.621 272.85 501.85 272.227 506.211 271.604C509.949 270.981 513.063 267.243 512.44 262.883C511.194 259.145 513.686 247.932 516.801 238.588C522.407 223.014 521.784 222.391 514.309 231.736C509.949 237.965 499.981 242.949 493.129 242.949C486.277 242.949 473.818 245.44 465.097 248.555C453.261 252.916 448.9 251.67 442.048 241.08C437.064 233.604 433.949 224.883 434.572 222.391C435.195 219.277 433.326 218.654 429.589 221.145C426.474 223.014 423.359 220.523 423.359 215.539C423.359 210.555 425.851 204.949 429.589 202.457C432.703 200.588 433.949 194.982 432.08 190.621C428.343 180.031 435.195 175.048 493.752 144.523L541.719 119.605V137.048C541.719 147.015 538.604 162.589 534.243 172.556C530.506 181.9 528.014 193.736 528.637 198.719C529.26 203.08 527.391 204.949 523.653 203.08C520.539 200.588 515.555 202.457 513.063 206.195C510.571 210.555 511.194 211.801 515.555 209.31C518.67 207.441 523.03 209.31 524.276 213.047C528.014 223.014 545.456 168.195 550.44 132.064L554.178 105.901L504.965 130.196L456.375 155.113L452.638 120.851C449.523 89.7042 414.015 0.000104864 405.294 0.000104864C402.802 0.000104864 380.376 21.8032 354.835 47.9668ZM410.9 171.31C414.015 169.441 415.884 181.277 415.261 197.474C414.638 213.67 412.146 226.129 410.277 224.26C408.409 222.391 401.556 225.506 395.327 230.49C384.737 239.211 384.114 238.588 387.851 227.375L392.212 214.916L382.245 227.375C373.524 239.211 372.901 237.965 374.77 211.801C376.015 194.982 379.753 184.392 383.491 185.015C387.851 185.638 392.835 178.785 395.95 169.441C399.064 156.982 400.933 155.113 402.802 163.835C404.671 169.441 407.786 173.179 410.9 171.31ZM361.688 221.768C356.081 245.44 356.081 245.44 355.458 226.129C354.835 205.572 361.688 180.031 365.425 190.621C366.671 194.359 364.802 208.064 361.688 221.768ZM416.507 244.194C423.359 251.047 423.982 250.424 420.244 243.571C417.13 237.965 418.376 236.096 422.736 237.342C427.097 239.211 430.212 242.326 429.589 245.44C428.966 248.555 432.08 252.916 436.441 256.03C453.261 266.62 437.687 266.62 415.261 256.03C402.802 249.801 394.081 243.571 396.573 241.08C402.179 234.85 407.163 235.473 416.507 244.194ZM364.802 256.653C367.294 260.391 364.179 267.243 357.95 271.604C351.721 276.588 348.606 282.194 351.098 284.686C355.458 289.046 367.917 276.588 376.638 259.145C378.507 254.162 380.999 254.162 383.491 259.768C385.36 264.129 390.966 265.375 395.95 263.506C401.556 261.637 404.671 264.129 404.671 271.604C404.048 286.555 389.097 306.489 383.491 300.882C380.999 298.391 380.999 300.882 383.491 307.112C386.605 316.456 385.36 317.079 372.901 312.095C364.802 308.981 358.573 303.374 359.819 299.014C360.442 295.276 358.573 293.407 355.458 295.276C350.475 299.014 344.245 290.292 343.622 277.833C342.999 267.866 328.049 262.883 313.721 267.866C302.508 272.227 300.016 271.604 302.508 264.752C307.492 251.67 357.95 245.44 364.802 256.653ZM484.408 274.096C467.588 288.423 462.605 289.669 458.867 282.817C452.638 272.227 458.244 261.637 470.703 261.637C475.687 261.637 479.424 259.145 479.424 256.03C479.424 252.916 485.031 251.67 492.506 253.539C504.342 256.653 503.719 258.522 484.408 274.096ZM439.556 279.079C456.998 292.784 465.097 317.702 452.015 317.702C447.031 317.702 438.31 319.571 432.08 322.062C424.605 325.177 422.736 323.931 426.474 318.325C430.212 312.095 428.343 311.472 418.376 317.079C409.031 322.062 404.671 322.062 402.179 315.833C400.31 312.095 399.687 313.964 400.31 320.817C401.556 327.669 405.917 332.653 410.9 331.407C417.753 329.538 417.753 331.407 410.277 340.128C402.802 350.095 402.802 350.718 412.769 346.98C418.999 344.488 428.966 342.62 434.572 341.997C441.425 341.997 442.048 340.751 437.064 338.259C425.851 333.898 433.949 323.931 448.9 323.931C458.867 323.931 460.736 327.046 458.244 337.636C456.375 345.734 456.375 348.226 458.244 343.866C463.228 333.275 473.195 334.521 473.195 345.734C473.195 350.718 468.211 355.079 461.359 355.079C439.556 355.079 435.195 369.406 448.277 394.324C455.129 406.783 459.49 417.373 457.621 417.373C451.392 417.373 432.703 396.816 417.13 373.767C409.031 361.931 399.064 350.095 395.327 347.603C391.589 344.488 392.835 342.62 398.441 341.997C403.425 341.997 400.933 339.505 392.212 337.013C382.868 334.521 374.147 335.144 371.655 338.882C367.917 343.243 367.294 341.374 369.786 334.521C372.901 324.554 367.917 321.44 356.704 325.177C353.589 326.423 352.344 328.915 353.589 331.407C355.458 337.636 344.245 337.636 318.082 332.653C291.918 327.046 281.328 308.358 296.279 292.161C310.606 275.965 319.95 277.21 333.032 296.522C338.639 305.243 344.868 310.849 346.737 308.981C348.606 307.112 358.573 311.472 367.917 318.325L385.983 330.784L393.458 314.587C397.818 305.243 402.179 301.505 404.671 305.243C407.163 309.604 412.146 308.358 417.753 301.505C423.359 294.03 423.982 292.161 418.999 295.276C413.392 298.391 410.9 294.653 410.9 284.063C410.9 265.375 420.867 263.506 439.556 279.079ZM292.541 332.03C292.541 335.144 288.803 336.39 285.066 334.521C280.705 333.275 271.984 334.521 266.377 337.636C257.033 341.997 255.787 340.751 257.656 328.915C258.902 320.817 263.262 315.21 267 315.833C270.738 317.079 271.984 312.718 270.115 306.489C267.623 299.636 270.738 301.505 279.459 311.472C286.311 320.194 292.541 329.538 292.541 332.03ZM314.967 346.357C313.098 351.341 313.721 353.833 316.836 351.964C319.95 350.095 324.311 350.718 326.18 353.833C327.426 356.324 319.327 368.16 307.492 379.373C295.656 391.209 286.311 398.062 286.311 394.324C286.311 391.209 289.426 385.603 293.164 381.865C296.901 378.127 298.77 371.898 296.279 368.783C291.295 360.685 262.64 355.701 258.902 362.554C257.656 365.669 257.033 364.423 257.656 360.062C258.279 355.701 268.246 351.341 278.836 350.095C290.049 348.849 298.77 345.734 298.77 341.997C298.77 338.882 303.131 336.39 308.737 336.39C314.967 336.39 317.459 339.505 314.967 346.357ZM361.065 351.964C367.917 360.062 366.048 361.308 352.344 361.308C342.376 361.308 336.147 358.193 336.147 351.964C336.147 346.98 339.885 342.62 344.868 342.62C349.229 342.62 356.704 346.98 361.065 351.964ZM410.9 384.98C410.9 390.586 406.54 393.078 399.064 390.586C390.966 388.718 385.983 391.209 384.114 398.062C382.245 403.668 380.999 400.553 380.376 391.209C380.376 382.488 381.622 370.029 383.491 364.423C387.228 355.701 388.474 355.701 399.064 365.046C405.917 370.652 410.9 379.996 410.9 384.98ZM479.424 368.783C478.801 373.144 475.687 383.111 470.703 391.209C464.474 403.045 461.359 404.291 456.375 397.439C447.031 385.603 442.048 369.406 446.408 365.046C453.884 358.193 479.424 361.308 479.424 368.783ZM281.951 371.275C283.82 373.144 282.574 383.111 278.836 393.078C273.853 408.029 270.738 409.898 263.262 404.291C256.41 398.062 256.41 395.57 262.64 391.832C268.246 388.095 267.623 386.226 258.902 386.226C249.558 386.226 248.935 384.357 255.164 376.882C263.262 367.537 275.098 364.423 281.951 371.275ZM369.786 376.882C371.655 382.488 363.557 384.98 344.245 384.98C321.196 385.603 317.459 384.357 323.688 376.882C332.409 366.292 365.425 366.292 369.786 376.882ZM510.571 394.947C510.571 398.685 506.211 396.193 501.227 389.963C496.244 383.111 491.883 374.39 491.883 371.275C491.883 367.537 496.244 370.029 501.227 376.259C506.211 383.111 510.571 391.832 510.571 394.947ZM492.506 412.389C487.523 417.373 485.654 417.373 487.523 413.635C490.014 409.275 487.523 404.291 481.916 402.422C476.932 400.553 474.441 395.57 476.932 391.832C479.424 387.472 483.785 388.095 490.637 394.947C499.358 403.045 499.358 406.16 492.506 412.389ZM350.475 404.914C347.36 416.127 343.622 416.75 318.082 413.635C281.951 408.652 280.082 406.783 305.623 399.308C341.753 389.34 354.212 390.586 350.475 404.914ZM373.524 405.537C373.524 408.652 369.163 411.144 364.179 411.144C358.573 411.144 356.704 407.406 358.573 401.799C362.311 392.455 373.524 394.947 373.524 405.537ZM433.326 411.766C442.048 419.242 442.048 420.488 432.08 427.963C414.638 440.422 426.474 444.783 445.785 432.324C462.605 421.111 462.605 421.111 455.129 434.815C450.146 444.783 449.523 448.52 455.129 448.52C458.867 448.52 463.228 442.914 465.097 436.684C468.211 424.225 486.9 422.979 489.391 435.438C490.014 439.176 489.391 439.799 487.523 436.061C486.277 432.947 481.916 431.701 478.801 433.57C475.064 435.438 475.687 440.422 480.047 446.028C485.654 452.881 485.031 454.75 475.687 455.373C464.474 455.373 464.474 455.996 476.31 461.602C486.277 465.963 485.031 466.586 470.08 464.094C460.113 461.602 445.785 459.733 438.933 459.11C432.08 458.487 424.605 454.75 422.113 451.635C418.999 447.897 417.13 448.52 417.13 453.504C417.13 459.733 406.54 460.979 375.392 458.487C351.721 457.241 332.409 455.373 331.163 455.373C326.18 453.504 344.245 429.209 354.835 423.602C365.425 417.996 368.54 419.242 373.524 432.947C379.753 449.143 387.851 454.75 384.737 440.422C384.114 436.684 385.36 425.471 387.851 416.75C390.966 403.668 395.327 400.553 407.786 402.422C416.507 403.045 428.343 407.406 433.326 411.766ZM520.539 429.209C518.047 432.947 511.817 436.061 506.834 436.061C499.358 436.061 498.736 433.57 504.965 422.979C509.326 414.258 513.686 411.766 518.047 416.127C521.784 419.865 522.407 425.471 520.539 429.209ZM267 431.078C267.623 427.34 270.738 423.602 273.853 423.602C277.59 423.602 279.459 425.471 278.836 427.963C278.836 431.078 280.082 437.93 283.197 444.16C286.311 451.635 283.82 460.979 275.721 472.192C256.41 498.979 252.049 507.077 260.148 502.093C270.115 495.864 269.492 503.962 258.279 523.274L249.558 538.847V520.159C250.181 509.569 247.689 493.372 245.82 484.028C239.591 461.602 255.164 409.898 262.017 427.34C264.508 434.192 267 435.438 267 431.078ZM316.213 421.111C329.918 424.225 333.655 427.34 331.786 436.061C328.049 451.012 313.098 456.618 308.737 444.783C306.869 439.799 301.262 436.061 296.901 436.061C291.918 436.061 288.18 431.701 288.18 426.717C288.18 416.127 290.049 416.127 316.213 421.111ZM518.67 446.651C514.309 447.897 506.834 447.897 503.096 446.651C498.736 444.783 501.85 443.537 510.571 443.537C519.293 443.537 522.407 444.783 518.67 446.651ZM557.915 495.864C559.784 519.536 559.161 522.651 554.801 510.815C549.194 494.618 545.456 502.716 547.948 527.634C548.571 541.962 539.227 546.945 532.997 536.355C531.129 533.241 524.276 531.995 518.047 533.864C503.719 537.601 454.506 498.979 456.375 485.897C456.998 480.29 464.474 476.553 474.441 476.553C483.785 476.553 494.998 470.946 500.604 464.094C508.703 453.504 511.817 452.881 522.407 459.733C533.62 465.963 535.489 465.963 535.489 456.618C535.489 446.651 536.112 446.651 545.456 455.996C551.063 461.602 556.669 479.667 557.915 495.864ZM235.853 471.569C235.853 481.536 237.722 501.47 240.214 517.044C243.328 537.601 242.705 543.208 237.099 538.847C229.001 530.749 220.902 477.799 225.886 464.717C232.115 449.143 236.476 452.881 235.853 471.569ZM321.819 465.34C324.934 463.471 328.049 467.209 328.049 474.061C329.295 488.389 319.95 489.635 312.475 475.93C309.36 469.7 303.754 467.209 299.393 470.323C293.787 473.438 295.033 477.176 303.131 482.782C313.098 490.257 313.098 492.126 296.279 515.798C278.836 541.962 248.935 566.257 248.935 555.044C248.935 551.306 254.541 539.47 261.394 527.634C268.869 515.175 272.607 501.47 270.115 494.618C267.623 485.897 268.246 484.651 272.607 491.503C277.59 498.356 281.328 495.241 289.426 477.176C298.147 459.733 301.885 455.996 308.737 461.602C313.098 465.34 319.327 466.586 321.819 465.34ZM443.293 478.422C445.162 485.274 443.293 496.487 438.933 504.585L430.835 518.913L426.474 504.585C422.736 493.995 420.867 492.126 416.507 498.979C412.146 505.831 410.9 505.208 410.9 497.11C410.9 484.651 429.589 460.356 436.441 464.094C438.31 465.963 442.048 472.192 443.293 478.422ZM340.508 480.913C338.639 485.897 336.77 484.028 336.77 477.176C336.147 470.323 338.016 466.586 339.885 469.077C341.753 470.946 342.376 476.553 340.508 480.913ZM396.573 470.946C394.704 472.815 389.097 473.438 384.737 471.569C379.753 469.7 381.622 467.831 388.474 467.831C395.327 467.209 399.064 469.077 396.573 470.946ZM382.245 480.29C390.966 484.651 399.687 494.618 401.556 504.585C405.294 522.651 399.687 554.421 392.835 554.421C390.343 554.421 384.737 566.88 380.376 582.453L372.278 609.863L344.868 582.453C319.95 556.913 317.459 551.306 317.459 523.274C317.459 498.356 319.327 493.372 326.803 495.864C331.786 498.356 336.77 505.831 336.77 513.306C338.016 525.765 338.016 525.765 340.508 512.061C342.999 498.356 346.114 496.487 364.179 496.487C382.245 496.487 386.605 498.356 382.868 503.962C380.999 507.077 382.245 511.438 385.36 513.306C388.474 515.798 390.343 512.061 389.097 506.454C387.851 500.225 386.605 493.372 386.605 490.257C385.983 487.766 380.376 485.897 374.147 485.897C367.294 485.897 359.819 482.782 357.95 479.667C352.966 471.569 362.934 471.569 382.245 480.29ZM479.424 523.896C479.424 526.388 488.768 533.241 500.604 538.847C512.44 544.454 523.653 552.552 524.899 557.536C530.506 570.617 514.932 611.109 488.768 653.469L464.474 692.714L449.523 675.272C441.425 665.305 436.441 660.944 438.933 665.928C442.671 672.157 441.425 673.403 436.441 670.288C432.08 667.174 430.212 661.567 432.08 656.584C433.949 651.6 432.703 648.485 428.966 649.731C425.228 650.354 414.015 641.01 403.425 627.928L384.737 605.502L397.818 568.749L410.277 532.618L411.523 563.765C412.146 586.814 413.392 591.175 416.507 579.962C420.244 565.634 421.49 566.88 428.966 591.175C440.802 631.043 442.671 619.207 431.458 577.47C422.113 544.454 422.113 541.339 432.703 529.503C438.933 522.651 445.785 518.913 448.9 520.159C451.392 522.028 455.129 520.782 457.621 517.667C461.359 510.815 479.424 515.798 479.424 523.896Z" fill="black"/>
<path d="M399.066 190.621C399.066 197.473 400.935 199.342 402.804 194.358C404.673 189.998 404.05 184.391 402.181 182.523C400.312 180.031 398.443 183.768 399.066 190.621Z" fill="black"/>
<path d="M410.9 407.406C410.9 408.652 415.884 413.636 422.113 417.996C431.458 426.094 432.081 425.472 423.982 415.504C415.884 405.537 410.9 402.423 410.9 407.406Z" fill="black"/>
<path d="M504.967 462.848C506.213 463.471 513.065 468.454 519.917 473.438C531.753 482.159 531.753 482.159 523.655 471.569C519.294 465.962 512.442 460.979 508.704 460.979C504.967 460.979 503.721 461.602 504.967 462.848Z" fill="black"/>
<path d="M487.525 508.322C497.492 520.781 519.918 527.01 513.065 515.797C510.574 512.683 507.459 511.437 505.59 513.306C503.721 515.174 496.246 512.06 489.393 506.453C476.312 495.24 476.312 495.24 487.525 508.322Z" fill="black"/>
<path d="M432.703 492.749C430.211 496.487 429.588 500.224 431.457 502.093C432.703 503.962 435.818 500.847 437.687 495.241C442.047 484.651 438.31 482.782 432.703 492.749Z" fill="black"/>
<path d="M448.277 644.748C448.277 647.863 451.392 655.338 454.507 660.321C457.622 665.305 460.736 666.551 460.736 663.436C460.736 659.698 457.622 652.846 454.507 647.863C451.392 642.879 448.277 641.01 448.277 644.748Z" fill="black"/>
<path d="M418.376 84.0971C418.376 94.0642 419.622 97.8019 421.491 91.5724C422.737 85.9659 422.737 77.2447 421.491 72.8841C419.622 69.1464 418.376 73.507 418.376 84.0971Z" fill="black"/>
<path d="M326.805 100.294C324.313 104.032 323.69 107.77 325.559 109.639C326.805 111.507 329.919 108.393 331.788 102.786C336.149 92.1961 332.411 90.3273 326.805 100.294Z" fill="black"/>
<path d="M295.657 118.982C290.051 129.572 286.313 140.162 287.559 143.277C288.805 146.392 294.411 137.671 300.018 124.589C312.477 95.3105 309.362 91.5728 295.657 118.982Z" fill="black"/>
<path d="M187.889 189.998C189.758 208.687 188.512 224.26 185.397 224.26C176.676 224.26 179.79 235.473 190.381 239.211C199.102 242.326 199.725 238.588 197.233 206.818C194.118 174.425 194.741 170.687 205.954 170.064C212.184 169.441 217.79 171.31 217.79 174.425C217.79 177.539 222.774 178.162 228.38 176.293C237.101 172.556 235.855 170.687 220.905 164.457C187.889 150.13 184.774 151.999 187.889 189.998Z" fill="black"/>
<path d="M135.56 222.392C143.035 223.637 155.494 223.637 163.593 222.392C171.068 221.146 164.838 219.9 149.265 219.9C133.691 219.9 127.462 221.146 135.56 222.392Z" fill="black"/>
<path d="M205.33 220.522C205.33 221.768 210.313 226.752 216.543 231.112C225.887 239.211 226.51 238.588 218.411 228.621C210.313 218.653 205.33 215.539 205.33 220.522Z" fill="black"/>
<path d="M74.5112 233.604C45.2328 244.817 57.6917 244.817 93.1995 234.227C108.773 229.243 115.626 224.883 108.773 224.883C101.921 224.883 86.3471 229.243 74.5112 233.604Z" fill="black"/>
<path d="M129.33 247.309C133.69 249.177 139.297 248.555 141.166 246.686C143.657 244.817 139.92 242.948 133.067 243.571C126.215 243.571 124.346 245.44 129.33 247.309Z" fill="black"/>
<path d="M166.707 253.538C171.068 255.407 176.674 254.784 178.543 252.915C181.035 251.047 177.297 249.178 170.445 249.801C163.592 249.801 161.724 251.67 166.707 253.538Z" fill="black"/>
<path d="M228.38 268.489C239.593 279.702 250.183 287.177 252.051 285.309C253.92 283.44 245.199 274.096 232.117 264.751L208.445 247.309L228.38 268.489Z" fill="black"/>
<path d="M526.768 254.784C524.276 257.899 528.637 259.145 535.489 257.276C549.817 253.538 551.686 249.178 539.227 249.178C534.243 249.178 528.637 251.669 526.768 254.784Z" fill="black"/>
<path d="M584.078 255.407C592.176 258.522 610.242 262.883 624.57 264.752C651.356 267.866 697.454 285.309 697.454 292.161C697.454 294.653 691.848 300.259 685.618 305.243C678.766 309.604 675.028 316.456 676.897 320.194C679.389 323.308 676.274 324.554 670.044 322.062C663.815 319.571 660.7 320.194 663.192 323.931C668.176 332.03 581.586 373.767 560.406 373.767C548.57 373.767 546.701 375.636 553.554 379.373C559.16 383.111 567.259 383.111 573.488 379.373C579.718 376.259 590.308 373.767 596.537 373.767C610.242 373.767 647.618 413.012 647.618 427.34C647.618 432.947 640.766 428.586 630.176 416.75C617.717 403.045 612.111 399.93 612.111 406.783C612.111 412.389 614.602 415.504 617.094 414.258C619.586 412.389 625.815 418.619 631.422 426.717C637.028 435.438 644.504 441.045 647.618 439.176C651.356 436.684 653.848 439.799 653.848 445.405C653.848 453.504 650.11 455.373 637.651 452.258C628.307 449.766 623.324 450.389 625.192 454.127C627.061 457.241 625.192 461.602 621.455 462.848C617.094 464.717 625.192 466.586 640.143 466.586C654.471 467.208 666.307 464.717 666.307 461.602C666.307 447.274 640.143 396.816 625.815 383.734L609.619 368.783L639.52 353.833C668.176 340.128 709.913 303.997 709.913 293.407C709.913 283.44 635.783 254.784 602.766 251.67C576.603 249.801 572.865 250.424 584.078 255.407Z" fill="black"/>
<path d="M277.591 271.604C275.099 277.211 275.099 283.44 276.968 285.309C278.214 287.178 281.328 283.44 283.82 277.833C286.312 272.227 286.312 265.998 284.443 264.129C283.197 262.26 280.083 265.998 277.591 271.604Z" fill="black"/>
<path d="M191.625 353.209C195.363 354.455 202.838 354.455 207.199 353.209C210.937 351.341 207.822 350.095 199.101 350.095C190.379 350.095 187.265 351.341 191.625 353.209Z" fill="black"/>
<path d="M197.855 446.028C173.56 459.11 176.052 463.47 200.969 451.012C224.018 439.176 228.379 436.061 220.281 436.061C217.166 436.684 207.199 441.044 197.855 446.028Z" fill="black"/>
<path d="M588.442 467.209C586.573 470.324 590.31 473.438 597.786 473.438C605.261 473.438 608.999 470.324 607.13 467.209C605.261 463.471 600.9 460.979 597.786 460.979C594.671 460.979 590.31 463.471 588.442 467.209Z" fill="black"/>
<path d="M115.626 550.06C109.396 573.109 105.036 593.043 106.281 594.289C107.527 594.912 117.494 593.666 127.462 591.174C146.15 586.814 146.15 586.814 129.33 586.191L112.511 585.568L121.855 557.535C127.462 542.585 130.576 525.142 129.33 518.913C128.085 512.683 121.855 527.011 115.626 550.06Z" fill="black"/>
</svg>
