<svg width="793" height="760" viewBox="0 0 793 760" fill="none" xmlns="http://www.w3.org/2000/svg">
<path d="M401.322 32.6067C359.53 66.9567 341.782 87.5667 354.377 87.5667C357.24 87.5667 360.102 84.1317 360.102 80.1242C360.102 69.2467 388.727 42.9117 388.727 53.7892C389.3 58.3692 392.162 56.0792 396.17 48.6367C402.467 37.7592 439.107 13.1417 448.84 13.1417C450.557 13.1417 452.275 21.7292 452.275 31.4617C453.42 49.2092 453.42 49.2092 457.427 27.4542L460.862 4.55418L464.87 24.5917C467.16 35.4692 469.45 52.0717 470.595 61.8042C471.74 70.9642 473.457 64.6667 474.03 47.4917L474.602 16.0042L483.762 33.1792C495.785 55.5067 511.815 107.032 516.395 136.802C519.83 156.267 517.54 163.137 505.517 179.739L490.632 199.204L494.067 179.167L497.502 159.129L489.487 179.167C484.907 190.044 480.9 195.197 480.327 190.617C479.755 180.312 460.862 156.267 453.42 156.267C450.557 156.267 444.832 163.137 439.68 171.152L430.52 186.037L429.947 167.144C429.947 156.267 426.512 147.107 423.65 145.962C420.215 144.817 417.352 139.092 417.352 132.794C417.352 117.337 410.482 119.627 395.597 140.809L381.857 159.129L385.865 123.062C388.155 97.8717 387.582 87.5667 383.575 90.4292C380.14 92.1467 377.277 100.734 377.277 108.749C377.277 122.489 352.66 161.992 341.782 166.572C339.492 167.717 337.202 172.297 337.202 176.877C337.202 191.189 326.897 180.312 322.89 162.564C320.6 150.542 323.462 138.519 332.05 120.772L345.217 96.1542L349.225 113.329L353.805 130.504L352.66 113.902C352.087 104.742 348.652 96.1542 345.79 95.0092C340.637 93.2917 320.027 128.214 312.012 152.259C309.15 161.992 306.287 160.847 285.677 143.099C265.64 126.497 195.795 94.4367 191.787 100.162C191.215 100.734 209.535 119.627 233.58 141.954C257.625 163.709 273.655 178.022 270.22 172.869C264.495 165.999 264.495 162.564 269.647 157.412C274.8 152.259 273.082 151.114 264.495 152.832C256.48 154.549 246.175 148.824 233.58 135.657C223.275 124.779 217.55 116.192 220.412 116.192C223.847 116.192 232.435 122.489 239.305 129.932C246.747 137.947 257.052 143.099 262.777 141.954C276.517 139.092 294.265 159.702 304.57 190.617C309.722 204.929 317.737 226.112 322.317 237.562C327.47 249.584 330.905 270.194 330.905 283.362C329.76 306.834 329.76 306.834 325.752 275.919C321.745 245.004 309.15 212.372 308.577 230.692C308.577 235.844 305.142 233.554 299.99 224.967C295.41 216.952 291.975 214.089 291.402 218.669C291.402 225.539 289.685 224.967 284.532 217.524C280.525 212.372 271.937 207.219 265.64 206.074C259.342 205.502 250.182 202.067 245.602 199.204C238.16 194.624 238.16 195.197 245.03 203.784C249.037 208.937 255.335 211.799 258.77 209.509C262.205 207.792 262.777 208.937 260.487 212.372C253.617 223.249 248.465 220.387 216.977 188.899C200.375 172.869 188.925 162.564 191.215 167.144C193.505 171.152 196.367 185.464 197.512 198.632C198.657 211.227 200.375 226.112 200.375 230.692C200.947 235.272 203.81 242.142 206.672 246.149C215.26 256.454 206.672 267.332 196.367 258.744C187.78 251.874 184.917 239.279 192.932 244.432C195.222 245.577 197.512 242.142 197.512 236.417C197.512 230.692 195.222 226.112 193.505 226.684C191.215 227.257 184.917 222.677 179.765 216.379C170.605 205.502 170.605 206.074 179.192 220.387C189.497 238.134 190.642 244.432 182.627 239.279C179.192 236.989 169.46 222.677 160.3 207.219C147.132 184.319 143.125 180.312 140.262 188.899C137.972 194.052 137.972 196.914 140.262 195.197C143.697 191.762 188.352 253.019 188.352 261.034C188.352 263.324 184.345 263.324 179.765 261.607C169.46 257.599 168.315 265.614 178.047 275.347C182.055 279.354 182.627 282.217 180.337 282.217C177.475 282.217 178.62 285.652 182.055 290.232C186.062 294.812 186.635 299.964 183.772 301.682C176.902 305.689 147.132 282.789 151.14 276.492C152.857 273.629 151.14 269.622 148.277 267.904C144.842 265.614 139.117 257.027 135.682 249.012C128.812 229.547 124.805 178.022 131.102 182.029C133.965 183.747 134.537 180.312 133.392 175.159C132.247 169.434 133.392 156.839 136.255 147.679C140.262 135.084 141.98 133.939 142.552 141.954C142.552 148.252 148.277 162.564 154.575 173.442C160.872 184.319 164.307 188.327 162.017 182.029C144.842 132.222 140.835 109.894 148.277 103.024C152.857 98.4442 154.575 98.4442 152.285 102.452C148.277 109.894 163.735 119.054 176.33 116.764C180.337 116.192 182.055 117.909 180.337 120.772C178.62 123.634 186.635 134.512 198.085 145.389C210.107 156.267 215.832 160.274 211.825 154.549C207.817 149.397 206.1 144.817 208.962 144.817C211.252 144.817 203.81 135.084 191.787 122.489C176.902 107.032 172.322 99.5892 178.047 97.2992C182.055 95.5817 173.467 93.8642 159.155 93.8642C132.82 93.2917 132.82 93.2917 129.385 114.474C116.217 196.914 119.08 227.829 145.415 289.087C148.277 295.957 147.132 299.392 141.407 299.392C129.957 299.392 95.035 326.299 93.3175 336.604C91.0275 351.489 69.845 381.259 65.8375 374.962C64.12 371.527 69.2725 360.649 77.86 350.344C86.4475 340.039 91.0275 333.169 87.5925 334.314C79.005 337.749 0 399.007 0 402.442C0.5725 404.159 23.4725 425.342 52.0975 449.387C94.4625 486.599 106.485 494.042 123.087 494.042C144.27 494.042 147.705 499.767 133.392 511.217C128.812 515.797 121.942 524.384 118.507 530.682C113.927 539.269 119.08 536.407 134.537 523.239C146.56 512.362 156.292 500.912 155.147 498.049C154.002 495.187 157.437 494.042 162.017 495.759C167.17 498.049 170.605 496.332 169.46 492.897C168.887 489.462 178.047 486.027 190.642 484.882L212.97 483.164L184.345 510.072C168.887 524.957 163.162 530.682 172.322 523.239C180.91 515.224 188.352 511.789 188.352 514.652C188.352 522.667 151.14 558.162 147.132 554.154C143.125 549.574 113.355 585.642 116.217 590.794C117.935 593.084 115.645 595.374 111.065 595.374C100.187 595.374 100.187 591.939 113.927 570.184C120.797 558.162 122.515 550.147 119.08 547.857C109.92 542.704 107.63 547.284 99.0425 586.787C92.1725 619.419 92.745 644.609 100.187 681.249C102.477 693.844 119.652 700.142 119.652 689.264C119.652 686.402 124.232 685.257 130.53 686.974C136.255 688.692 149.422 685.257 159.727 680.104C169.46 674.952 198.657 663.502 223.847 654.342C249.037 645.182 275.945 632.014 283.387 625.144C299.417 610.259 297.7 609.687 313.73 642.892C334.912 688.692 387.01 745.942 407.047 745.942C411.055 745.942 420.215 749.949 427.085 754.529C437.962 762.544 440.825 761.399 461.435 740.789C474.03 728.767 489.487 707.584 496.357 693.844C511.815 661.784 518.685 631.442 509.525 631.442C506.09 631.442 503.227 639.457 503.227 649.189C503.227 658.922 500.365 672.089 496.93 678.959C488.342 695.562 471.167 711.592 466.587 707.584C464.87 705.294 463.152 708.157 463.152 713.882C463.152 727.622 436.817 754.529 432.237 746.514C429.947 743.079 425.367 741.362 422.505 743.079C419.642 745.369 415.635 743.079 413.917 737.927C412.2 733.347 407.047 731.057 402.467 732.774C392.735 736.209 369.835 715.027 376.132 708.157C378.422 705.867 377.277 705.867 373.842 707.584C369.835 709.874 364.11 704.149 360.102 694.417C356.095 685.257 350.37 678.387 346.935 678.959C337.202 680.677 314.302 636.022 314.302 615.412C314.302 593.084 329.187 573.047 333.195 590.222C334.912 597.092 336.057 595.374 337.202 585.642C337.775 577.627 340.065 566.177 342.927 559.879C346.362 551.864 347.507 556.444 345.217 574.192C343.5 593.084 344.072 597.092 348.08 588.504C352.087 579.917 353.805 589.077 354.95 622.854L356.667 668.654L360.102 628.579C362.392 606.252 364.682 595.947 365.255 605.679C366.4 614.839 366.972 628.007 366.4 634.304C365.255 644.037 366.4 644.037 370.98 637.167C376.132 629.724 377.277 630.297 377.277 640.029C377.277 650.334 378.422 650.334 388.727 637.167C395.025 629.152 400.177 617.129 400.177 610.832C400.177 603.962 404.185 595.374 408.765 591.367C415.635 585.642 418.497 587.359 423.65 600.527C427.657 609.687 429.947 621.137 429.375 625.717C428.802 632.014 429.375 632.587 432.81 627.434C436.245 622.282 441.397 626.289 448.267 640.029C454.565 650.907 461.435 660.067 463.725 660.067C466.015 660.067 469.45 668.654 470.595 678.387C471.74 688.692 472.885 682.967 472.312 665.792C472.312 648.617 473.457 625.144 475.747 614.267C479.755 595.374 479.182 595.374 471.74 617.129C465.442 636.594 463.725 637.739 463.152 625.717C462.007 612.549 461.435 612.549 458 628.579L454.565 645.754L447.122 625.717C442.542 614.839 435.672 597.092 431.092 586.787C420.787 563.314 421.36 539.842 431.092 526.674C438.535 516.942 440.252 519.232 448.84 549.574C453.992 567.894 460.29 589.077 462.58 597.092L467.16 611.404L470.022 595.947C471.74 586.214 470.595 581.634 467.16 583.924C463.725 586.214 462.58 582.779 464.297 575.337C466.587 568.467 466.015 562.742 464.297 562.742C462.007 562.742 459.717 554.727 459.145 544.422C458 527.819 458 527.247 466.015 537.552C474.03 547.857 474.602 547.857 471.167 537.552C467.732 528.392 468.877 527.819 479.182 533.544C495.212 542.132 510.097 565.032 508.38 578.199C506.09 593.657 515.25 628.007 519.83 621.137C522.692 616.557 530.135 617.129 546.165 622.854C623.452 649.189 721.35 654.914 720.205 632.587C720.205 627.434 707.61 612.549 693.297 599.954L666.39 577.054L688.145 601.672C713.335 630.297 711.617 639.457 684.71 619.992C670.97 609.687 668.68 609.114 674.977 617.129C682.42 626.289 682.42 627.434 674.977 622.854C670.397 619.992 659.52 618.274 650.36 618.847C641.2 619.992 630.322 617.702 626.315 614.267C622.307 610.832 616.582 608.542 614.292 609.114C599.98 611.404 589.102 606.824 568.492 589.077L546.165 569.612L565.057 571.902C575.362 573.047 589.102 576.482 594.827 579.917C604.56 585.069 606.277 583.924 606.277 575.909C606.277 570.184 602.27 559.307 597.117 552.437C592.537 545.567 589.675 537.552 591.965 534.689C594.827 529.537 598.835 529.537 620.59 534.117C624.025 534.689 634.33 535.262 643.49 534.689L660.665 533.544L646.925 522.667C639.482 516.369 629.75 511.217 625.742 511.217C621.162 511.217 602.842 503.202 584.522 493.469C566.775 483.737 557.042 479.729 562.767 484.882C569.065 490.034 577.08 494.042 579.942 494.042C583.377 494.042 581.66 496.904 575.935 500.339C561.05 508.927 528.417 496.332 508.38 474.577C499.22 464.844 491.777 459.692 491.777 463.699C491.777 467.707 495.212 472.859 499.792 475.149C512.96 483.164 522.12 506.064 515.25 512.934C508.952 519.232 479.182 495.759 467.732 475.149C457.427 455.684 468.877 457.402 486.625 477.439C499.792 492.897 501.51 493.469 494.64 481.447C480.9 458.547 488.915 451.104 510.67 466.562L528.99 479.157L514.677 462.554L500.365 446.524L514.677 453.967C522.692 457.974 532.997 464.272 537.577 468.852C542.73 472.859 551.317 475.722 557.615 474.577C563.912 473.432 581.087 478.584 595.972 486.027C616.01 496.332 622.307 497.477 621.162 491.179C620.59 486.599 617.727 480.874 614.865 478.584C612.575 476.294 612.002 477.439 614.292 480.874C620.017 491.179 616.582 490.034 586.24 475.722C562.195 463.699 549.027 449.959 570.21 457.974C575.935 460.264 578.225 459.119 575.935 455.684C573.645 451.677 580.515 450.532 595.4 451.677C619.445 453.967 654.367 474.004 649.215 483.164C646.925 486.027 649.215 486.599 653.795 484.882C658.375 483.164 665.245 486.027 669.252 491.179C673.26 495.759 674.405 499.767 671.542 499.767C669.252 499.767 674.405 507.209 683.565 516.942C692.725 526.102 697.877 534.117 695.587 534.117C692.725 534.117 694.442 538.697 698.45 543.849C705.892 553.009 705.32 553.582 696.732 546.139C691.007 542.132 687.572 536.407 689.29 534.117C691.007 531.827 681.847 523.239 669.252 514.652C657.23 506.637 645.207 502.629 643.49 505.492C641.772 508.354 645.78 513.507 652.077 516.942C658.375 520.377 663.527 521.522 663.527 519.804C663.527 517.514 674.977 529.537 689.29 546.139C715.052 576.482 723.64 593.657 705.32 579.344C697.877 573.047 697.877 574.764 706.465 586.787C721.922 607.397 724.212 593.657 711.617 553.582C705.892 535.834 692.725 511.789 680.13 497.477C657.802 472.287 657.23 465.417 676.122 465.417C695.587 465.417 748.83 436.792 763.142 417.899C771.157 407.594 782.035 394.999 787.187 389.274C795.775 378.969 795.202 377.252 776.882 361.794C743.677 332.597 692.152 303.972 668.68 301.109L645.207 297.674L663.527 283.362C688.145 263.897 724.212 214.089 731.082 188.899C734.517 177.449 742.532 160.847 748.83 151.687L760.852 135.084L736.235 125.924C699.022 111.612 682.42 108.749 678.412 115.619C675.55 119.627 679.557 121.344 687.572 120.772C701.312 119.627 743.677 132.222 743.677 136.802C743.677 143.099 730.51 165.427 720.205 176.304C714.48 182.602 709.327 190.044 708.182 193.479C707.037 196.342 703.602 198.632 700.167 198.632C696.732 198.059 693.87 201.494 693.87 205.502C693.87 211.227 696.732 211.227 705.32 207.219C711.045 203.784 717.342 202.067 718.487 203.784C723.067 208.364 686.427 253.019 674.405 256.454C665.245 259.317 664.1 261.607 669.252 265.042C678.412 270.767 640.627 291.377 607.995 298.819C587.957 303.399 589.102 303.972 624.597 304.544C646.925 305.117 673.832 309.124 687.572 314.849L712.19 325.154L695.015 328.589L677.84 332.597L695.587 333.169C705.32 333.169 721.922 336.604 732.8 340.612L752.265 347.482L735.09 351.489L717.915 355.497L737.952 356.069C753.41 356.642 755.7 358.359 749.402 362.367C743.105 366.374 744.822 368.092 758.562 368.092C770.012 368.092 778.027 371.527 780.317 377.252C783.18 384.122 780.89 385.267 770.585 382.977C763.715 381.259 761.425 381.259 766.005 382.977C771.73 385.839 768.295 389.847 754.555 397.289L735.09 408.167L752.265 404.732L769.44 401.869L755.127 410.457C747.112 415.037 744.25 419.044 748.83 419.617C762.57 419.617 729.937 441.372 701.312 451.104C686.427 456.257 667.535 459.692 658.947 458.547L643.49 456.257L660.665 448.242C670.397 443.662 678.412 439.654 679.557 439.082C685.282 435.647 671.542 420.189 660.092 417.327C652.077 415.037 647.497 411.029 649.215 408.167C650.932 404.732 646.925 402.442 639.482 402.442C629.75 402.442 628.605 400.724 634.33 397.289C640.055 393.854 640.055 391.564 634.902 388.129C625.17 382.404 638.337 373.817 657.802 373.817C669.252 373.817 670.397 372.672 663.527 368.092C656.085 362.939 656.085 362.367 663.527 362.367C668.107 361.794 663.527 357.214 652.65 351.489C639.482 344.619 636.047 340.039 641.2 338.322C645.78 336.604 634.902 336.604 617.727 338.322C571.355 342.329 586.24 334.314 635.475 328.589L677.84 324.009L640.627 322.864C617.727 322.292 606.277 320.002 610.857 317.139C616.01 314.277 610.857 310.842 593.682 307.979L569.065 303.972L586.24 296.529C597.69 291.377 599.98 288.514 594.827 286.224C590.247 285.079 593.11 284.507 602.27 285.652C610.857 286.797 617.727 285.079 617.727 282.217C617.727 278.782 611.43 276.492 603.415 276.492C585.667 276.492 584.522 267.332 601.125 262.179C609.712 259.317 611.43 257.027 606.277 253.592C600.552 250.157 601.125 248.439 606.85 245.004C612.002 241.569 611.43 239.279 602.842 235.844C592.537 231.837 592.537 231.264 603.415 231.264C613.147 230.692 613.147 229.547 606.277 224.967C600.552 221.532 599.98 219.242 605.132 219.242C608.567 219.242 612.002 216.379 612.002 213.517C612.002 210.082 605.705 207.792 598.262 207.792C590.247 207.792 582.232 204.929 580.515 202.067C575.362 194.052 570.21 194.624 557.042 205.502C546.165 214.089 546.737 214.089 559.332 211.799C567.92 209.509 571.927 211.799 571.927 217.524C571.927 222.104 574.217 224.394 576.507 222.677C579.37 220.959 581.66 223.249 581.66 227.829C581.66 232.409 579.37 234.699 577.08 233.554C574.79 231.837 562.767 242.142 550.172 256.454C537.577 270.767 525.555 282.217 522.692 282.217C520.402 282.217 509.525 290.232 499.22 300.537C484.907 314.277 478.61 317.139 474.03 312.559C464.297 302.827 499.792 268.477 514.677 272.484C520.975 274.202 526.127 273.057 526.127 270.194C526.127 267.332 520.975 265.042 514.105 265.042C507.807 265.042 504.372 262.752 506.09 259.317C508.38 255.882 505.517 255.309 499.792 257.599C491.205 261.034 491.777 258.172 502.655 242.714C510.097 232.409 522.692 223.249 532.425 220.959C541.585 219.242 547.31 215.807 546.165 212.944C544.447 210.654 546.165 206.647 549.027 204.929C553.035 202.067 551.89 198.059 545.02 192.334C539.295 187.754 537.577 185.464 541.012 187.182C545.02 188.899 550.745 186.609 554.752 182.029C560.477 175.159 558.76 174.587 545.592 176.877C537.005 178.594 527.845 180.884 524.982 182.602C522.692 184.319 520.402 181.457 520.402 176.877C520.402 168.289 569.065 128.214 579.942 127.642C583.377 127.642 578.225 136.229 568.492 145.962L551.89 164.854L569.065 149.969C591.965 129.932 609.14 121.344 643.49 112.757C670.97 105.887 670.97 105.887 651.505 105.314C624.025 104.742 581.087 117.909 554.18 135.657L532.425 150.542L519.83 108.749C506.09 62.9492 485.48 18.2942 473.457 9.13418C454.565 -5.75082 443.115 -2.31582 401.322 32.6067ZM196.94 133.367C202.665 139.664 206.1 144.817 204.382 144.817C202.665 144.817 196.94 139.664 191.215 133.367C185.49 127.069 182.055 121.917 183.772 121.917C185.49 121.917 191.215 127.069 196.94 133.367ZM254.19 128.214C260.487 137.947 253.617 140.237 245.602 130.504C241.022 125.352 241.022 121.917 244.457 121.917C247.892 121.917 252.472 124.779 254.19 128.214ZM371.552 180.312C361.82 211.227 361.82 210.654 352.087 202.639C341.782 194.052 348.652 170.007 364.682 158.557C378.422 148.252 380.14 152.832 371.552 180.312ZM418.497 161.992C420.787 166.572 422.505 178.022 422.505 187.754C421.932 197.487 420.787 200.922 418.497 196.342C416.78 191.189 412.772 199.777 409.337 216.379C403.04 243.287 390.445 252.447 392.735 227.829L394.452 216.379L389.3 227.829C384.72 236.989 383.575 234.699 383.575 216.379C383.002 199.204 381.285 195.769 377.277 202.067C372.697 208.937 371.552 208.364 371.552 197.487C371.552 190.617 374.987 183.174 379.567 181.457C384.147 179.739 389.3 171.724 391.017 164.282C395.025 148.824 411.627 147.107 418.497 161.992ZM361.247 224.394C370.407 237.562 371.552 238.134 371.552 227.829C372.125 221.532 376.132 227.829 380.712 241.569C388.155 262.752 388.727 267.904 381.857 274.774C374.987 281.072 372.125 280.499 361.82 268.477C353.805 259.889 351.515 252.447 354.95 247.294C357.812 242.714 360.102 235.272 359.53 230.692C359.53 226.112 355.522 231.264 350.37 242.142L341.782 262.179L333.767 243.287C329.187 232.982 326.897 222.104 328.615 219.814C330.332 216.952 328.042 213.517 323.462 211.799C319.455 210.082 316.02 202.067 316.02 194.052V179.167L333.767 194.052C343.5 202.639 356.095 215.807 361.247 224.394ZM459.717 194.052C471.167 205.502 471.167 224.967 460.29 239.852C451.702 250.729 451.702 250.729 455.137 239.279C457.427 230.692 457.427 229.547 452.847 235.844C448.84 241.569 448.84 247.294 452.847 253.592C463.152 269.622 451.13 295.384 432.81 295.957C424.222 296.529 417.352 295.384 417.352 294.239C417.352 292.522 425.367 282.789 435.672 272.484C445.977 262.179 451.13 253.592 447.122 253.592C443.687 253.592 438.535 257.027 436.245 261.607C433.955 266.187 427.657 270.767 423.077 271.912C418.497 273.057 411.627 277.637 407.62 282.217C403.612 286.797 405.902 276.492 412.2 259.317C419.07 242.142 424.222 224.967 424.795 220.959C424.795 216.952 427.657 215.807 430.52 217.524C433.955 219.814 435.1 216.952 432.81 211.227C430.52 206.074 431.092 203.212 433.955 204.929C436.817 206.647 440.825 202.639 443.115 196.342C447.695 182.602 448.267 182.602 459.717 194.052ZM495.785 240.997C484.907 258.744 472.885 274.202 468.877 275.347C463.725 277.064 463.725 274.774 468.877 265.042C473.457 256.454 473.457 253.592 469.45 255.882C461.435 261.034 461.435 255.882 469.45 241.569C472.312 235.272 478.037 232.409 481.472 234.127C485.48 236.989 486.052 235.272 483.19 230.692C479.755 225.539 483.762 218.669 495.212 209.509C518.685 190.617 519.257 203.212 495.785 240.997ZM257.052 233.554C261.632 238.707 262.777 242.142 258.77 242.142C255.335 242.142 251.327 248.439 250.182 256.454C248.465 263.897 249.61 269.049 251.9 267.332C254.762 265.614 257.052 267.332 257.052 270.767C257.052 274.202 259.915 275.347 262.777 273.629C266.785 271.339 266.212 265.614 262.205 257.599C258.197 249.012 261.632 250.729 273.655 263.897C283.387 274.202 291.402 287.942 291.975 295.384C291.975 302.254 293.12 312.559 294.265 317.712C295.41 323.437 294.265 327.444 292.547 326.872C290.257 326.299 283.96 328.017 278.807 330.307C273.655 332.597 263.922 331.452 257.625 328.017C250.755 324.582 243.312 322.864 240.45 324.582C235.297 328.017 207.817 309.124 195.795 293.667C182.055 277.064 188.352 275.919 210.107 291.949C227.282 304.544 229 305.117 220.412 294.812C211.252 283.934 210.68 282.217 218.695 282.217C223.847 282.217 229.572 284.507 231.29 287.942C233.007 290.804 238.732 293.667 243.312 293.667C250.182 293.667 247.892 287.942 235.87 271.912C212.97 242.714 210.107 237.562 214.115 230.692C216.405 227.257 222.13 230.119 228.427 237.562C234.725 245.004 239.305 248.439 239.877 246.149C239.877 243.287 231.862 232.982 221.557 223.822L203.237 206.647L225.565 215.807C238.16 221.532 252.472 228.974 257.052 233.554ZM287.967 236.417C285.105 230.119 285.677 229.547 290.83 234.127C297.7 240.424 293.692 259.317 285.677 259.317C281.67 259.317 268.502 228.974 268.502 220.387C268.502 219.242 273.655 223.822 280.525 231.264C286.822 238.707 290.257 240.997 287.967 236.417ZM580.515 251.874C579.37 257.599 578.225 263.324 577.652 265.042C577.08 266.759 576.507 269.622 577.08 271.912C577.08 274.202 574.217 274.774 569.637 273.057C561.622 270.194 545.02 286.224 550.745 291.949C553.035 293.667 558.187 291.949 563.34 287.942C567.92 283.934 571.927 282.217 571.927 283.934C571.927 292.522 531.852 316.567 510.097 321.147C489.487 326.299 486.625 325.727 492.35 318.857C495.785 314.277 507.235 310.842 518.112 310.842C538.722 310.842 548.455 302.827 534.142 297.102C529.562 295.384 527.272 295.957 528.99 299.392C530.707 302.827 526.127 305.117 518.112 305.117C498.075 305.117 499.22 302.254 526.127 287.369C538.722 279.927 549.027 272.484 549.027 270.767C549.027 265.042 571.927 242.142 577.652 242.142C579.942 242.142 581.66 246.722 580.515 251.874ZM301.135 294.812C299.99 302.254 298.845 296.529 298.845 282.217C298.845 267.904 299.99 262.179 301.135 269.049C302.28 276.492 302.28 287.942 301.135 294.812ZM320.027 282.789C320.027 293.094 317.737 298.819 314.302 296.529C311.44 294.812 308.577 285.079 308.577 275.919C308.577 265.614 310.867 259.889 314.302 262.179C317.737 263.897 320.027 273.629 320.027 282.789ZM468.877 284.507C468.877 286.224 466.587 289.087 463.152 290.804C460.29 292.522 457.427 291.377 457.427 288.514C457.427 285.079 460.29 282.217 463.152 282.217C466.587 282.217 468.877 283.362 468.877 284.507ZM190.642 323.437C190.07 329.162 192.36 333.742 195.222 333.742C198.085 333.742 204.382 337.749 208.962 342.329C216.405 349.772 215.26 350.344 198.657 346.909C188.352 345.192 175.185 341.184 168.887 338.322C158.582 332.597 148.85 340.039 148.277 352.062C148.277 354.924 141.407 356.642 132.82 357.214C115.645 357.787 118.507 358.932 144.27 364.657C152.857 366.947 158.582 370.382 156.865 373.244C155.72 376.107 158.582 380.114 163.735 381.832C172.322 385.267 172.322 386.412 162.017 393.282C156.292 397.862 139.69 404.732 125.95 408.739L100.76 416.182L117.362 423.624C126.522 427.059 143.697 430.494 155.72 431.067C179.765 431.067 184.917 441.944 161.445 443.089C149.995 443.662 152.285 445.379 170.605 448.814C184.345 451.677 198.085 452.249 201.52 449.959C204.955 448.242 205.527 449.387 203.237 452.822C200.947 456.829 186.062 458.547 163.735 457.402C144.27 456.257 138.545 456.829 151.14 457.974C174.04 460.264 194.077 471.142 175.757 471.142C171.177 471.142 163.735 475.149 159.727 479.729C148.85 492.897 104.195 491.179 95.6075 476.867C91.6 470.569 85.875 465.417 82.44 465.417C79.005 465.417 73.28 460.264 69.2725 453.394C62.4025 442.517 62.975 441.944 73.28 444.807C101.332 452.822 106.485 453.394 125.377 448.814C143.697 444.807 142.552 444.234 108.202 441.372C60.685 437.364 57.25 436.219 41.22 423.052C25.7625 409.884 24.6175 402.442 38.3575 402.442C51.525 401.869 101.905 374.389 91.0275 373.817C85.3025 373.244 85.875 371.527 93.89 368.092C100.187 365.229 102.477 362.939 98.47 362.939C88.165 362.367 96.18 346.337 108.775 342.329C115.072 340.039 118.507 336.604 116.79 333.742C112.21 326.872 154.575 310.842 174.04 312.559C186.635 313.132 191.215 316.567 190.642 323.437ZM362.965 322.292C364.682 325.727 362.392 326.299 357.812 324.582C347.507 320.574 345.79 316.567 353.805 316.567C357.24 316.567 361.247 318.857 362.965 322.292ZM383.002 322.292C383.002 325.154 380.14 328.017 376.705 328.017C373.842 328.017 372.697 325.154 374.415 322.292C376.132 318.857 378.995 316.567 380.712 316.567C381.857 316.567 383.002 318.857 383.002 322.292ZM562.767 335.459C546.737 346.337 528.99 356.642 523.265 358.359C514.677 361.794 514.105 361.222 520.402 353.779C526.127 346.909 526.127 345.192 518.112 345.192C512.96 345.192 508.952 348.627 508.952 352.634C508.952 356.642 505.517 365.229 500.937 371.527C492.922 381.832 492.35 381.259 492.922 363.512C493.495 343.474 503.8 334.314 524.41 336.604C531.28 337.177 535.86 335.459 534.142 333.169C531.28 328.017 558.76 317.712 577.652 317.139C589.675 316.567 586.812 319.429 562.767 335.459ZM448.84 332.597C447.122 334.314 442.542 332.597 438.535 328.589C433.382 322.864 433.955 322.292 441.97 325.727C447.695 327.444 450.557 330.879 448.84 332.597ZM224.42 332.024C226.71 333.742 235.297 336.604 243.885 337.177C251.9 338.322 264.495 344.047 270.792 350.917C281.097 361.222 281.67 363.512 274.227 368.092C259.915 377.252 254.762 374.962 231.29 350.917C219.267 338.322 211.825 328.017 214.687 328.017C218.122 328.017 222.702 329.734 224.42 332.024ZM420.215 349.772C416.78 353.779 400.75 343.474 403.612 338.894C405.33 336.032 409.91 337.177 414.49 341.184C418.497 344.619 421.36 348.627 420.215 349.772ZM434.527 339.467C439.107 342.329 440.825 346.337 439.107 348.627C436.817 350.344 431.092 348.054 425.94 342.902C415.635 333.169 420.787 330.879 434.527 339.467ZM457.427 345.192C457.427 348.054 455.137 350.917 451.702 350.917C448.84 350.917 445.977 348.054 445.977 345.192C445.977 341.757 448.84 339.467 451.702 339.467C455.137 339.467 457.427 341.757 457.427 345.192ZM212.397 357.214C248.465 365.229 252.472 373.244 218.122 369.237C194.65 366.374 191.787 367.519 198.657 374.962C204.382 382.404 204.382 384.694 196.367 387.557C186.062 391.564 173.467 383.549 164.88 366.947C157.437 353.779 163.735 343.474 175.757 348.054C181.482 349.772 197.512 354.352 212.397 357.214ZM337.202 356.642C323.462 365.229 316.592 362.939 329.187 354.352C334.912 349.772 341.21 347.482 342.927 348.627C344.072 350.344 341.782 353.779 337.202 356.642ZM388.727 350.917C384.147 353.779 377.85 356.642 374.415 356.642C371.552 356.642 372.697 353.779 377.277 350.917C381.857 348.054 388.727 345.192 391.59 345.192C395.025 345.192 393.307 348.054 388.727 350.917ZM637.192 348.627C662.382 358.359 629.75 384.122 601.697 376.679C593.682 374.962 589.675 375.534 591.392 378.969C593.682 382.404 588.53 382.404 576.507 378.969C566.202 376.107 553.035 375.534 546.737 377.252C539.867 379.542 537.577 378.397 539.867 374.389C542.157 370.954 540.44 368.092 536.432 368.092C532.425 368.092 534.715 364.084 541.585 359.504C550.172 353.779 563.912 351.489 585.667 352.634C603.415 353.779 617.727 352.634 617.727 349.772C617.727 344.047 624.597 344.047 637.192 348.627ZM400.177 362.367C386.437 370.954 379.567 368.664 392.162 360.077C397.887 355.497 404.185 353.207 405.902 354.352C407.047 356.069 404.757 359.504 400.177 362.367ZM449.985 369.237C451.13 380.687 450.557 381.259 445.405 372.672C441.97 366.947 436.245 364.084 429.947 365.802C421.932 368.664 421.36 368.092 428.802 362.939C441.97 353.207 449.412 355.497 449.985 369.237ZM60.685 374.389C61.2575 381.259 58.9675 385.267 54.96 383.549C50.9525 382.404 43.51 384.694 38.3575 389.274C33.205 393.854 25.7625 396.717 22.3275 395.572C18.32 394.427 25.19 386.412 37.785 377.824C49.8075 369.237 59.54 362.367 59.54 362.367C60.1125 362.367 60.1125 367.519 60.685 374.389ZM339.492 370.382C333.767 374.962 327.47 377.252 325.752 376.107C322.89 372.672 337.775 362.367 345.217 362.367C348.652 362.367 345.79 365.802 339.492 370.382ZM415.635 380.687C413.917 384.694 412.772 381.832 412.772 373.817C412.772 365.802 413.917 362.939 415.635 366.374C416.78 370.382 416.78 377.252 415.635 380.687ZM365.827 370.382C365.827 372.099 363.537 374.962 360.102 376.679C357.24 378.397 354.377 377.252 354.377 374.389C354.377 370.954 357.24 368.092 360.102 368.092C363.537 368.092 365.827 369.237 365.827 370.382ZM405.902 373.817C405.902 376.679 403.04 379.542 399.605 379.542C396.742 379.542 395.597 376.679 397.315 373.817C399.032 370.382 401.895 368.092 403.612 368.092C404.757 368.092 405.902 370.382 405.902 373.817ZM250.755 384.694L281.097 394.999L259.915 399.007C237.587 403.587 207.245 390.419 214.115 379.542C218.695 372.672 215.26 372.099 250.755 384.694ZM329.187 389.274C325.752 392.709 308.577 384.122 308.577 378.969C308.577 376.107 313.73 376.679 320.027 380.687C325.752 384.694 330.332 388.702 329.187 389.274ZM348.652 379.542C348.652 382.404 345.79 385.267 342.355 385.267C339.492 385.267 338.347 382.404 340.065 379.542C341.782 376.107 344.645 373.817 346.362 373.817C347.507 373.817 348.652 376.107 348.652 379.542ZM438.535 377.252C436.817 379.542 438.535 384.694 443.115 389.274C447.695 393.854 451.702 400.152 451.702 403.587C451.702 407.022 446.55 404.159 440.252 396.717C427.085 381.832 425.367 373.817 435.672 373.817C439.107 373.817 440.825 375.534 438.535 377.252ZM523.265 379.542C524.982 382.404 522.692 385.267 517.54 385.267C512.387 385.267 510.097 382.404 511.815 379.542C513.532 376.107 516.395 373.817 517.54 373.817C518.685 373.817 521.547 376.107 523.265 379.542ZM372.697 383.549C366.972 385.839 366.972 388.129 372.125 394.427C376.705 400.152 376.705 402.442 372.125 402.442C368.69 402.442 365.827 399.579 365.827 396.144C365.827 393.282 363.537 392.137 360.102 393.854C357.24 395.572 354.377 394.999 354.377 391.564C354.377 385.839 364.11 380.687 374.415 380.687C377.85 380.687 376.705 381.832 372.697 383.549ZM405.902 390.419C405.902 393.282 401.895 397.289 396.742 399.007C384.72 403.587 383.002 403.587 383.002 396.144C383.002 393.282 385.865 392.137 388.727 393.854C392.162 395.572 394.452 394.427 394.452 391.564C394.452 388.129 397.315 385.267 400.177 385.267C403.612 385.267 405.902 387.557 405.902 390.419ZM612.575 394.999C617.155 400.152 628.605 408.739 637.765 415.037C653.222 424.197 653.795 425.342 642.345 425.342C635.475 425.342 625.742 427.059 620.017 429.349C613.72 431.639 611.43 431.067 613.72 427.059C616.01 423.052 607.995 419.617 591.965 416.754C577.652 415.037 567.347 410.457 569.065 407.594C571.355 404.732 567.92 400.724 562.195 397.862C554.18 394.999 557.615 393.282 574.79 390.419C587.385 388.702 599.407 386.412 601.125 385.839C603.415 385.839 608.567 389.274 612.575 394.999ZM196.367 399.579C190.642 404.159 181.482 408.167 176.902 408.167C171.177 408.739 171.75 410.457 179.765 413.892C194.65 420.189 204.955 420.762 195.222 414.464C190.07 411.602 193.505 409.884 204.955 410.457C233.007 411.602 215.26 420.762 179.765 423.052C129.957 426.487 122.515 417.899 163.162 403.587C204.382 389.274 211.252 388.702 196.367 399.579ZM320.027 402.442C324.035 396.144 326.325 396.717 333.195 403.587C340.637 411.029 340.065 412.174 325.18 412.174C312.012 412.174 308.577 409.312 309.15 400.152C309.722 389.274 310.295 389.274 312.585 399.007C314.875 407.022 316.592 408.167 320.027 402.442ZM593.682 425.914C598.835 426.487 595.972 428.777 586.24 431.067C574.217 433.929 572.5 435.647 580.515 436.792L591.965 437.364L580.515 442.517C560.477 451.104 529.562 448.814 511.815 436.792C502.655 430.494 497.502 425.342 500.365 425.342C503.8 425.342 502.082 422.479 497.502 419.617C491.205 415.037 493.495 414.464 505.517 417.327C517.54 420.189 520.975 419.617 518.112 414.464C515.822 411.029 510.097 408.167 505.517 408.167C500.937 408.167 497.502 405.877 497.502 403.014C497.502 400.152 516.967 404.159 540.44 411.602C564.485 419.044 587.957 425.914 593.682 425.914ZM365.827 408.739C373.27 413.892 372.697 414.464 364.682 411.602C357.812 409.884 354.377 411.602 354.377 416.754C354.377 421.334 352.087 425.342 349.225 425.342C346.362 425.342 345.217 420.189 346.935 413.892C350.37 400.724 353.805 400.152 365.827 408.739ZM405.902 408.167C401.322 411.029 395.025 413.892 391.59 413.892C388.727 413.892 389.872 411.029 394.452 408.167C399.032 405.304 405.902 402.442 408.765 402.442C412.2 402.442 410.482 405.304 405.902 408.167ZM257.625 416.182C247.32 421.907 245.602 424.769 251.9 427.632C256.48 429.349 254.19 429.922 246.747 428.777C239.877 427.632 235.297 428.204 237.015 431.067C238.732 433.357 235.87 436.792 231.29 439.082C226.71 440.799 222.702 439.654 222.702 436.792C222.702 433.929 218.122 432.784 212.97 434.502C207.245 436.792 210.107 431.639 219.84 423.052C230.145 414.464 243.885 408.739 254.19 408.739H271.365L257.625 416.182ZM427.657 433.929C426.512 433.929 419.07 439.082 410.482 444.234C396.742 452.822 394.452 452.822 386.437 444.807C376.132 434.502 374.415 425.342 383.575 425.342C386.437 425.342 388.155 427.059 387.01 429.349C385.292 432.212 387.582 437.364 392.162 441.372C399.032 447.669 400.75 447.097 403.612 440.227C405.33 435.074 409.337 432.784 412.2 434.502C415.062 436.219 417.352 434.502 417.352 431.639C417.352 428.204 415.062 425.342 411.627 425.342C408.765 425.342 405.902 422.479 405.902 418.472C405.902 415.037 411.055 416.754 417.352 422.479C423.65 428.204 428.23 433.357 427.657 433.929ZM340.637 427.632C350.942 437.937 350.942 440.799 340.065 440.799C335.485 440.799 332.622 439.082 334.34 437.937C336.057 436.219 334.34 431.639 330.905 427.059C322.317 416.754 330.332 417.327 340.637 427.632ZM298.845 429.349C294.837 430.494 286.822 430.494 281.67 429.349C275.945 427.632 279.38 426.487 288.54 426.487C298.272 426.487 302.28 427.632 298.845 429.349ZM443.115 431.067C444.832 433.929 443.687 436.792 440.825 436.792C437.39 436.792 434.527 433.929 434.527 431.067C434.527 427.632 435.672 425.342 436.817 425.342C438.535 425.342 441.397 427.632 443.115 431.067ZM491.777 430.494C491.777 433.357 486.625 434.502 480.327 432.784C474.03 431.067 468.877 428.777 468.877 427.632C468.877 426.487 474.03 425.342 480.327 425.342C486.625 425.342 491.777 427.632 491.777 430.494ZM654.94 436.792C638.91 443.662 623.452 443.662 623.452 436.792C623.452 433.357 633.185 431.067 645.207 431.639C662.382 431.639 664.1 432.784 654.94 436.792ZM275.372 440.799C271.937 441.944 269.647 445.952 271.937 448.814C274.8 453.967 260.487 456.829 248.465 453.967C245.602 452.822 236.442 452.822 228.427 452.822L214.115 453.967L228.427 445.952C236.442 441.372 251.9 437.937 262.777 437.937C273.655 437.937 279.38 439.082 275.372 440.799ZM371.552 442.517C371.552 445.379 367.545 448.242 362.965 448.242C358.385 448.242 354.377 445.379 354.377 442.517C354.377 439.082 358.385 436.792 362.965 436.792C367.545 436.792 371.552 439.082 371.552 442.517ZM443.687 463.127C441.97 467.134 444.26 472.859 448.267 475.149C455.71 479.729 474.602 505.492 474.602 511.217C474.602 512.934 470.022 514.652 463.725 515.224C458 515.797 443.115 506.064 431.092 493.469C419.07 481.447 412.772 471.142 416.78 471.142C421.36 471.142 433.382 480.302 443.687 491.752C468.305 517.514 469.45 512.934 445.405 485.454C435.672 474.577 430.52 465.417 433.955 465.417C437.39 465.417 437.962 461.409 436.245 455.684C433.955 449.387 434.527 447.669 439.68 450.532C443.687 453.394 445.405 458.547 443.687 463.127ZM293.692 466.562C290.83 470.569 293.12 471.714 298.845 469.424C303.997 467.707 298.272 475.722 286.822 487.744C275.372 499.767 263.922 508.354 261.632 507.209C259.342 506.064 265.64 497.477 275.945 488.317C286.25 479.157 291.402 471.142 287.967 471.142C285.105 471.142 276.517 476.294 270.22 482.019C263.35 488.317 257.052 491.752 255.335 490.607C250.755 486.027 227.855 498.622 210.107 515.797C200.947 523.812 194.077 528.392 194.077 524.957C194.077 516.369 219.267 488.889 228.427 487.172C233.007 486.027 240.45 480.874 244.457 475.149C248.465 469.997 254.762 465.417 258.197 465.417C262.205 465.417 259.915 469.424 253.617 474.004C243.885 481.447 244.457 481.447 261.06 475.722C274.227 470.569 277.662 467.134 272.51 463.699C268.502 460.837 271.365 460.264 279.38 462.554C289.112 465.417 291.975 464.844 288.54 459.692C285.677 454.539 286.25 453.394 290.83 456.257C294.265 458.547 295.41 463.127 293.692 466.562ZM202.665 476.867C187.207 483.737 178.047 483.737 188.352 476.867C192.932 474.004 200.947 471.714 205.527 471.714C211.252 471.714 210.107 473.432 202.665 476.867ZM383.002 476.867C387.01 470.569 388.727 470.569 388.727 475.722C388.727 487.744 372.697 515.224 362.965 519.232C355.522 521.522 354.95 520.377 360.102 511.217C363.537 504.919 364.682 497.477 362.965 494.614C361.247 491.752 361.82 484.882 363.537 479.729C366.4 472.287 368.69 471.714 372.125 478.012C376.132 484.309 378.422 483.737 383.002 476.867ZM314.302 490.607C314.302 510.072 290.257 536.407 281.097 527.247C277.09 523.239 274.227 517.514 274.227 514.079C274.227 504.919 294.265 487.172 298.845 491.752C301.135 494.042 303.997 491.179 306.287 486.027C311.44 472.859 314.302 474.577 314.302 490.607ZM423.077 515.224C423.077 527.819 418.497 523.239 412.2 503.774C406.475 487.172 407.047 486.599 414.49 496.332C419.07 502.629 423.077 511.217 423.077 515.224ZM254.762 503.774C253.617 508.927 249.61 515.224 245.03 516.942C240.45 519.232 230.717 523.812 223.847 527.819C202.092 538.697 203.237 531.827 225.565 511.789C248.465 491.752 256.48 489.462 254.762 503.774ZM335.485 500.912C336.63 497.477 340.637 494.042 343.5 494.042C346.935 494.042 346.935 498.622 342.927 504.919C340.065 511.217 337.202 523.239 337.202 532.399C337.202 558.734 288.54 622.282 279.38 607.397C277.09 604.534 274.227 607.969 271.937 615.984C269.647 625.144 262.205 632.587 250.755 636.594C227.855 644.609 228.427 644.609 228.427 634.877C228.427 626.862 267.357 597.092 278.807 597.092C282.815 597.092 285.677 593.084 285.677 588.504C285.677 583.924 287.967 579.917 290.83 579.917C299.99 579.917 326.325 516.369 322.89 503.202C320.027 493.469 320.6 492.897 325.752 499.767C330.905 506.064 333.195 506.637 335.485 500.912ZM592.537 515.224C591.392 516.369 586.24 515.224 581.087 513.507C573.072 510.644 572.5 508.354 578.225 504.919C585.095 500.912 597.69 510.644 592.537 515.224ZM410.482 534.689C409.337 545.567 406.475 553.582 403.04 553.009C395.025 551.292 392.735 536.407 397.315 518.659C402.467 497.477 412.772 510.644 410.482 534.689ZM500.365 524.384C498.075 519.804 499.792 518.087 504.945 520.377C511.815 522.667 531.852 557.589 531.852 566.749C531.852 569.039 520.402 559.307 506.09 545.567C491.777 531.827 480.327 516.369 480.327 511.217C480.327 505.492 484.335 506.637 492.35 516.942C498.647 524.957 502.655 527.819 500.365 524.384ZM558.187 510.644C568.492 511.789 602.27 568.467 592.537 568.467C580.515 568.467 537.577 543.849 537.577 536.979C537.577 526.674 543.875 526.102 554.752 535.262C559.332 539.269 555.897 534.689 546.737 524.384C533.57 509.499 532.425 506.637 541.012 508.354C547.31 509.499 554.752 510.644 558.187 510.644ZM304.57 544.994C295.982 561.024 285.105 574.192 281.67 574.192C277.662 574.192 274.227 576.482 274.227 579.344C274.227 582.207 268.502 587.932 261.06 593.084C247.32 602.244 247.892 603.962 250.755 565.604C251.327 562.169 257.052 557.017 264.495 554.154C272.51 550.147 276.517 544.422 275.372 536.979C274.227 527.819 274.8 527.247 279.38 533.544C283.387 540.414 286.822 540.414 293.12 535.262C297.127 531.254 302.28 530.109 304.57 531.827C306.287 533.544 309.15 529.537 311.44 522.667C313.73 515.797 316.592 511.789 318.31 512.934C319.455 514.652 313.73 528.964 304.57 544.994ZM257.052 542.704C249.61 550.719 240.45 557.017 236.442 557.017C233.007 557.017 226.71 561.024 222.702 565.604C218.695 570.757 211.825 573.619 207.817 571.902C203.81 570.184 198.657 574.192 196.94 580.489C191.787 596.519 197.512 600.527 209.535 590.222C231.862 571.329 234.725 571.902 232.435 595.374C227.855 636.022 214.687 648.044 194.077 629.724C189.497 626.289 187.78 625.144 190.07 628.007C195.222 634.877 176.902 648.044 161.445 648.617C154.575 648.617 140.835 655.487 130.53 664.074C114.5 677.814 112.21 678.387 115.645 668.654C119.652 657.777 119.652 657.777 111.637 668.082C103.05 678.387 103.05 678.387 103.622 668.082C104.195 661.784 102.477 649.189 100.187 638.884C96.7525 623.999 98.47 618.274 113.927 602.817C123.66 593.084 129.957 582.779 128.24 580.489C127.095 577.627 130.53 571.329 136.827 565.604C143.125 559.879 148.277 557.589 148.277 559.879C148.277 562.742 154.575 558.734 162.017 551.864C173.467 540.987 175.757 540.414 179.192 548.429C181.482 555.872 184.917 556.444 194.077 551.292C200.375 547.857 205.527 547.284 204.955 549.574C204.382 551.864 204.382 557.589 204.955 561.597C205.527 570.757 219.267 567.322 220.412 558.162C220.985 554.154 221.557 549.002 222.13 546.139C222.13 543.277 231.29 535.834 241.022 528.964C265.64 514.079 275.945 522.667 257.052 542.704ZM381.285 540.987C379.567 554.727 379.567 561.024 381.857 554.727C386.437 544.994 387.01 545.567 396.17 559.307C405.33 573.047 405.33 575.909 397.315 591.367C392.735 600.527 388.727 612.549 388.727 618.274C388.727 627.434 388.155 626.862 380.712 616.557C364.682 593.657 358.957 559.307 368.117 536.979C379.567 510.072 385.292 511.789 381.285 540.987ZM547.31 587.359C551.317 585.642 561.622 590.222 569.637 596.519L585.095 608.542H563.912C538.722 608.542 520.402 599.954 520.402 587.932C520.402 581.634 523.265 581.062 530.707 584.497C535.86 587.359 543.875 588.504 547.31 587.359ZM617.727 622.854C630.895 627.434 653.795 631.442 668.68 632.014C686.427 632.014 691.58 633.732 684.137 636.594C672.115 641.174 609.712 633.732 591.965 625.717C585.667 622.854 573.072 619.419 563.34 618.274C549.6 616.557 551.317 615.984 569.637 614.839C582.805 614.839 604.56 618.274 617.727 622.854ZM212.97 646.899C217.55 650.907 162.59 670.944 145.415 671.517C135.682 671.517 135.682 672.662 142.552 677.242C149.422 681.822 148.85 682.967 138.545 682.967C129.957 682.967 126.522 680.104 128.812 674.952C132.82 665.219 156.292 654.342 174.04 654.342C182.055 654.342 188.352 651.479 188.352 648.617C188.352 642.319 207.245 640.602 212.97 646.899Z" fill="black"/>
</svg>
