<svg width="717" height="696" viewBox="0 0 717 696" fill="none" xmlns="http://www.w3.org/2000/svg">
<path d="M257.283 15.3447C249.268 25.6497 244.115 37.0997 246.405 42.2522C248.695 48.5497 250.985 45.1147 254.42 32.5197C260.718 9.61971 269.878 13.6272 271.023 38.8172L272.168 57.1372L275.603 37.0997C278.465 22.2147 281.9 17.6347 289.343 18.7797C303.083 21.0697 301.365 17.0622 285.335 6.18471C271.595 -2.40279 270.45 -2.40279 257.283 15.3447Z" fill="black"/>
<path d="M297.358 35.9541C307.09 46.2591 317.395 59.4266 319.113 66.2966C321.403 72.5941 324.265 76.6016 325.983 75.4566C327.128 73.7391 325.41 66.2966 321.403 58.8541C315.105 47.4041 315.678 46.8316 323.12 52.5566C327.7 56.5641 336.288 69.7316 341.44 82.3266C351.173 103.509 351.173 105.227 341.44 119.539C336.288 128.127 329.99 132.707 328.273 129.272C325.983 125.837 323.693 134.997 323.12 149.309C322.548 163.622 318.54 179.079 313.388 183.659C303.083 193.964 301.938 199.689 311.098 193.964C315.678 191.674 316.25 193.964 313.388 202.552C311.67 208.849 312.243 214.574 314.533 214.574C317.395 214.574 318.54 224.307 316.823 235.757L314.533 257.512L308.808 240.909C304.8 229.459 301.938 226.597 298.503 232.322C296.213 236.902 296.785 243.199 300.793 248.352C306.518 255.222 305.373 256.367 295.068 253.504C285.908 251.214 283.618 252.359 285.908 258.084C287.625 262.664 284.763 267.817 279.61 269.534C274.458 271.252 271.595 274.687 272.74 276.977C274.458 279.267 265.298 280.984 253.275 280.984C241.253 280.984 232.093 279.267 233.238 277.549C234.955 275.259 228.658 267.244 220.07 259.802L204.613 246.062L218.353 261.519C232.093 276.977 228.085 284.419 214.345 270.679C210.338 266.672 207.475 265.527 207.475 267.817C207.475 274.687 242.97 294.152 250.413 291.289C253.848 289.572 257.283 292.434 257.283 297.587C257.283 322.204 175.415 286.709 158.813 254.649C147.363 232.322 147.935 227.742 161.675 240.337C167.973 246.062 173.125 248.352 173.125 246.062C173.125 243.199 179.995 247.207 189.155 255.222L204.613 268.962L190.873 253.504C183.43 244.917 174.843 239.192 171.98 240.909C169.118 242.627 167.4 239.764 168.545 234.039C169.69 226.024 167.4 223.734 159.385 224.879C149.08 226.597 149.08 226.024 156.523 216.864C163.393 208.277 163.393 207.704 156.523 211.712C150.225 215.147 149.08 214.002 151.943 206.559C154.233 201.407 153.66 197.972 150.798 199.689C143.928 204.269 138.775 149.882 145.073 141.867C149.08 137.859 148.508 133.852 144.5 131.562C141.638 129.844 138.775 125.264 138.775 122.402C138.775 118.967 150.798 125.264 166.255 134.997C181.14 145.302 189.728 149.882 186.293 145.302C180.568 138.432 180.568 134.997 186.293 128.699C192.018 121.829 191.445 121.829 182.858 128.699C174.843 134.424 170.835 134.424 166.255 129.844C158.24 121.829 158.24 121.829 188.583 120.684C201.75 120.112 211.483 121.257 209.765 123.547C208.62 125.837 211.483 129.272 216.635 130.989C221.788 132.707 223.505 132.134 221.788 128.127C219.498 125.264 227.513 126.409 240.108 131.562C253.848 137.287 259 137.859 254.993 133.852C250.985 129.844 246.978 112.097 246.405 94.3491L245.26 62.8616L243.543 92.6316L241.253 122.402L224.65 116.104C214.918 112.669 207.475 106.372 207.475 101.219C207.475 92.6316 208.62 92.6316 213.2 100.074C217.78 106.944 218.925 105.227 218.925 92.6316C218.925 84.0441 224.078 72.0216 230.375 65.7241C236.673 59.4266 241.825 51.4116 241.825 47.9766C241.825 39.3891 217.208 70.3041 205.185 92.6316C196.025 110.952 194.308 111.524 161.675 111.524C142.783 111.524 127.325 113.814 127.325 117.249C127.325 120.112 122.745 122.974 117.02 122.974C111.295 122.974 90.1128 129.272 69.5028 137.859C49.4653 145.874 25.9928 151.027 17.4053 149.882C-1.48718 147.592 -2.63218 151.027 12.8253 170.492C19.1228 178.507 24.2753 189.384 23.7028 195.682C23.7028 204.842 23.1303 204.842 18.5503 194.537C15.1153 185.949 13.3978 185.377 13.3978 192.247C12.8253 202.552 42.0228 246.634 59.1978 261.519C70.0753 271.252 70.0753 271.824 39.1603 310.182C9.39032 346.822 8.24532 349.112 20.2678 353.692C44.3128 362.852 47.7478 369.149 35.7253 385.179C29.4278 393.767 17.9778 424.682 10.5353 453.879C-1.48718 499.679 -2.63218 507.694 4.81032 514.564C15.6878 525.442 70.0753 536.319 100.418 534.029L124.463 532.312V559.792C124.463 574.677 126.18 586.699 127.898 586.699C129.615 586.699 137.058 579.829 145.073 571.814L158.813 556.929L162.248 570.669C166.255 583.837 166.255 583.837 166.828 569.524C167.4 550.632 181.14 531.739 201.75 520.862C224.078 509.412 228.658 509.984 216.063 523.724C210.338 530.022 204.04 533.457 201.178 532.312C198.888 530.594 194.88 532.312 192.59 535.747C190.3 540.327 190.873 540.899 194.88 538.609C204.04 532.884 202.895 541.472 193.163 554.639C188.583 560.937 184.575 568.379 184.575 571.814C184.575 574.677 192.018 566.089 201.178 551.777C226.368 514.564 235.528 504.259 240.108 508.267C242.398 510.557 251.558 505.404 260.718 496.817C275.03 483.649 277.32 482.504 273.885 492.237C271.023 499.679 271.595 501.969 275.603 497.962C278.465 494.527 281.9 488.802 283.045 484.222C284.19 480.214 290.488 469.909 297.93 461.894C304.8 453.879 310.525 443.574 310.525 438.994C310.525 418.957 321.403 442.429 323.693 466.474L325.983 492.237L326.555 463.039C327.128 446.437 324.838 431.552 320.83 426.972C314.533 421.247 315.105 420.674 323.693 423.537C332.28 426.972 333.425 435.559 333.425 483.649C333.425 515.137 335.715 542.044 339.15 543.762C346.593 548.342 346.593 563.799 339.723 563.799C336.86 563.799 332.853 560.364 331.708 556.357C330.563 552.922 329.99 556.357 331.135 564.944C332.28 574.104 330.563 580.974 327.7 580.974C324.265 580.974 321.975 584.982 321.975 589.562C321.975 601.012 302.51 610.172 284.763 607.309C277.32 605.592 269.305 607.309 267.588 610.172C265.298 613.034 267.588 615.324 271.595 615.897C275.603 615.897 266.443 622.194 250.413 629.637C212.628 647.384 221.215 647.384 264.725 630.209C295.068 617.614 299.075 617.042 301.938 625.629C303.655 631.354 317.395 649.102 332.853 665.704L360.333 695.474L383.805 663.414C397.545 645.094 409.568 624.484 411.285 617.042C414.72 604.447 415.293 603.874 422.735 613.607C427.888 620.477 430.178 621.049 430.75 616.469C430.75 611.889 433.613 610.744 438.193 613.034C442.773 615.897 442.773 614.752 437.048 607.882C433.04 602.729 427.315 599.294 425.025 601.012C419.3 604.447 399.263 577.539 387.813 551.204C383.233 540.899 379.798 535.747 379.225 540.327C379.225 544.907 385.523 559.792 393.538 573.532C401.553 586.699 406.133 598.149 403.27 598.149C396.4 598.149 370.638 569.524 359.76 549.487C354.035 539.754 351.173 537.464 352.89 543.762C356.325 555.212 356.325 555.212 347.738 544.334C343.158 538.037 339.15 524.869 339.723 515.709C340.295 498.534 340.295 498.534 344.875 512.274C349.455 524.869 350.028 523.724 350.028 503.687C350.6 491.092 352.318 470.482 354.608 457.887L358.043 434.987L365.485 460.749L372.355 486.512L372.928 458.459C373.5 422.392 380.943 428.117 380.37 464.757C380.37 491.092 380.943 491.092 384.95 472.772C387.813 461.894 388.385 449.872 386.668 445.864C385.523 441.857 388.958 435.559 395.828 431.552C404.988 425.254 406.133 422.392 400.408 414.949C395.828 409.224 397.545 409.797 405.56 416.667C411.858 421.819 418.728 425.254 420.445 422.964C422.163 421.247 429.605 428.117 436.475 437.849C443.345 447.582 450.788 454.452 452.505 452.162C454.223 450.444 462.238 455.024 470.253 461.894L485.138 475.062L471.398 459.604C463.955 451.017 455.368 445.292 453.078 447.009C450.215 448.727 447.925 448.154 447.353 445.292C447.353 443.002 446.208 434.987 445.635 427.544C443.918 412.659 447.353 412.087 462.81 423.537C470.825 429.834 471.398 431.552 464.528 428.689C458.803 426.972 453.078 429.262 450.215 433.269C447.925 437.277 447.925 438.994 450.788 436.704C463.383 425.254 525.213 481.359 520.06 499.679C518.915 504.832 515.48 519.717 513.19 532.312L508.61 555.212L505.175 535.174C501.168 517.427 500.595 518.572 500.023 546.052C499.45 572.959 500.595 575.822 506.893 567.234C513.763 557.502 516.053 557.502 546.968 566.662C564.715 571.814 584.18 574.677 589.905 573.532C597.348 571.242 596.203 570.669 587.043 570.097C579.6 570.097 573.875 567.234 573.875 564.372C573.875 562.082 567.005 560.364 558.418 562.082C544.678 563.799 544.105 563.227 553.838 558.647C563.57 554.067 561.853 552.922 544.678 552.922C526.358 552.349 524.068 550.632 524.068 538.037C524.068 530.022 525.785 523.724 528.075 523.724C530.938 523.724 531.51 517.999 529.22 511.129C526.93 500.824 528.075 499.679 537.235 502.542C547.54 506.549 547.54 505.977 538.38 498.534C532.655 494.527 528.075 488.229 528.075 485.367C528.075 481.932 522.35 472.199 515.48 463.612L503.458 448.154L521.205 457.314C530.938 462.467 541.243 466.474 543.533 466.474C545.823 465.902 535.518 459.604 520.633 451.589C505.748 443.574 494.87 434.987 496.588 432.124C498.878 428.689 501.168 426.399 502.885 426.399C504.603 426.399 504.603 428.689 502.885 430.979C501.168 433.842 508.038 435.559 518.343 436.132C560.135 436.132 596.203 440.139 593.34 444.147C592.195 446.437 593.34 449.872 596.203 452.162C599.638 453.879 600.783 450.444 599.638 443.574C595.63 421.819 628.263 437.849 642.003 464.757C651.735 483.649 649.445 486.512 635.705 474.489C627.69 468.192 629.408 471.054 639.14 481.932C647.728 491.664 653.453 502.542 651.735 505.977C649.445 508.839 654.025 515.709 660.895 520.289C675.208 530.594 674.635 530.594 632.843 530.594C616.24 530.594 602.5 533.457 602.5 536.319C602.5 539.754 597.348 540.899 591.05 539.182C584.753 537.464 576.738 540.327 572.73 544.907C566.433 552.922 567.005 553.494 576.738 550.632C605.363 542.044 631.125 540.327 640.858 546.052C648.873 550.632 648.873 552.349 642.575 552.349C635.133 552.349 635.133 552.922 642.575 558.074C650.018 562.654 649.445 563.799 640.285 563.799C633.988 563.799 630.553 564.944 632.27 566.662C633.988 568.952 642.575 568.379 651.735 566.089C666.048 562.654 666.62 561.509 656.888 557.502C648.873 554.639 648.3 552.922 654.025 552.349C659.75 552.349 657.46 548.914 648.3 543.189C637.995 536.892 637.423 535.747 645.438 538.037C651.735 540.327 664.33 543.189 674.063 544.907C688.375 548.342 689.52 548.914 679.788 552.922C670.628 556.357 672.345 557.502 687.23 557.502C711.275 558.074 710.13 552.922 684.368 532.312C672.345 522.579 661.468 509.984 660.895 503.687C659.75 497.389 656.315 491.092 653.453 490.519C650.59 489.374 649.445 485.939 651.163 483.077C655.17 477.352 645.438 457.887 628.835 437.849C620.248 427.544 612.233 424.109 601.355 425.254C592.195 426.399 585.325 429.262 585.325 432.124C585.325 437.277 517.198 425.254 473.688 411.514C456.513 405.789 443.918 399.492 445.635 396.629C447.353 393.767 454.223 393.194 461.093 394.912C470.825 397.774 471.97 397.202 465.1 392.622C460.52 389.187 451.36 388.042 445.063 389.759C434.758 392.049 434.758 392.049 443.918 386.324C449.07 382.889 451.933 377.164 450.215 373.729C447.353 369.722 449.07 368.577 455.368 370.867C459.948 372.584 471.398 372.012 480.558 369.149C496.015 364.569 495.443 364.569 473.688 363.424C453.078 362.852 451.933 362.279 464.528 357.127L478.84 351.402L466.245 342.814C446.78 329.647 451.36 316.479 481.13 297.587C504.03 282.702 513.763 280.412 546.968 280.412C568.15 280.412 582.463 279.267 579.6 278.694C576.165 277.549 575.02 274.687 576.165 272.969C579.028 267.244 524.068 264.954 500.023 268.962C489.145 271.252 482.848 274.687 486.283 276.404C489.718 278.694 485.138 286.137 475.405 293.579C466.818 301.022 459.375 304.457 459.375 301.022C459.375 298.159 465.1 291.289 471.97 286.709C478.84 281.557 482.848 277.549 480.558 277.549C477.695 277.549 481.13 270.107 487.428 260.947C494.298 251.787 499.45 241.482 499.45 238.619C499.45 235.184 505.175 230.604 511.473 228.887C521.205 225.452 522.35 223.734 516.053 219.727C509.755 215.719 509.755 214.574 515.48 214.574C519.488 214.574 521.778 212.284 520.06 209.422C518.343 206.559 524.64 201.407 534.945 197.972C557.273 189.957 612.233 189.957 616.813 197.399C619.103 200.834 622.538 201.979 625.4 200.262C627.69 198.544 636.278 199.689 643.72 202.552C654.598 207.132 651.163 208.277 625.973 208.277C608.798 208.849 596.775 210.567 598.493 212.857C600.783 214.574 615.095 215.719 630.553 215.147C650.59 214.574 659.178 216.864 661.468 223.162C663.758 227.742 662.04 232.894 658.605 235.184C654.598 238.047 654.025 236.329 656.888 232.322C660.323 226.597 658.605 226.024 648.873 231.749C642.003 235.184 637.995 240.337 639.713 243.199C644.293 250.642 585.898 287.282 564.715 290.717C552.693 292.434 555.555 293.007 574.448 294.152C600.21 294.724 629.98 311.327 621.393 319.914C619.103 322.204 621.393 322.204 626.545 320.487C631.698 318.197 637.423 319.342 639.713 322.777C642.003 326.784 636.85 329.074 627.118 329.647C607.653 330.792 617.958 333.082 661.468 337.662C679.215 339.952 694.1 343.959 694.1 346.822C694.1 350.257 691.81 350.829 688.375 349.112C684.94 347.394 684.368 349.684 686.085 354.264C689.52 363.424 675.208 382.317 668.91 376.592C667.193 374.302 665.475 376.019 665.475 380.027C665.475 384.607 660.895 385.752 652.88 383.462C641.43 380.599 640.858 380.599 650.018 386.324C658.605 392.049 659.178 394.339 652.88 402.354C648.873 407.507 654.598 404.644 665.475 395.484C676.353 386.324 692.383 366.859 701.543 351.974L717 325.067L688.375 321.059C672.345 318.769 652.88 314.762 644.865 311.899L630.553 306.174L644.293 287.854C659.75 267.244 676.925 229.459 676.925 216.292C676.925 211.712 669.483 205.414 660.323 202.552L643.72 196.827L646.01 152.744C647.155 128.127 650.018 101.792 652.88 94.3491C657.46 82.3266 656.315 79.4641 646.01 75.4566C629.408 69.1591 549.83 76.6016 530.938 86.3341C522.35 90.9141 512.618 92.6316 509.183 90.3416C505.175 88.0516 504.603 90.3416 506.893 96.6391C509.183 102.364 511.473 120.112 511.473 136.142L512.045 165.912L517.198 137.859C519.488 121.829 520.633 107.517 519.488 105.227C517.198 101.792 556.128 82.8991 565.288 82.8991C566.433 82.8991 566.433 88.0516 565.288 94.3491C564.143 101.219 565.288 104.654 568.723 102.937C571.585 100.647 572.73 97.2116 571.013 94.9216C569.868 92.0591 585.898 90.3416 607.653 90.3416C637.995 90.3416 646.583 92.0591 644.293 98.3566C642.575 102.364 639.14 104.654 636.85 102.937C633.988 101.219 629.98 102.364 628.263 105.799C625.973 109.234 627.69 110.952 631.698 110.379C635.705 109.234 639.713 113.814 640.858 120.112C642.575 128.699 642.003 129.272 637.995 124.119C633.988 117.822 632.27 117.822 629.408 125.264C627.118 130.417 628.835 133.852 632.27 132.707C635.705 132.134 639.713 134.997 641.43 139.577C642.575 144.157 641.43 145.874 638.568 144.157C635.133 141.867 629.98 147.019 626.545 154.462C621.393 165.912 621.393 167.629 628.263 164.767C632.843 163.049 635.133 159.042 632.843 155.607C631.125 152.172 632.27 151.599 635.705 153.889C640.285 156.752 640.858 161.332 636.85 168.202C633.988 173.927 633.415 180.224 635.133 182.514C636.85 184.232 632.843 185.949 625.973 185.949C617.385 185.949 614.523 183.659 617.385 178.507C620.82 173.354 620.248 173.354 613.378 177.934C608.798 181.942 592.768 184.804 576.738 184.232C561.28 184.232 542.388 185.949 536.09 187.667C525.213 191.674 524.068 189.957 526.93 176.217C528.075 167.057 532.655 156.752 536.09 152.172C540.67 145.874 540.67 144.729 535.518 148.164C522.35 155.607 527.503 138.432 544.105 120.684C558.418 104.082 558.418 103.509 544.678 116.104C536.663 122.974 528.075 126.982 526.358 124.692C524.068 122.974 522.35 134.424 522.35 150.454C522.35 173.354 518.343 187.667 504.603 211.712C494.87 228.887 485.138 242.054 482.848 240.909C481.13 239.764 470.253 246.062 459.375 255.222L439.338 272.397L457.658 263.809C467.39 258.657 476.55 251.787 478.268 247.779C480.558 242.627 481.703 242.627 481.703 247.207C482.275 250.642 475.405 258.657 466.818 264.954C446.208 278.694 432.468 286.137 437.62 280.412C439.91 278.122 439.338 271.252 436.475 266.099C432.468 258.657 433.613 253.504 439.91 248.352C444.49 244.344 451.36 235.757 454.223 229.459C459.948 217.437 459.948 217.437 450.788 228.887C445.635 235.184 438.765 239.764 435.903 238.619C432.468 238.047 431.323 239.764 433.613 243.199C435.33 246.062 434.758 248.924 431.323 248.924C428.46 248.924 424.453 244.344 423.308 238.619C421.018 229.459 420.445 229.459 419.873 238.619C419.3 244.917 414.72 248.924 408.423 248.924C387.24 248.924 379.225 242.054 378.653 223.734C377.508 207.704 377.508 207.132 374.645 220.299C371.783 231.749 370.638 230.032 367.775 208.849L364.34 183.087L359.188 208.849L354.035 234.612L347.165 211.712C341.44 193.964 339.723 191.674 339.723 203.124C339.15 214.574 338.005 215.719 333.425 208.849C330.563 204.269 328.273 191.102 328.273 180.224C328.845 161.904 329.418 161.332 333.425 174.499C337.433 187.667 338.005 187.667 339.15 168.774C339.723 157.897 340.295 145.302 339.723 140.722C338.578 136.714 340.868 134.424 343.73 136.142C346.02 138.432 348.31 133.852 348.31 126.982C347.738 120.112 350.6 114.387 354.608 114.387C358.043 114.387 363.195 112.097 366.058 109.234C368.92 106.372 367.775 105.799 363.768 108.089C347.165 117.249 358.043 99.5016 380.943 79.4641C394.11 68.0141 400.98 60.5716 396.4 62.8616C391.82 65.1516 383.805 70.8766 379.225 74.8841C371.21 81.1816 368.348 79.4641 356.898 60.5716C344.303 40.5341 319.113 19.9241 306.518 19.9241C304.228 19.9241 309.953 24.5041 319.113 30.2291C336.86 41.1066 355.18 59.9991 348.31 59.9991C346.02 59.9991 348.31 65.7241 352.89 72.5941C363.195 86.9066 364.34 94.3491 357.47 94.3491C350.6 94.3491 338.578 65.7241 342.585 59.4266C344.303 56.5641 336.86 50.2666 326.555 45.6866C316.25 41.1066 301.365 32.5191 293.35 27.3666C282.473 19.9241 283.045 22.2141 297.358 35.9541ZM629.98 81.1816C624.255 82.3266 613.95 82.3266 607.08 81.1816C599.638 80.0366 604.218 78.8916 616.813 78.8916C629.408 78.3191 635.133 79.4641 629.98 81.1816ZM130.188 150.454C130.188 160.759 131.905 168.774 134.195 168.774C136.485 168.774 138.203 178.507 138.203 189.957C138.203 201.979 139.348 217.437 141.065 224.879C142.783 231.749 141.638 236.329 138.775 234.612C136.485 232.894 133.05 234.612 131.905 238.047C130.76 241.482 123.318 244.917 114.73 244.917C106.715 245.489 100.99 247.779 102.708 250.069C103.853 252.932 101.563 254.649 96.4103 254.649C91.8303 254.649 87.2503 257.512 86.1053 260.947C82.0978 272.397 59.1978 260.374 50.0378 243.199C38.5878 220.872 39.1603 218.582 54.6178 226.597C63.2053 230.604 62.0603 228.314 50.0378 218.582C40.8778 210.567 31.7178 206.559 30.0003 208.849C28.2828 211.139 27.1378 201.979 26.5653 188.239C25.9928 165.912 27.7103 163.049 43.1678 157.324C52.9003 154.462 68.3578 151.599 78.0903 151.027C95.2653 150.454 95.2653 150.454 81.5253 146.447C68.3578 142.439 69.5028 141.294 92.9753 136.142C126.753 128.127 130.188 129.272 130.188 150.454ZM340.868 228.887C339.15 234.039 336.288 236.902 335.143 235.184C333.425 233.467 333.998 230.032 336.288 226.597C341.44 217.437 344.875 219.154 340.868 228.887ZM325.983 247.207C324.265 252.932 323.12 249.497 323.12 240.337C323.12 230.604 324.265 226.597 325.983 230.032C327.128 234.039 327.128 242.054 325.983 247.207ZM652.308 254.077C645.438 261.519 643.148 266.099 647.155 263.809C658.033 257.512 655.17 267.244 639.713 285.564C627.118 301.594 624.828 302.167 611.66 294.724C597.92 287.854 596.203 277.549 608.798 277.549C612.233 277.549 612.805 280.412 610.515 284.419C608.225 288.427 608.798 288.999 613.378 286.709C616.813 284.419 618.53 280.412 617.385 278.122C615.668 275.832 621.965 267.817 631.698 260.947C640.858 254.077 647.155 246.062 645.438 243.199C643.72 240.337 647.728 238.619 654.025 239.192C664.903 239.764 664.903 240.337 652.308 254.077ZM154.805 263.237C161.103 277.549 161.103 277.549 131.333 278.694L101.563 279.839L130.188 281.557C178.278 284.992 178.278 291.289 130.188 294.724L84.3878 298.159L138.203 299.304C188.583 300.449 191.445 299.877 184.003 290.144C176.56 281.557 177.133 280.984 185.72 288.427C191.445 292.434 210.338 302.167 228.658 309.609C246.978 317.052 256.71 323.349 250.413 323.349C244.115 323.349 229.23 318.197 217.208 311.899C192.018 298.159 186.293 297.587 195.453 308.464C201.178 314.762 200.033 317.052 192.018 319.342C186.293 321.059 192.018 322.204 204.613 322.777C227.513 323.922 250.985 335.372 243.543 342.242C241.825 344.532 244.115 346.249 249.268 346.249C267.588 346.249 259 357.127 237.818 360.562C203.468 366.287 201.75 369.722 234.383 366.287C252.703 363.997 265.298 365.714 267.588 369.722C270.45 373.729 267.015 375.447 258.428 374.302C239.535 372.584 202.895 380.027 179.995 390.332C163.393 398.347 158.24 398.347 126.753 389.759C79.2353 376.019 40.8778 358.844 55.7628 357.127C62.0603 356.554 58.6253 354.837 47.7478 352.547C36.8703 350.829 27.1378 346.249 25.9928 343.387C22.5578 332.509 90.6853 265.527 113.585 257.512C144.5 246.634 147.363 246.634 154.805 263.237ZM350.6 284.419C350.6 287.282 348.31 288.999 344.875 288.999C342.013 288.999 339.15 283.274 339.15 275.832C339.15 265.527 340.295 264.954 344.875 271.824C347.738 276.404 350.6 282.129 350.6 284.419ZM331.135 286.137C329.418 290.717 331.135 294.724 334.57 294.724C338.005 294.724 339.723 295.869 338.005 297.587C333.425 302.167 316.25 294.152 316.25 287.854C316.25 284.992 319.113 284.419 321.975 286.137C325.41 287.854 327.7 286.709 327.7 283.847C327.7 280.412 329.418 277.549 331.135 277.549C332.853 277.549 333.425 281.557 331.135 286.137ZM401.553 296.442C401.553 301.594 400.408 301.594 398.69 296.442C396.973 292.434 391.248 291.289 386.095 293.007C378.08 295.297 378.08 294.724 384.95 290.144C394.11 283.274 402.125 286.137 401.553 296.442ZM366.058 315.334C364.913 316.479 359.76 316.479 354.608 314.189C347.165 311.899 346.593 309.037 352.318 303.312C358.043 297.014 360.333 297.587 363.768 304.457C366.63 309.037 367.775 314.189 366.058 315.334ZM376.363 300.449C378.08 303.312 376.935 306.174 374.073 306.174C370.638 306.174 367.775 303.312 367.775 300.449C367.775 297.014 368.92 294.724 370.065 294.724C371.783 294.724 374.645 297.014 376.363 300.449ZM310.525 309.037C310.525 312.472 307.09 315.907 303.083 315.907C298.503 315.907 295.068 312.472 295.068 309.037C295.068 305.602 298.503 302.167 303.083 302.167C307.09 302.167 310.525 305.602 310.525 309.037ZM324.838 305.602C326.555 308.464 325.41 312.472 321.975 314.762C319.113 316.479 316.25 314.189 316.25 309.609C316.25 299.304 319.685 297.587 324.838 305.602ZM387.24 314.189C383.805 322.777 373.5 327.357 373.5 320.487C373.5 315.907 387.24 301.022 389.53 303.312C390.103 303.884 389.53 309.037 387.24 314.189ZM450.788 306.174C449.07 309.037 443.918 311.899 440.483 311.899C436.475 311.899 437.048 309.609 442.2 306.174C453.078 299.304 455.368 299.304 450.788 306.174ZM413.575 311.899C416.438 306.747 418.728 307.319 421.018 313.617C423.308 319.342 421.018 321.632 414.72 321.059C409.568 319.914 404.988 316.479 404.415 312.472C403.27 307.892 403.843 307.892 406.133 312.472C408.423 317.052 410.14 317.052 413.575 311.899ZM394.683 335.944C392.965 339.952 391.82 337.089 391.82 329.074C391.82 321.059 392.965 318.197 394.683 321.632C395.828 325.639 395.828 332.509 394.683 335.944ZM688.375 330.792C692.955 332.509 690.665 334.227 682.078 334.227C674.063 334.799 662.613 330.792 656.315 326.212C646.01 318.197 646.583 318.197 662.613 322.777C672.345 325.639 683.795 329.647 688.375 330.792ZM353.463 329.074C351.745 331.937 353.463 334.799 357.47 334.799C362.05 334.799 360.905 337.662 355.18 341.097C342.585 347.967 342.013 355.982 354.035 358.844C358.615 359.989 353.463 363.424 342.585 366.859C331.708 370.294 323.693 370.867 325.41 368.577C327.128 365.714 323.12 357.699 316.823 350.829C309.953 343.959 305.945 337.089 307.663 335.372C309.38 334.227 314.533 337.662 319.113 343.959C323.693 349.684 327.7 351.974 327.7 349.112C328.273 345.677 331.135 348.539 333.998 354.837C338.005 363.997 338.578 361.707 336.86 346.249C335.143 335.372 335.715 329.647 337.433 333.082C340.295 341.097 351.173 343.387 350.028 335.944C348.883 329.074 350.6 323.349 354.035 323.349C355.753 323.349 355.18 325.639 353.463 329.074ZM427.315 333.654C429.033 336.517 425.025 343.387 418.155 348.539C408.423 357.127 406.705 357.127 409.568 350.257C411.285 345.104 410.14 339.952 406.133 338.234C402.125 336.517 405.56 336.517 413.003 338.234C422.163 340.524 425.025 339.952 422.735 335.372C420.445 331.937 419.873 329.074 421.59 329.074C423.308 329.074 425.598 331.364 427.315 333.654ZM384.95 346.249C389.53 349.112 391.248 351.974 387.813 351.974C384.95 351.974 378.08 349.112 373.5 346.249C368.92 343.387 367.775 340.524 370.638 340.524C374.073 340.524 380.37 343.387 384.95 346.249ZM396.4 359.417C391.248 363.424 387.813 375.447 387.813 387.469C388.385 402.354 386.095 406.934 381.515 403.499C378.08 400.064 372.928 400.064 370.638 402.354C367.775 404.644 367.775 402.927 370.065 398.919C376.363 388.614 367.203 390.332 359.188 401.209C352.89 409.797 352.318 409.797 352.318 401.209C352.318 396.057 354.608 392.049 357.47 392.049C360.333 392.049 361.478 389.759 359.76 387.469C358.615 385.179 362.05 382.889 367.775 382.889C373.5 382.889 376.935 385.179 375.79 387.469C374.073 389.759 375.79 392.049 378.653 392.049C388.385 392.049 386.095 370.867 376.363 366.859C371.783 365.142 367.775 360.562 367.775 356.554C367.775 350.257 368.92 350.257 372.355 356.554C378.08 364.569 396.4 359.989 396.4 350.257C396.4 346.822 398.118 346.249 400.408 348.539C403.27 350.829 400.98 355.982 396.4 359.417ZM307.09 360.562C304.8 365.142 301.365 367.432 298.503 365.714C292.205 362.279 297.358 351.974 304.8 351.974C307.663 351.974 308.808 355.982 307.09 360.562ZM71.7928 378.882C74.0828 380.599 68.3578 386.897 59.1978 392.622C49.4653 398.347 39.1603 408.652 35.1528 416.094C30.0003 426.399 32.2903 425.254 44.8853 411.514C68.9303 385.752 83.2428 382.889 114.158 397.774C128.47 404.644 143.355 408.652 147.363 406.934C151.943 405.217 153.66 408.079 151.943 415.522C150.225 421.247 146.79 425.254 144.5 423.537C141.638 421.819 137.63 423.537 135.34 426.972C133.05 431.552 133.623 432.124 137.63 429.834C146.218 424.682 146.79 440.712 138.203 456.169C134.768 462.467 121.6 472.199 108.433 478.497C95.2653 484.222 87.8228 489.374 91.8303 489.374C95.8378 489.374 106.715 485.367 115.303 480.787C130.76 472.772 131.905 473.344 129.043 483.077C126.18 495.672 105.57 504.832 75.8003 508.267C64.9228 509.984 72.9378 510.557 94.1203 509.984C129.615 509.412 133.05 508.267 136.485 495.099C138.775 487.084 139.92 477.352 139.348 472.772C138.775 468.764 140.493 467.047 143.928 468.764C146.79 471.054 151.37 469.337 153.66 465.902C156.523 461.322 155.378 460.749 150.225 463.612C145.645 466.474 143.928 465.329 145.645 460.177C147.363 455.597 151.37 452.734 154.233 453.307C157.668 453.879 166.255 447.582 173.698 438.994C181.713 430.407 182.858 427.544 176.56 432.124C164.538 441.857 150.225 444.719 150.225 437.849C150.225 434.987 155.95 425.827 163.393 417.812C173.125 406.362 184.003 401.209 207.475 397.774C237.818 393.767 237.818 393.194 216.063 392.049L193.163 390.904L216.063 386.324C241.253 381.172 276.175 385.179 276.175 392.622C276.175 395.484 269.305 397.774 260.718 398.347C235.528 398.347 194.308 416.667 192.59 427.544C191.445 436.132 193.163 436.132 206.33 426.399C221.788 414.949 284.763 405.789 278.465 415.522C276.748 418.384 278.465 420.674 281.328 420.674C284.763 420.674 287.625 417.812 287.625 413.804C287.625 410.369 288.77 408.652 290.488 410.369C292.205 412.087 292.205 417.812 289.915 422.964C286.48 432.124 285.335 432.124 276.175 423.537C266.443 414.377 265.87 414.949 267.588 424.682C268.16 430.407 272.168 434.414 276.175 433.269C279.61 432.697 281.9 434.987 280.755 438.994C279.038 443.002 275.03 446.437 271.595 446.437C268.16 446.437 261.863 450.444 257.855 455.024C251.558 461.894 251.558 461.894 259 457.314C263.58 453.879 271.595 451.589 276.175 451.589C280.755 452.162 289.343 443.002 294.495 432.124C299.648 421.247 304.228 415.522 304.228 419.529C305.373 431.552 287.625 461.322 281.9 457.887C278.465 455.597 276.175 457.887 276.175 462.467C276.175 471.627 256.71 491.092 252.13 486.512C250.413 484.794 245.833 487.084 241.825 492.237C237.818 496.817 230.375 500.824 225.223 500.824C218.925 500.824 221.215 496.244 233.238 485.939L250.413 471.054L232.665 483.077C222.933 489.374 213.773 493.382 212.055 491.664C210.338 490.519 205.758 492.809 201.75 497.962C197.743 502.542 186.293 506.549 175.988 506.549C163.393 506.549 154.233 510.557 147.935 519.144L138.203 532.312L141.638 517.999C144.5 507.122 143.928 505.977 139.348 512.274C135.913 516.854 134.768 527.159 135.913 535.174C138.775 548.914 138.203 548.342 132.478 534.029C127.325 520.862 124.463 519.144 115.875 523.724C101.563 531.167 75.2278 531.167 43.1678 523.152L17.4053 516.282L33.4353 508.839C50.0378 501.397 50.0378 501.397 27.1378 504.259L4.23782 507.694L21.4128 497.962C45.4578 484.794 46.0303 483.077 23.7028 487.657C7.67282 490.519 5.38282 489.947 10.5353 483.077C13.9703 478.497 17.4053 471.054 17.4053 466.474C21.9853 407.507 51.7553 358.844 71.7928 378.882ZM310.525 380.599C310.525 383.462 309.38 386.324 308.235 386.324C306.518 386.324 303.655 383.462 301.938 380.599C300.22 377.164 301.365 374.874 304.228 374.874C307.663 374.874 310.525 377.164 310.525 380.599ZM347.738 385.179C346.02 386.897 341.44 385.179 337.433 381.172C332.28 375.447 332.853 374.874 340.868 378.309C346.593 380.027 349.455 383.462 347.738 385.179ZM413.575 380.599C418.155 383.462 419.873 386.324 416.438 386.324C413.575 386.324 406.705 383.462 402.125 380.599C397.545 377.737 396.4 374.874 399.263 374.874C402.698 374.874 408.995 377.737 413.575 380.599ZM327.7 386.324C327.7 389.187 325.41 392.049 321.975 392.049C319.113 392.049 316.25 389.187 316.25 386.324C316.25 382.889 319.113 380.599 321.975 380.599C325.41 380.599 327.7 382.889 327.7 386.324ZM335.715 400.637C329.99 405.217 322.548 409.224 319.685 409.224C316.25 409.224 319.113 405.217 325.41 400.637C331.135 396.057 338.578 392.049 341.44 392.049C344.875 392.049 342.013 396.057 335.715 400.637ZM344.875 455.024L340.295 475.062L339.723 449.299C339.15 433.842 341.44 426.399 344.303 429.262C347.738 432.697 347.738 443.574 344.875 455.024ZM177.705 533.457C135.913 569.524 130.188 573.532 135.913 563.799C138.203 559.219 144.5 550.059 149.653 544.334C154.805 538.037 155.378 535.174 151.943 537.464C147.935 539.754 144.5 539.182 144.5 536.319C144.5 524.869 165.683 514.564 192.018 512.847C198.315 512.274 193.163 519.717 177.705 533.457ZM358.043 579.257C355.753 584.982 356.898 587.272 360.333 584.982C364.34 582.119 365.485 585.554 363.195 593.569C360.333 606.164 360.333 606.164 370.065 596.432C380.37 586.699 380.943 586.699 394.11 598.722C401.553 605.592 406.705 613.034 405.56 614.752C404.988 616.469 402.125 623.339 399.835 629.637C396.4 638.797 394.683 639.369 390.103 632.499C384.95 625.629 384.378 625.629 387.24 633.644C388.958 639.369 388.385 648.529 386.668 653.682C383.233 662.269 382.088 661.697 378.653 649.674C374.645 635.934 374.645 636.507 374.073 653.109C372.928 682.307 350.6 693.184 350.6 664.559C350.6 655.399 349.455 654.254 345.448 660.552C342.013 666.277 339.15 663.987 334.57 651.964C331.135 642.804 328.273 638.797 328.273 643.377C327.7 653.109 304.8 628.492 304.8 618.187C304.8 604.447 321.403 603.874 323.693 617.042C325.41 626.202 326.555 624.484 327.128 611.317C328.273 578.684 338.578 584.982 340.868 619.332L342.585 652.537L343.73 614.179C344.875 580.402 346.593 574.677 360.333 570.097C360.905 569.524 359.76 573.532 358.043 579.257Z" fill="black"/>
<path d="M103.279 161.331C106.714 162.476 113.584 162.476 117.592 161.331C121.027 159.614 118.164 158.469 110.149 158.469C102.134 158.469 99.2719 159.614 103.279 161.331Z" fill="black"/>
<path d="M44.3129 168.774C42.5954 172.209 44.8854 172.782 49.4654 171.064C59.7704 167.057 61.4879 163.049 53.4729 163.049C50.0379 163.049 46.0304 165.339 44.3129 168.774Z" fill="black"/>
<path d="M35.7251 188.239C35.7251 189.384 40.3051 193.964 46.0301 197.972C54.6176 205.414 55.1901 204.842 47.7476 195.682C40.3051 186.522 35.7251 183.659 35.7251 188.239Z" fill="black"/>
<path d="M79.8076 220.872C83.8151 224.879 88.3951 226.597 90.1126 224.879C91.8301 223.162 88.9676 219.727 83.2426 218.009C75.2276 214.574 74.6551 215.147 79.8076 220.872Z" fill="black"/>
<path d="M115.875 231.749C110.722 235.184 110.15 237.474 114.157 237.474C117.592 237.474 122.745 234.612 124.462 231.749C129.042 224.879 126.752 224.879 115.875 231.749Z" fill="black"/>
<path d="M218.925 346.249C218.925 349.684 222.932 351.974 227.512 351.974C232.092 351.974 236.1 350.829 236.1 349.684C236.1 348.539 232.092 346.249 227.512 343.959C222.932 342.242 218.925 343.387 218.925 346.249Z" fill="black"/>
<path d="M186.292 355.982C191.445 357.127 199.46 357.127 203.467 355.982C206.902 354.264 202.895 353.119 193.162 353.119C184.002 353.119 180.567 354.264 186.292 355.982Z" fill="black"/>
<path d="M111.867 361.707C120.455 362.852 134.195 362.852 143.355 361.707C151.942 360.562 144.5 359.417 127.325 359.417C110.15 359.417 102.707 360.562 111.867 361.707Z" fill="black"/>
<path d="M111.867 373.157C117.019 374.302 126.179 374.302 131.904 373.157C137.057 371.439 132.477 370.294 121.599 370.294C110.722 370.294 106.142 371.439 111.867 373.157Z" fill="black"/>
<path d="M154.804 373.157C161.674 374.302 173.124 374.302 180.566 373.157C187.436 372.012 181.711 370.867 167.399 370.867C153.086 370.867 147.361 372.012 154.804 373.157Z" fill="black"/>
<path d="M72.9371 408.652C63.7771 414.377 48.3196 428.117 38.5871 438.422L21.4121 457.887L44.3121 437.277C56.9071 425.827 75.2271 412.087 84.3871 407.507C94.1196 402.354 99.2721 398.347 95.8371 397.774C92.9746 397.774 82.6696 402.354 72.9371 408.652Z" fill="black"/>
<path d="M166.825 459.032C159.383 468.192 159.955 468.765 169.115 461.322C174.268 457.315 178.848 452.735 178.848 451.59C178.848 447.01 174.268 449.872 166.825 459.032Z" fill="black"/>
<path d="M150.224 484.222C146.216 490.519 144.499 497.389 146.216 498.534C147.361 499.679 151.369 494.527 154.804 486.512C162.819 469.337 158.811 467.619 150.224 484.222Z" fill="black"/>
<path d="M63.2047 493.381C66.6397 494.526 73.5097 494.526 77.5172 493.381C80.9522 491.664 78.0897 490.519 70.0747 490.519C62.0597 490.519 59.1972 491.664 63.2047 493.381Z" fill="black"/>
<path d="M368.347 618.76C368.347 625.057 370.065 626.775 371.782 622.195C373.5 618.187 372.927 613.035 371.21 611.317C369.492 609.027 367.775 612.462 368.347 618.76Z" fill="black"/>
<path d="M450.788 39.3891C436.475 45.1141 435.903 46.8316 443.918 50.2666C450.788 53.1291 453.078 51.9841 450.215 47.4041C447.925 43.3966 448.498 42.8241 453.078 45.1141C456.513 47.4041 458.23 51.9841 455.94 54.8466C454.223 57.7091 450.788 58.8541 447.925 57.1366C442.773 53.7016 387.24 102.364 379.225 117.249C376.363 122.974 388.958 112.097 408.423 93.2041C427.315 74.3116 443.918 59.9991 446.208 61.7166C447.925 63.4341 437.048 80.0366 422.163 98.3566C396.973 128.699 397.545 128.127 432.468 91.4866L470.253 51.4116L471.398 74.3116C471.97 90.3416 473.115 93.2041 474.833 82.8991C479.413 58.8541 486.855 57.1366 491.435 80.0366C494.298 97.2116 496.588 99.5016 500.595 92.0591C504.603 85.1891 502.313 75.4566 492.58 58.8541C477.123 31.3741 473.688 29.6566 450.788 39.3891Z" fill="black"/>
<path d="M260.717 74.3121C260.717 89.7696 261.862 96.0671 263.007 86.9071C264.152 78.3196 264.152 65.7246 263.007 58.2821C261.862 51.4121 260.717 58.2821 260.717 74.3121Z" fill="black"/>
<path d="M413.574 54.274C408.994 57.1365 407.849 59.999 410.712 59.999C414.147 59.999 420.444 57.1365 425.024 54.274C429.604 51.4115 431.322 48.549 427.887 48.549C425.024 48.549 418.154 51.4115 413.574 54.274Z" fill="black"/>
<path d="M483.993 117.249C483.993 140.722 485.138 150.454 486.283 138.432C487.428 126.982 487.428 107.517 486.283 95.4941C485.138 84.0441 483.993 93.7766 483.993 117.249Z" fill="black"/>
<path d="M265.868 117.249C265.868 125.264 267.013 128.127 268.731 124.119C269.876 120.684 269.876 113.814 268.731 109.807C267.013 106.372 265.868 109.234 265.868 117.249Z" fill="black"/>
<path d="M466.246 117.249C466.246 125.264 467.391 128.127 469.108 124.119C470.253 120.684 470.253 113.814 469.108 109.807C467.391 106.372 466.246 109.234 466.246 117.249Z" fill="black"/>
<path d="M561.851 121.257C554.408 130.417 554.981 130.99 564.141 123.547C573.301 116.105 576.163 111.525 571.583 111.525C570.438 111.525 565.858 116.105 561.851 121.257Z" fill="black"/>
<path d="M193.162 134.997C190.3 139.577 190.3 141.294 193.162 139.004C195.452 136.714 201.75 140.149 207.475 147.019C213.772 155.034 218.352 156.752 221.215 152.744C222.932 149.309 222.36 145.302 218.925 143.012C216.062 141.294 213.2 141.294 213.2 143.584C213.2 145.874 209.765 143.584 205.757 137.287C198.887 128.699 197.17 128.127 193.162 134.997Z" fill="black"/>
<path d="M269.304 137.287C267.587 140.149 274.457 152.744 284.762 164.767C297.357 179.652 304.799 184.232 307.662 179.652C311.669 173.354 291.059 152.172 280.754 151.599C279.037 151.599 276.174 147.019 275.029 141.294C273.884 136.142 271.594 133.852 269.304 137.287Z" fill="black"/>
<path d="M379.224 152.744C372.927 163.049 367.774 173.927 367.774 176.789C367.774 183.659 368.347 182.514 383.804 155.607C398.689 129.844 394.682 126.982 379.224 152.744Z" fill="black"/>
<path d="M460.52 145.874C460.52 153.889 461.665 156.752 463.382 152.744C464.527 149.309 464.527 142.439 463.382 138.432C461.665 134.997 460.52 137.859 460.52 145.874Z" fill="black"/>
<path d="M144.5 154.462C144.5 157.325 147.363 164.195 150.225 168.775C153.088 173.355 155.95 174.5 155.95 171.637C155.95 168.202 153.088 161.905 150.225 157.325C147.363 152.745 144.5 151.027 144.5 154.462Z" fill="black"/>
<path d="M228.085 156.179C226.367 159.042 228.657 164.767 232.665 168.202C238.962 173.927 240.68 173.354 239.535 166.484C237.817 154.462 232.092 149.882 228.085 156.179Z" fill="black"/>
<path d="M604.79 164.194L593.913 177.362L607.08 166.484C619.103 156.179 622.538 151.599 617.958 151.599C616.813 151.599 611.088 157.324 604.79 164.194Z" fill="black"/>
<path d="M267.587 185.949C279.61 198.544 291.06 208.849 292.777 208.849C294.495 208.849 285.335 198.544 273.312 185.949C261.29 173.354 249.84 163.049 248.122 163.049C246.405 163.049 255.565 173.354 267.587 185.949Z" fill="black"/>
<path d="M454.221 172.209C454.221 178.507 455.938 180.224 457.656 175.644C459.373 171.637 458.801 166.484 457.083 164.767C455.366 162.477 453.648 165.912 454.221 172.209Z" fill="black"/>
<path d="M477.124 172.209C477.124 178.507 478.841 180.224 480.559 175.644C482.276 171.637 481.704 166.484 479.986 164.767C478.269 162.477 476.551 165.912 477.124 172.209Z" fill="black"/>
<path d="M267.586 203.124C273.311 209.421 279.036 214.574 280.754 214.574C282.471 214.574 279.036 209.421 273.311 203.124C267.586 196.826 261.861 191.674 260.144 191.674C258.426 191.674 261.861 196.826 267.586 203.124Z" fill="black"/>
<path d="M462.811 207.132C459.376 215.147 459.948 215.72 465.673 210.567C469.681 206.56 471.398 201.98 469.681 200.262C467.963 198.545 464.528 201.407 462.811 207.132Z" fill="black"/>
<path d="M442.771 207.132C442.198 210.567 440.481 218.582 438.763 224.307C435.901 234.039 435.901 234.039 442.198 224.307C445.633 218.582 447.351 211.139 445.633 207.132C443.916 201.979 442.771 201.979 442.771 207.132Z" fill="black"/>
<path d="M567.005 207.132C571.012 208.849 576.165 208.277 577.882 206.559C580.172 204.842 576.737 203.124 570.44 203.697C564.142 203.697 562.425 205.414 567.005 207.132Z" fill="black"/>
<path d="M184.574 228.887C192.017 236.902 199.459 243.199 200.604 243.199C202.322 243.199 197.742 236.902 190.299 228.887C182.857 220.872 175.414 214.574 174.269 214.574C172.552 214.574 177.132 220.872 184.574 228.887Z" fill="black"/>
<path d="M572.729 218.582C576.736 220.299 581.889 219.727 583.606 218.009C585.896 216.292 582.461 214.574 576.164 215.147C569.866 215.147 568.149 216.864 572.729 218.582Z" fill="black"/>
<path d="M539.524 226.024C529.219 232.894 538.379 232.894 553.837 226.024C561.279 222.589 562.424 220.872 556.699 220.872C552.119 220.872 544.104 223.162 539.524 226.024Z" fill="black"/>
<path d="M512.044 236.902C505.747 240.91 506.319 242.055 513.762 244.917C520.059 247.78 521.777 246.635 518.914 242.055C516.052 237.475 517.769 236.902 524.639 239.192C530.364 241.482 533.227 240.91 530.937 237.475C526.929 230.605 521.777 230.605 512.044 236.902Z" fill="black"/>
<path d="M496.586 254.649C494.869 258.084 497.159 258.657 501.739 256.939C512.044 252.932 513.761 248.924 505.746 248.924C502.311 248.924 498.304 251.214 496.586 254.649Z" fill="black"/>
<path d="M532.654 298.732C536.662 300.45 541.814 299.877 543.532 298.16C545.822 296.442 542.387 294.725 536.089 295.297C529.792 295.297 528.074 297.015 532.654 298.732Z" fill="black"/>
<path d="M569.867 310.182C578.455 311.327 591.05 311.327 598.492 310.182C605.362 309.037 598.492 307.892 582.462 307.892C567.005 307.892 560.707 309.037 569.867 310.182Z" fill="black"/>
<path d="M518.342 315.907C523.495 317.052 531.51 317.052 535.517 315.907C538.952 314.19 534.945 313.045 525.212 313.045C516.052 313.045 512.617 314.19 518.342 315.907Z" fill="black"/>
<path d="M462.237 322.777C460.52 325.639 461.092 329.647 463.955 331.364C466.817 333.082 469.107 330.792 469.107 326.212C469.107 316.479 467.39 315.334 462.237 322.777Z" fill="black"/>
<path d="M492.579 321.632C496.586 323.35 501.739 322.777 503.456 321.06C505.746 319.342 502.311 317.625 496.014 318.197C489.716 318.197 487.999 319.915 492.579 321.632Z" fill="black"/>
<path d="M641.429 361.707C645.436 363.424 650.589 362.852 652.306 361.134C654.596 359.417 651.161 357.699 644.864 358.272C638.566 358.272 636.849 359.989 641.429 361.707Z" fill="black"/>
<path d="M493.724 386.325C498.304 389.187 505.174 392.05 508.036 392.05C511.471 392.05 509.754 389.187 505.174 386.325C500.594 383.462 494.296 380.6 490.861 380.6C487.999 380.6 489.144 383.462 493.724 386.325Z" fill="black"/>
<path d="M618.528 390.331C622.536 392.049 627.688 391.476 629.406 389.759C631.696 388.041 628.261 386.324 621.963 386.896C615.666 386.896 613.948 388.614 618.528 390.331Z" fill="black"/>
<path d="M538.379 396.057C548.112 397.202 565.287 397.202 575.592 396.057C585.324 394.912 577.309 393.767 556.699 393.767C536.089 393.767 528.074 394.912 538.379 396.057Z" fill="black"/>
<path d="M618.528 401.782C622.536 403.5 627.688 402.927 629.406 401.21C631.696 399.492 628.261 397.775 621.963 398.347C615.666 398.347 613.948 400.065 618.528 401.782Z" fill="black"/>
<path d="M589.904 407.507C593.339 408.652 600.209 408.652 604.217 407.507C607.652 405.789 604.789 404.644 596.774 404.644C588.759 404.644 585.897 405.789 589.904 407.507Z" fill="black"/>
<path d="M526.93 413.232C537.235 414.377 552.693 414.377 561.28 413.232C569.868 412.087 561.28 410.942 542.388 410.942C523.495 410.942 516.625 412.087 526.93 413.232Z" fill="black"/>
<path d="M631.123 414.949C625.971 418.384 625.398 420.674 629.406 420.674C632.841 420.674 637.993 417.812 639.711 414.949C644.291 408.079 642.001 408.079 631.123 414.949Z" fill="black"/>
<path d="M429.605 453.307C441.055 466.475 451.36 477.925 452.505 477.925C455.94 477.925 430.75 444.147 424.452 440.712C421.59 438.422 420.445 434.987 421.59 432.697C423.307 430.407 421.017 428.117 416.437 428.117C411.857 428.117 417.582 438.422 429.605 453.307Z" fill="black"/>
<path d="M394.108 436.704C392.391 439.567 394.681 441.857 399.261 441.857C403.841 441.857 406.131 439.567 404.413 436.704C402.696 434.414 400.406 432.124 399.261 432.124C398.116 432.124 395.826 434.414 394.108 436.704Z" fill="black"/>
<path d="M557.27 445.864C558.415 447.009 565.858 451.017 573.873 454.452C587.613 460.749 587.613 460.749 577.308 452.734C568.148 445.292 549.255 438.994 557.27 445.864Z" fill="black"/>
<path d="M311.096 469.909C311.096 476.207 312.813 477.924 314.531 473.344C316.248 469.337 315.676 464.184 313.958 462.467C312.241 460.177 310.523 463.612 311.096 469.909Z" fill="black"/>
<path d="M616.812 483.649C622.537 489.947 628.262 495.099 629.98 495.099C631.697 495.099 628.262 489.947 622.537 483.649C616.812 477.352 611.087 472.199 609.37 472.199C607.652 472.199 611.087 477.352 616.812 483.649Z" fill="black"/>
<path d="M486.855 486.512C489.717 492.81 493.725 501.97 495.442 506.55C498.305 513.992 498.877 513.992 498.877 505.977C499.45 501.397 495.442 492.237 490.29 485.94C481.702 475.062 481.702 475.062 486.855 486.512Z" fill="black"/>
<path d="M316.822 509.984C316.822 516.282 318.54 517.999 320.257 513.419C321.975 509.412 321.402 504.259 319.685 502.542C317.967 500.252 316.25 503.687 316.822 509.984Z" fill="black"/>
<path d="M374.644 518C374.644 526.015 375.789 528.877 377.506 524.87C378.651 521.435 378.651 514.565 377.506 510.557C375.789 507.122 374.644 509.985 374.644 518Z" fill="black"/>
<path d="M483.42 523.724C483.42 531.739 484.565 534.602 486.282 530.594C487.427 527.159 487.427 520.289 486.282 516.282C484.565 512.847 483.42 515.709 483.42 523.724Z" fill="black"/>
<path d="M218.924 547.769C209.764 564.372 201.749 580.402 201.749 583.264C201.749 590.134 202.322 588.989 223.504 550.632C233.809 532.884 240.679 517.999 238.962 517.999C237.817 517.999 228.657 531.739 218.924 547.769Z" fill="black"/>
<path d="M391.248 529.449C391.248 534.029 393.538 542.044 396.401 546.624C403.271 556.929 403.271 547.769 396.401 532.312C392.966 524.869 391.248 523.724 391.248 529.449Z" fill="black"/>
<path d="M483.42 563.799C483.42 574.677 484.565 579.257 486.282 573.532C487.427 568.379 487.427 559.219 486.282 553.494C484.565 548.342 483.42 552.922 483.42 563.799Z" fill="black"/>
<path d="M425.024 559.792C425.024 562.082 431.321 576.967 439.336 592.425C456.511 626.202 456.511 627.347 443.916 622.767C437.619 620.477 439.909 625.057 450.214 634.79C458.801 643.377 466.816 649.675 467.389 648.53C467.389 647.385 475.404 633.072 483.991 615.897C493.151 599.295 498.876 584.41 497.731 582.692C496.014 581.547 493.151 585.555 490.861 591.852C489.144 598.722 484.564 602.73 481.701 601.012C478.839 598.722 475.976 603.302 475.976 610.745C475.404 620.477 473.686 618.187 470.251 603.875L465.671 583.837L467.389 605.02C467.961 618.76 465.671 627.347 460.519 629.637C456.511 630.782 454.794 629.637 456.511 626.775C458.229 623.912 451.931 606.737 442.771 588.417C433.039 570.097 425.596 557.502 425.024 559.792Z" fill="black"/>
<path d="M296.785 572.387C291.633 587.272 292.778 590.707 299.648 579.257C303.083 573.532 304.8 567.234 303.083 566.089C301.938 564.372 299.075 567.234 296.785 572.387Z" fill="black"/>
<path d="M216.634 578.112C211.482 592.997 212.627 596.432 219.497 584.982C222.932 579.257 224.649 572.96 222.932 571.815C221.787 570.097 218.924 572.96 216.634 578.112Z" fill="black"/>
<path d="M157.667 606.737C157.667 619.332 158.812 623.912 159.957 616.469C161.102 609.599 161.102 599.294 159.957 593.569C158.24 588.417 157.095 594.142 157.667 606.737Z" fill="black"/>
<path d="M193.735 602.157C182.857 641.659 182.857 641.087 190.872 633.644C194.88 630.209 207.475 626.774 218.925 626.202C229.802 626.202 244.115 623.912 250.412 621.049C258.427 617.614 253.847 617.042 237.817 619.332C214.917 622.194 213.2 621.622 213.2 609.027L212.627 595.287L204.04 609.599L195.452 623.912L198.887 607.882C202.322 590.707 198.315 586.127 193.735 602.157Z" fill="black"/>
<path d="M173.123 626.775C171.978 651.965 170.833 655.4 167.398 643.95C163.391 632.5 162.818 634.217 162.246 656.545L161.673 682.88L189.726 665.132C204.611 654.827 216.633 645.667 215.488 644.522C214.343 643.377 206.901 646.812 199.458 651.965C182.283 662.842 176.558 663.415 180.566 653.682C181.711 650.247 181.138 635.362 178.848 621.05L174.841 595.287L173.123 626.775Z" fill="black"/>
</svg>
