<svg width="745" height="625" viewBox="0 0 745 625" fill="none" xmlns="http://www.w3.org/2000/svg">
<path d="M405.32 8.20394C392.152 12.7839 372.115 21.3714 361.237 28.2414C340.055 41.4089 334.902 40.8364 313.72 21.3714L300.552 9.92144L286.812 22.5164C273.645 35.1114 272.5 35.1114 254.18 25.3789C243.875 20.2264 219.257 14.5014 199.792 12.7839L164.297 9.92144L151.702 33.9664C144.832 47.7064 140.825 62.5914 141.97 67.7439C144.832 78.6214 147.695 73.4689 155.137 43.1264L159.145 25.9514L163.152 47.1339C165.442 59.1564 171.167 73.4689 176.32 79.1939C189.487 93.5064 188.342 99.2314 175.175 91.7889C167.16 87.7814 162.58 87.7814 159.717 92.9339C157.427 96.3689 158 97.5139 162.007 95.2239C165.442 93.5064 169.45 94.0789 171.74 97.5139C174.03 100.949 168.305 103.239 158 103.239C148.84 103.239 139.68 99.8039 138.535 95.7964C136.245 91.2164 135.1 92.3614 135.1 98.0864C134.527 103.239 127.657 110.109 119.07 114.116C89.8725 126.711 48.6525 157.626 48.6525 166.214C48.6525 170.794 37.775 183.961 24.6075 195.411L0.5625 216.594L18.8825 234.914C29.1875 244.646 36.0575 255.524 34.34 257.814C32.6225 260.676 42.355 269.836 55.5225 277.851C69.2625 286.439 75.56 291.591 70.4075 289.874C62.965 287.584 57.8125 291.591 51.515 303.614C46.935 312.774 42.9275 323.651 43.5 327.659C43.5 331.666 46.3625 328.231 49.225 319.644C52.66 311.056 59.53 303.041 64.6825 301.324C69.835 300.179 80.14 297.316 87.5825 295.026C96.7425 292.164 100.177 293.309 99.0325 299.034C97.8875 303.614 101.895 305.904 110.482 304.759C117.352 303.614 123.077 305.904 123.077 309.339C123.077 312.774 125.94 313.919 130.52 311.629C135.672 308.194 135.672 308.766 130.52 316.209C126.512 320.789 124.795 326.514 127.085 328.231C128.802 330.521 127.657 335.674 124.222 339.681C120.215 344.261 119.07 349.414 121.36 351.704C123.65 353.994 121.932 358.001 117.352 360.864C103.612 369.451 97.8875 367.161 106.475 356.284C113.917 347.696 113.345 347.124 104.757 353.994C97.8875 359.719 84.72 360.864 62.965 359.146C45.79 358.001 31.4775 358.574 31.4775 360.864C31.4775 366.589 61.82 372.314 92.1625 372.314C115.062 372.314 117.352 373.459 117.352 386.626C117.352 394.641 120.215 400.939 123.077 400.939C126.512 400.939 128.802 413.534 128.802 429.564C128.802 461.624 132.237 463.341 170.022 450.174L191.205 442.731L192.922 477.654L194.64 512.576L218.685 514.294C242.157 516.011 243.875 517.729 255.325 544.636C269.065 576.124 278.797 578.986 319.445 564.101C339.482 557.231 342.345 557.231 352.65 567.536C364.672 579.559 368.68 580.704 380.13 573.261C386.427 569.254 396.732 575.551 419.632 596.161L450.547 624.214L473.447 606.466C486.042 596.161 499.21 581.849 502.645 574.406C510.087 558.376 512.377 558.376 531.27 572.689L546.155 584.711L558.177 561.239C567.337 542.919 572.49 538.339 579.932 541.201C585.085 543.491 601.115 549.789 615.427 555.514C629.74 561.239 645.197 567.536 650.35 569.254C657.22 572.116 661.227 567.536 666.952 550.361C673.25 530.324 673.25 521.736 664.09 488.531C658.937 466.776 649.205 441.014 643.48 430.709C637.182 420.404 632.602 411.244 632.602 410.671C632.602 410.099 658.365 410.099 689.28 411.244C741.95 412.961 745.957 412.389 744.24 402.656C730.5 336.819 728.21 331.094 700.157 302.469L671.532 273.271L677.83 248.654C681.265 234.914 684.127 221.746 684.127 219.456C684.127 212.586 644.625 198.846 626.305 199.419C613.71 199.419 611.42 197.701 613.71 188.541C615.427 182.816 611.992 159.916 606.84 137.589C598.825 104.384 595.39 97.5139 587.375 100.376C582.222 102.666 562.185 105.529 542.147 107.246C522.682 108.964 504.935 112.971 503.217 115.261C496.92 126.139 490.622 119.269 487.76 97.5139C484.897 76.3314 440.815 -0.383557 432.8 0.761442C431.082 0.761442 418.487 4.19644 405.32 8.20394ZM437.952 17.9364C442.532 25.9514 442.532 34.5389 438.525 46.5614C435.09 56.8664 435.09 62.0189 437.952 60.3014C441.387 58.0114 443.677 52.8589 443.677 48.2789C443.677 36.8289 455.7 40.8364 463.142 55.1489C466.577 60.8739 471.73 67.7439 474.592 70.0339C478.027 72.3239 480.89 87.2089 481.462 103.239C482.607 128.429 481.462 131.864 474.592 125.566C464.86 117.551 463.715 106.674 472.875 112.399C476.882 114.689 473.447 105.529 466.005 92.3614C451.692 66.5989 455.7 67.1714 405.32 76.9039C394.442 79.1939 392.152 76.9039 391.58 64.3089C391.58 50.5689 391.007 49.9964 386.427 60.3014C383.565 66.5989 381.275 68.8889 381.275 66.0264C380.702 62.5914 372.115 56.8664 362.382 52.8589L343.49 45.9889L362.382 34.5389C386.427 19.6539 392.152 20.2264 392.152 35.6839C392.725 47.1339 393.87 45.9889 400.74 30.5314C404.747 20.7989 413.335 11.6389 419.06 9.92144C424.785 8.20394 429.937 7.05894 430.51 6.48644C431.082 6.48644 434.517 11.0664 437.952 17.9364ZM195.212 21.9439C198.647 24.2339 207.235 36.2564 213.532 48.8514C222.692 66.0264 225.555 68.8889 226.127 59.7289C226.127 52.8589 222.12 44.2714 217.54 40.2639C212.96 36.2564 208.952 31.1039 208.952 28.8139C208.952 21.9439 245.592 27.0964 247.882 33.9664C249.027 37.4014 253.607 37.9739 258.187 36.2564C262.767 34.5389 266.202 36.8289 266.202 42.5539C266.202 47.7064 263.912 51.7139 261.622 51.7139C258.76 51.7139 253.607 58.5839 249.6 66.5989C245.02 76.9039 239.867 80.3389 234.142 78.0489C227.272 75.1864 225.555 76.9039 228.417 83.2014C230.135 88.3539 229.562 91.2164 227.272 89.4989C224.982 88.3539 219.257 88.9264 214.677 91.7889C196.357 103.239 168.877 68.8889 168.877 34.5389C168.877 17.3639 180.327 11.6389 195.212 21.9439ZM313.147 32.8214C318.872 37.9739 324.025 47.7064 324.025 54.0039C324.597 63.7364 325.17 64.3089 327.46 55.7214C328.605 50.5689 332.612 45.9889 335.475 45.9889C338.337 45.9889 340.627 50.5689 340.627 55.7214C340.627 63.7364 341.772 64.3089 345.78 58.5839C349.215 52.2864 353.795 54.0039 366.39 65.4539C380.702 78.6214 381.275 83.2014 368.107 80.9114C365.245 80.9114 363.527 82.6289 363.527 84.9189C363.527 87.2089 355.512 94.0789 345.78 99.8039C330.895 108.391 326.887 108.964 322.88 102.666C318.872 95.7964 317.727 96.3689 317.155 103.239C317.155 107.819 313.147 103.811 309.14 94.6514C302.27 80.9114 301.125 79.7664 299.98 88.9264C299.407 95.2239 299.407 102.094 299.407 103.811C300.552 113.544 275.362 104.384 265.63 91.7889C259.332 83.2014 255.897 81.4839 258.187 87.2089C260.477 94.0789 258.76 97.5139 252.462 97.5139C247.31 97.5139 243.302 94.0789 243.302 89.4989C243.302 81.4839 292.537 23.0889 299.407 23.0889C301.125 23.0889 307.422 27.0964 313.147 32.8214ZM452.265 104.956C448.83 116.406 449.402 116.979 456.845 107.246C464.86 98.0864 465.432 98.0864 464.287 113.544C463.715 122.131 459.135 137.016 453.41 146.749L443.105 163.351L456.845 147.321C469.44 131.864 470.585 131.864 479.745 142.169C487.187 150.184 487.76 154.191 482.035 159.916C476.882 165.641 476.882 166.214 484.897 163.351C492.34 160.489 495.775 163.351 498.637 174.801C500.355 182.816 500.927 191.404 498.637 193.121C492.912 199.419 465.432 183.961 470.012 176.519C472.302 173.084 471.73 171.939 468.295 173.656C460.852 178.236 424.785 164.496 429.365 158.771C431.082 156.481 430.51 155.909 428.22 157.626C420.777 163.351 409.327 147.321 408.755 129.574L408.182 111.826L404.175 128.429C401.312 142.169 396.16 146.176 368.107 154.764C350.36 159.916 328.605 170.221 320.017 177.091C301.125 191.976 307.422 193.121 328.032 178.809C354.94 159.916 397.877 148.466 397.877 159.916C397.877 163.351 386.427 167.359 372.115 169.076C344.635 173.656 345.207 172.511 338.91 226.326C337.192 240.639 336.62 239.494 335.475 220.601C334.33 197.701 334.33 197.701 326.887 212.014C322.307 220.029 320.017 228.616 321.735 232.051C322.88 234.914 319.445 231.479 313.147 223.464C306.85 216.021 301.697 208.006 301.697 206.289C302.842 188.541 297.117 183.389 262.767 171.366L224.41 157.626L252.462 145.031C267.92 137.589 285.095 133.009 290.82 134.154C295.972 135.299 299.407 134.726 297.69 131.864C295.972 129.574 298.835 125.566 303.987 123.849C321.735 116.979 349.215 120.414 368.107 131.864C394.442 147.894 397.877 146.749 397.305 118.696L396.16 94.6514L392.725 117.551L389.29 140.451L376.695 123.849C369.252 114.689 363.527 110.109 363.527 113.544C363.527 116.406 358.375 118.124 352.077 116.406C325.742 109.536 365.245 89.4989 419.06 82.6289C430.51 81.4839 441.387 78.6214 443.105 77.4764C448.83 71.7514 455.7 92.3614 452.265 104.956ZM257.615 108.964C259.332 111.826 267.92 114.689 276.507 114.689C291.392 115.261 291.392 115.261 280.515 123.849C273.072 129.574 262.767 131.291 251.89 129.574C239.867 127.284 237.005 127.856 243.302 131.864C250.172 135.871 249.027 138.161 237.577 142.169C226.7 146.176 219.83 145.031 207.807 136.444C198.647 130.146 191.777 124.421 191.777 123.276C191.777 121.559 198.647 122.131 207.807 123.849C216.395 124.994 231.28 123.849 240.44 120.986C255.897 116.406 254.752 115.834 226.127 114.689C201.51 113.544 197.502 112.399 208.952 108.964C229.562 102.094 253.607 102.094 257.615 108.964ZM593.1 144.459C590.237 152.474 579.36 168.504 569.627 179.381C557.605 193.694 554.17 201.136 558.75 203.999C562.757 206.289 563.902 205.716 561.612 201.709C559.895 198.274 561.04 193.694 563.902 191.976C567.337 189.686 578.215 177.664 587.375 165.069L603.977 141.596V159.344C603.977 171.366 597.68 183.961 586.23 197.129L568.482 217.739L546.727 206.289C535.277 200.564 523.255 190.831 521.537 185.106C518.102 176.519 516.957 176.519 512.377 183.389C508.37 189.686 506.652 183.389 506.08 163.351C506.08 143.886 504.362 138.161 501.5 145.604C497.492 156.481 496.92 156.481 492.912 146.176C490.622 139.306 492.34 132.436 498.065 126.711C505.507 119.269 506.652 119.269 506.652 126.139C507.225 132.436 508.37 132.436 512.95 124.421C516.957 117.551 526.117 114.689 542.72 114.116C555.887 114.116 571.917 111.826 578.215 109.536C592.527 103.239 601.115 123.276 593.1 144.459ZM171.74 114.689C173.457 117.551 171.74 120.414 167.732 120.414C162.58 120.414 162.58 122.131 168.877 126.139C174.03 129.574 175.175 131.864 170.595 131.864C166.587 131.864 164.87 135.871 166.587 140.451C168.877 145.604 166.587 149.039 162.58 149.039C156.282 149.039 156.282 150.184 162.58 154.191C171.167 159.344 166.587 161.061 114.49 168.504C105.33 170.221 113.345 170.221 132.81 169.076C166.587 167.359 167.732 167.931 166.015 181.099C165.442 188.541 167.732 194.839 171.167 194.839C174.602 194.839 173.457 197.701 168.877 201.136C162.007 205.716 162.007 208.006 167.732 210.296C182.617 216.021 155.137 228.616 127.657 229.189C83.0025 229.189 95.5975 208.006 145.977 198.274C153.992 196.556 145.977 196.556 128.802 197.701C105.33 199.419 95.5975 203.426 89.3 212.014C85.2925 218.311 76.1325 223.464 69.2625 224.036C62.965 224.036 60.675 225.754 64.6825 227.471C74.9875 231.479 62.3925 246.364 48.08 246.364C32.6225 246.364 28.615 234.914 44.0725 234.341C52.66 233.769 50.9425 232.051 37.775 229.761C11.44 225.181 10.295 216.594 33.7675 198.274C49.225 186.824 56.6675 184.534 66.9725 187.969C74.415 190.831 86.4375 190.831 94.4525 188.541C107.62 185.106 107.62 184.534 96.17 183.961C80.7125 183.389 54.3775 171.939 54.3775 165.641C54.3775 162.779 62.965 158.199 73.27 155.336C83.0025 152.474 88.155 149.611 83.575 149.611C78.4225 149.039 83.575 142.741 94.4525 134.726C107.047 125.566 121.932 120.414 136.817 119.841C155.137 119.841 158 118.696 148.84 114.689C138.535 110.109 139.107 109.536 152.847 109.536C161.435 108.964 170.022 111.254 171.74 114.689ZM217.54 157.054C217.54 160.489 220.975 169.076 224.41 175.946C230.707 186.824 230.707 187.969 219.83 185.106C211.815 182.816 210.097 180.526 214.677 177.664C219.257 174.801 218.685 172.511 211.815 170.221C206.09 167.931 203.8 168.504 206.662 172.511C208.952 177.091 206.09 177.664 196.93 175.374C187.77 172.511 190.06 175.374 203.227 182.816L223.265 194.266L207.807 194.839C198.647 194.839 191.777 197.129 191.777 200.564C191.777 203.426 189.487 206.289 186.625 206.289C179.755 206.289 172.885 157.626 177.465 137.016L181.472 120.414L199.22 135.299C209.525 143.886 217.54 153.619 217.54 157.054ZM270.782 180.526C283.95 185.679 294.827 191.976 295.4 194.266C295.4 195.984 296.545 202.281 297.69 208.006C298.835 215.449 297.69 216.594 292.537 212.586C287.957 208.579 275.935 209.724 254.18 215.449C197.502 231.479 198.647 231.479 219.257 212.586C230.135 202.281 241.012 196.556 245.02 198.846C248.455 201.136 258.187 203.426 266.202 203.999C279.942 205.716 279.942 205.144 269.065 197.129C224.41 163.351 224.982 162.206 270.782 180.526ZM450.547 184.534C452.837 188.541 455.127 189.686 455.127 186.824C455.127 183.961 460.28 186.251 466.577 191.976C472.875 197.701 476.31 205.144 474.02 208.579C472.302 212.014 472.302 213.159 475.165 210.869C477.455 208.579 483.18 209.151 487.76 212.586C491.767 216.021 495.202 217.166 495.202 214.876C495.202 213.159 504.362 216.594 515.24 223.464C526.69 230.334 544.437 236.059 555.315 236.631C573.635 237.204 575.352 238.921 574.207 252.661C573.062 264.111 569.055 269.836 558.75 272.126C547.872 274.989 546.155 276.706 552.452 280.714C557.032 283.576 562.757 284.149 565.047 283.004C567.337 281.286 569.627 283.004 569.627 285.866C569.627 300.179 525.545 284.721 504.935 262.966C495.202 252.661 495.775 252.661 513.522 254.951C527.835 257.241 529.552 256.669 520.965 252.661L509.515 247.509L520.965 245.219C527.262 243.501 522.11 243.501 509.515 244.646C490.05 246.364 488.332 245.791 500.355 240.639C518.675 232.624 507.225 218.311 483.752 221.174C469.44 222.891 466.577 221.174 466.005 210.296L464.86 197.701L462.57 210.296C460.28 221.174 457.417 222.319 439.097 219.456C410.472 214.876 401.312 207.434 410.472 195.411C416.197 187.969 416.197 187.396 409.327 193.121C400.167 201.709 389.862 202.854 394.442 195.984C396.16 193.121 394.442 190.831 390.435 190.831C386.427 190.831 378.412 188.541 372.115 186.251C365.817 183.961 371.542 189.114 385.282 197.701C398.45 205.716 409.327 214.876 409.327 217.739C409.327 220.601 428.22 224.609 451.12 226.899L492.34 230.906L466.577 239.494C452.265 244.074 438.525 251.516 436.235 255.524C432.8 261.821 427.647 261.249 409.327 252.089C396.732 245.791 386.427 242.356 386.427 244.646C386.427 246.936 383.565 245.791 379.557 241.784C374.977 237.204 370.97 236.631 365.245 241.211C359.52 246.364 357.802 245.219 357.802 235.486C357.802 229.189 355.512 223.464 353.222 223.464C345.78 223.464 352.65 190.259 361.81 182.816C381.275 166.214 439.67 167.359 450.547 184.534ZM604.55 199.419C601.115 205.716 594.817 212.014 589.665 214.304C583.367 216.594 584.512 212.586 593.672 200.564C607.412 182.244 614.282 181.099 604.55 199.419ZM211.815 212.014C201.51 223.464 180.327 228.044 180.327 218.884C180.327 213.159 202.082 201.709 214.105 201.136C220.402 200.564 219.83 203.426 211.815 212.014ZM541.002 212.014C551.88 218.311 558.75 222.891 555.315 223.464C552.452 223.464 553.597 226.326 558.177 229.761C564.475 234.341 563.33 234.914 552.452 232.051C537.567 228.044 500.927 207.434 500.927 202.854C500.927 197.129 522.682 202.281 541.002 212.014ZM655.502 217.739C655.502 220.601 641.762 223.464 625.732 222.891C603.405 222.891 598.252 221.174 606.84 217.739C622.87 210.869 655.502 210.869 655.502 217.739ZM311.43 238.349C320.017 246.936 322.307 251.516 317.727 248.654C313.147 245.791 306.85 243.501 303.415 243.501C300.552 242.929 298.262 240.066 298.835 236.631C299.407 233.196 293.682 232.051 284.522 233.196C275.935 234.914 260.477 236.059 249.6 236.059C238.722 236.059 233.57 238.349 237.577 240.639C242.157 243.501 240.44 245.791 232.425 248.081C225.555 249.799 221.547 249.226 223.265 246.364C224.982 244.074 220.402 241.784 212.96 241.784C206.09 241.784 194.067 240.066 186.052 238.349C176.32 235.486 178.037 237.204 190.632 242.929C200.365 247.509 208.952 253.234 208.952 254.951C208.952 256.669 203.8 255.524 198.075 252.089C190.06 248.081 186.625 248.081 184.907 253.234C183.762 256.669 171.167 261.821 156.855 264.111C133.955 268.119 134.527 268.691 166.587 266.974C186.052 265.829 205.517 266.974 209.525 269.836C215.822 273.844 214.677 274.989 206.09 273.844C199.792 273.271 171.74 274.416 143.115 276.706C105.33 280.141 85.865 278.996 70.4075 273.271C40.6375 262.394 40.065 260.676 61.82 247.509C77.85 237.204 91.59 234.914 152.275 234.341C195.785 233.196 230.135 229.761 240.44 225.181C264.485 214.876 294.255 220.029 311.43 238.349ZM640.045 236.631C638.327 240.066 642.335 238.349 650.35 233.196C666.952 221.174 682.982 220.029 673.25 230.906C669.815 235.486 665.807 248.654 664.09 261.249C661.8 276.134 654.93 288.729 643.48 299.606C627.45 314.491 624.587 315.064 613.71 307.621C596.535 296.744 594.817 286.439 609.702 286.439C621.725 286.439 661.227 265.829 661.227 260.104C661.227 258.959 650.922 262.966 637.755 269.264C617.717 279.569 581.65 283.576 585.085 274.989C585.657 273.271 583.94 262.394 581.65 250.944C578.787 239.494 577.642 229.189 578.215 228.044C579.36 226.899 594.245 227.471 611.992 228.044C633.175 229.761 642.907 232.624 640.045 236.631ZM293.11 249.799C294.827 254.379 299.407 257.241 303.987 255.524C307.995 253.806 314.292 256.096 317.727 260.676C322.88 266.401 318.3 268.691 296.545 271.554C245.02 278.424 234.715 277.851 235.86 270.981C237.005 266.974 233.57 265.256 228.99 266.974C224.41 269.264 220.402 267.546 220.402 264.111C220.402 260.676 223.265 257.241 226.127 257.241C229.562 256.669 234.142 256.096 237.005 255.524C239.867 255.524 244.447 253.234 246.737 250.371C253.607 243.501 267.347 245.791 262.767 253.234C260.477 257.241 263.912 256.096 269.637 250.371C282.805 238.349 288.53 237.776 293.11 249.799ZM374.977 260.676C370.397 266.401 362.955 268.119 355.512 265.829C345.207 262.966 345.78 264.684 360.092 280.141C373.26 293.881 375.55 299.606 370.397 304.759C365.245 309.911 363.527 309.339 363.527 301.896C363.527 296.171 360.665 293.881 355.512 295.599C345.207 299.606 337.765 270.981 346.925 260.104C350.36 255.524 360.092 252.089 367.535 252.089C380.13 252.089 381.275 253.234 374.977 260.676ZM397.877 258.386C397.877 261.249 400.74 262.394 403.602 260.676C407.037 258.386 409.9 264.111 409.9 273.271C410.472 283.576 411.617 285.866 413.335 278.996C416.197 268.691 416.77 268.691 427.075 278.424C441.387 291.019 440.815 295.026 425.357 296.171C399.595 297.889 389.29 300.751 381.847 309.339C375.55 316.781 375.55 316.209 380.13 305.331C385.282 295.599 384.137 291.019 377.267 283.576C368.68 274.989 368.68 273.844 377.84 263.539C389.29 250.944 397.877 248.654 397.877 258.386ZM503.79 276.134C515.24 289.874 518.675 299.034 516.957 313.346C515.812 323.651 516.957 332.239 519.247 332.239C521.537 332.239 523.827 334.529 523.827 337.391C523.827 340.254 514.667 339.681 503.79 336.246L483.18 329.949L499.21 323.079C513.522 316.781 511.805 316.781 483.18 319.071C454.555 321.934 451.12 321.361 452.265 311.629C454.555 291.591 461.425 281.286 471.157 284.721C479.172 287.011 479.745 286.439 472.302 281.859C467.15 277.851 461.997 277.279 457.417 281.286C452.837 285.294 449.402 284.721 446.54 280.714C444.822 277.279 440.242 276.134 437.38 277.851C434.517 280.141 432.227 278.996 432.227 276.706C432.227 270.409 459.135 259.531 476.31 258.386C483.752 257.814 494.63 265.256 503.79 276.134ZM329.177 283.004C329.177 287.584 324.597 290.446 319.445 289.874C314.292 288.729 302.27 292.164 293.11 296.744C270.782 308.194 226.127 312.774 226.127 304.186C226.127 300.751 228.99 297.889 232.997 297.889C236.432 297.889 238.15 296.744 236.432 295.026C235.287 293.309 223.837 296.744 211.815 303.041C199.22 308.766 192.922 315.064 196.357 317.354C206.09 323.079 198.647 336.246 180.327 343.689C171.74 347.124 157.427 358.001 148.267 367.161C127.657 388.344 120.215 388.344 131.665 366.589C141.97 347.124 142.542 341.399 133.955 346.551C131.092 348.841 132.237 340.826 137.39 328.231C148.84 300.751 171.167 280.714 190.632 280.714C205.517 281.286 206.09 281.286 194.64 289.874C183.762 299.034 183.762 299.034 197.502 294.454C205.517 291.591 231.852 289.874 256.47 289.301C281.087 289.301 298.262 288.729 294.827 287.584C281.66 283.004 290.82 274.989 309.14 274.989C322.307 274.989 329.177 277.851 329.177 283.004ZM157.427 286.439C157.427 289.301 147.695 292.164 136.245 291.591C116.78 291.019 116.207 290.446 128.802 286.439C149.412 280.141 157.427 280.141 157.427 286.439ZM542.72 313.919C540.43 319.071 541.575 321.361 545.01 319.071C551.88 314.491 562.185 359.146 555.887 364.871C554.17 367.161 552.452 364.299 552.452 359.146C552.452 354.566 547.3 348.841 541.575 346.551C534.705 344.261 529.552 335.674 527.262 321.934C524.972 310.484 521.537 295.599 519.82 289.301C516.957 278.996 518.102 278.996 531.27 291.591C540.43 299.606 544.437 308.194 542.72 313.919ZM687.562 298.461C703.592 315.636 704.165 315.636 689.852 310.484C681.837 307.049 670.96 303.041 664.662 301.324C656.075 298.461 655.502 296.171 661.227 289.301C670.387 278.424 667.525 277.851 687.562 298.461ZM613.137 327.659C620.007 341.399 620.007 343.116 610.847 345.406C603.405 347.696 603.977 348.269 613.137 348.841C620.007 348.841 626.877 353.421 629.167 358.001C630.885 362.581 639.472 366.589 648.06 366.589C659.51 366.589 661.8 368.306 656.075 371.741C651.495 374.604 650.922 378.039 654.357 380.329C657.792 382.046 662.372 381.474 664.09 378.039C666.952 373.459 670.96 374.031 677.257 379.184C685.272 384.909 685.845 384.909 680.12 378.611C676.685 374.604 674.967 367.734 676.112 364.299C677.83 360.291 672.105 353.994 664.662 349.414C656.647 345.406 651.495 339.109 653.785 336.246C655.502 332.811 654.357 332.239 651.495 333.956C644.052 338.536 638.327 319.071 644.052 309.911C650.922 297.889 712.752 319.071 712.752 333.384C712.752 338.536 711.035 338.536 705.882 333.384C701.875 329.376 696.722 326.514 693.287 326.514C690.425 326.514 692.715 329.949 698.44 334.529C704.737 339.109 713.325 340.826 718.477 339.109C723.057 337.391 725.347 337.964 723.057 340.826C720.767 343.116 720.767 348.269 723.63 351.704C725.92 355.139 729.927 365.444 732.217 375.176C735.652 391.779 735.652 391.779 712.18 366.589L688.707 340.826L709.317 368.879C737.37 406.664 736.225 416.969 707.027 396.931C696.15 389.489 694.432 389.489 699.585 395.786C705.882 403.229 702.447 404.374 675.54 404.946C658.365 404.946 644.052 402.656 644.052 399.794C644.052 396.931 649.777 396.359 657.22 398.076C668.67 402.084 669.242 401.511 660.655 392.351C652.067 383.764 649.777 383.191 633.747 391.779C610.275 403.801 599.97 403.229 592.527 390.061C584.512 374.604 585.085 372.886 599.97 375.749C609.13 377.466 608.557 376.321 596.535 371.741C587.947 368.306 582.222 363.154 584.512 360.291C586.23 357.429 584.512 355.139 581.65 355.139C570.772 355.139 574.78 343.689 585.657 343.116C592.527 342.544 591.382 341.399 582.222 339.109C574.78 336.819 563.902 326.514 557.605 316.209L545.582 297.889H558.177C567.91 297.889 569.627 300.179 566.765 309.339C564.475 316.781 565.62 320.789 570.2 320.789C574.207 320.789 575.352 319.071 573.635 317.354C571.917 315.064 572.49 308.766 575.925 302.469C581.65 291.591 582.222 291.591 593.672 301.896C599.97 307.621 608.557 319.071 613.137 327.659ZM440.815 309.339C443.105 312.774 437.38 315.064 427.075 315.064C417.915 315.064 408.182 312.201 406.465 309.339C404.175 305.904 409.9 303.614 420.205 303.614C429.365 303.614 439.097 305.904 440.815 309.339ZM341.2 315.636C349.215 319.644 351.505 324.796 348.642 333.384C346.352 341.399 347.497 343.689 351.505 341.399C361.237 335.101 358.947 341.399 348.07 349.986C341.772 355.711 340.055 355.711 342.917 350.559C345.207 347.124 337.765 349.414 326.315 355.711C314.865 362.581 306.85 369.451 308.567 371.169C310.285 372.886 315.437 370.596 320.017 367.161C324.597 363.154 332.04 362.009 335.475 364.299C340.055 367.161 340.627 366.016 337.765 360.864C334.902 355.711 335.475 354.566 340.055 357.429C343.49 359.719 345.207 364.299 342.917 367.161C341.2 370.024 337.765 371.169 334.902 369.451C332.04 367.734 328.605 368.879 326.315 372.314C324.597 375.176 313.147 376.894 300.552 375.749C287.957 374.604 277.08 375.176 275.935 377.466C274.79 379.184 274.79 376.894 275.935 372.314C277.652 367.734 279.942 356.284 281.66 347.696C285.095 331.094 307.995 309.339 321.735 309.339C326.315 309.339 334.902 312.201 341.2 315.636ZM244.447 329.949C232.997 337.391 218.112 343.689 212.387 343.689C202.655 343.689 203.227 341.971 215.822 330.521C224.41 322.506 237.577 316.781 248.455 316.781H266.202L244.447 329.949ZM272.5 328.231C269.065 332.811 268.492 338.536 270.782 340.826C273.072 343.689 271.355 343.689 267.92 341.399C263.912 339.109 260.477 340.254 260.477 343.116C260.477 346.551 262.767 349.414 265.63 349.414C268.492 349.414 269.637 360.291 267.92 373.459C265.057 392.351 266.202 396.359 272.5 394.069C284.522 389.489 291.965 401.511 291.965 426.129C291.965 440.441 289.102 449.601 283.95 451.319C277.652 453.609 276.507 448.456 278.797 427.846C281.66 402.656 281.66 402.084 269.637 408.381C263.34 412.389 255.897 417.541 253.607 420.976C251.317 423.839 250.172 410.671 250.745 391.206C251.317 372.314 254.18 357.429 256.47 359.146C258.76 360.291 259.332 355.139 257.615 347.696C254.752 337.391 256.47 331.666 264.485 327.086C278.225 319.071 280.515 319.071 272.5 328.231ZM430.51 331.666C451.12 344.834 458.562 361.436 449.975 377.466C441.96 391.779 441.96 393.496 451.12 396.931C460.852 400.366 459.707 347.696 449.402 335.674C445.395 330.521 444.822 326.514 448.257 326.514C457.99 326.514 468.295 343.689 468.295 360.864C468.295 370.024 470.585 376.321 473.447 374.604C475.737 372.886 478.027 377.466 478.6 384.909C479.172 398.076 479.172 398.076 483.752 383.764C488.332 370.024 488.332 370.596 488.905 387.771C489.477 400.939 486.615 406.664 481.462 406.664C472.302 406.664 473.447 432.426 484.897 470.784C488.332 482.234 489.477 496.546 487.187 502.271C483.752 510.286 479.745 506.851 466.577 483.951C457.417 467.921 449.402 457.616 449.402 460.479C449.402 463.341 455.127 474.791 461.997 486.241C470.012 498.836 471.157 503.989 466.005 499.981C460.852 495.974 454.555 494.829 452.265 497.119C449.402 499.409 449.402 497.691 451.692 493.684C453.982 490.249 453.41 486.814 449.975 486.814C440.815 486.814 420.205 443.304 424.212 432.999C429.365 419.831 435.09 421.549 441.96 439.296C448.257 455.326 448.257 455.326 445.395 436.434C442.532 420.404 443.677 418.114 455.7 417.541C464.86 417.541 466.577 415.824 460.852 414.106C448.257 408.954 437.952 393.496 440.815 384.909C443.677 377.466 430.51 353.421 425.93 356.856C424.785 358.001 417.342 352.276 409.327 345.406C397.305 333.956 397.305 332.239 406.465 335.101C417.915 339.109 417.915 338.536 407.037 329.949C390.435 316.781 407.61 317.926 430.51 331.666ZM650.35 347.124L664.09 362.009L650.35 359.719C642.335 358.574 634.892 352.276 632.03 344.834C625.732 328.231 633.175 328.804 650.35 347.124ZM230.135 367.734C210.67 394.641 204.945 407.236 222.12 386.626L236.432 369.451L235.86 384.336C235.287 392.351 228.417 403.801 220.975 409.526C213.532 415.251 208.952 416.969 211.242 413.534C212.96 410.099 212.387 406.091 209.525 404.374C200.937 398.649 212.96 364.871 227.272 353.994C245.592 340.254 246.737 345.406 230.135 367.734ZM175.175 363.726C161.435 371.741 148.84 377.466 147.695 375.749C144.26 372.314 182.045 349.414 191.777 349.414C196.357 349.414 188.915 356.284 175.175 363.726ZM515.24 357.429C521.537 360.291 533.56 364.299 542.147 367.734C563.902 375.749 568.482 383.191 574.78 418.686L580.505 449.601L578.787 415.251C577.642 396.359 575.352 375.749 573.062 369.451C570.2 362.009 571.917 363.154 577.642 372.314C586.802 387.199 589.665 427.846 583.367 451.319C579.36 464.486 579.36 464.486 558.75 445.594C543.865 431.854 542.147 431.281 551.88 442.159C567.91 460.479 558.177 464.486 536.422 449.029C529.552 444.449 520.965 442.159 517.53 444.449C512.95 446.739 516.385 451.319 526.117 456.471C543.292 465.631 563.902 502.271 563.902 524.026C563.902 545.209 553.597 562.956 543.292 558.949C537.567 556.659 536.422 557.804 538.712 561.811C548.445 578.414 525.545 561.239 513.522 543.491C502.645 527.461 500.355 518.874 502.645 492.539C504.362 475.364 506.08 460.479 506.652 459.334C511.232 454.181 507.797 442.159 499.782 433.571C494.057 428.419 489.477 420.404 489.477 416.396C489.477 412.961 495.775 416.969 503.79 426.701C511.232 435.861 517.53 441.586 518.102 438.724C518.102 435.861 514.095 428.419 508.942 422.694C503.217 416.969 498.637 400.939 498.065 387.199C497.492 373.459 495.202 359.719 492.912 356.284C489.477 349.986 495.775 350.559 515.24 357.429ZM378.412 373.459C376.695 383.764 375.55 394.069 375.55 396.359C374.405 403.801 349.787 423.839 341.2 423.839C334.902 423.839 336.62 419.831 346.352 409.526C353.222 402.084 361.237 396.359 362.955 398.076C365.245 399.221 366.962 395.786 367.535 390.634C369.252 366.016 372.115 355.139 376.122 355.139C378.412 355.139 379.557 363.726 378.412 373.459ZM432.227 399.794C431.655 413.534 431.082 412.961 424.212 393.496C419.632 382.046 413.335 367.734 409.327 362.009C405.32 356.856 408.755 359.719 417.342 368.306C425.93 377.466 432.227 390.634 432.227 399.794ZM186.052 379.756C180.327 384.909 179.755 384.909 182.617 379.184C188.915 368.306 183.19 371.169 171.167 384.909C165.442 391.779 163.152 395.214 167.16 393.496C181.472 384.909 179.182 399.794 163.152 418.686C153.992 429.564 145.977 435.289 145.977 432.426C145.405 428.991 143.115 431.854 140.252 438.151C136.245 447.884 135.1 447.311 135.1 431.854C134.527 422.694 137.962 411.244 141.97 407.236C147.695 400.939 147.122 400.366 140.825 403.801C135.672 406.664 133.955 405.519 135.1 401.511C136.817 397.504 140.252 394.069 143.115 394.069C146.55 394.069 158 386.054 168.877 376.321C181.472 365.444 188.915 361.436 190.632 366.016C191.777 370.024 190.06 376.321 186.052 379.756ZM363.527 369.451C363.527 371.741 360.092 379.756 355.512 388.344C346.352 405.519 317.727 434.716 317.727 426.129C317.727 423.266 315.437 424.411 312.575 428.991C309.712 433.571 307.422 427.274 307.422 410.099C306.85 390.061 308.567 383.764 315.437 383.764C322.307 383.764 322.88 386.054 317.155 396.359C313.147 404.374 318.3 400.939 330.322 387.771C348.07 368.879 363.527 360.864 363.527 369.451ZM416.197 386.626C422.495 394.641 421.922 424.984 415.625 434.716C412.762 439.296 405.892 443.876 401.312 444.449C393.87 445.594 392.152 438.724 392.152 405.519C392.152 367.734 392.725 365.444 402.457 372.886C407.61 377.466 413.907 383.191 416.197 386.626ZM197.502 395.214C197.502 398.076 191.205 407.809 183.19 416.969C166.015 437.579 164.297 446.739 180.327 432.426C186.625 426.701 191.777 424.984 191.777 428.419C191.777 437.006 183.19 441.586 162.58 443.876L145.405 446.166L165.442 422.694C180.327 405.519 184.335 396.931 179.755 391.779C175.175 386.626 176.892 385.481 185.48 387.771C192.35 389.489 197.502 392.924 197.502 395.214ZM626.877 405.519C626.877 410.099 602.26 423.839 595.39 423.839C593.672 423.839 592.527 420.404 592.527 415.824C592.527 411.244 599.397 406.091 608.557 404.946C617.145 403.801 624.587 402.084 625.732 401.511C626.305 401.511 626.877 403.229 626.877 405.519ZM251.89 458.761C247.31 465.631 267.347 486.814 273.645 482.806C277.08 481.089 277.652 482.234 275.362 485.669C270.21 494.256 237.577 509.714 224.41 509.714C213.532 509.714 212.96 509.141 223.265 498.264C228.99 491.966 238.15 486.814 244.447 486.814C257.615 486.814 257.615 484.524 241.012 460.479C229.562 443.304 228.417 438.151 234.142 426.701C240.44 412.961 240.44 412.961 247.31 433.571C251.317 444.449 253.035 455.899 251.89 458.761ZM271.927 427.274C271.927 431.854 269.637 434.144 266.202 432.426C258.76 427.846 258.76 432.999 266.202 447.311C270.21 454.181 270.21 458.189 266.775 458.189C257.615 458.189 253.035 435.289 260.477 426.701C269.637 415.824 271.927 415.824 271.927 427.274ZM376.122 430.136C374.977 434.716 369.825 442.159 364.672 446.739C356.085 454.754 356.085 454.181 364.1 443.876C368.107 437.579 362.382 441.014 350.36 450.746C324.025 473.646 312.575 475.364 326.887 453.609C335.475 440.441 335.475 439.296 327.46 446.166C320.59 451.319 317.727 451.891 317.727 447.311C317.727 440.441 340.627 429.564 346.925 432.999C349.215 434.144 352.077 431.854 353.795 427.274C357.802 416.969 378.412 419.831 376.122 430.136ZM640.617 435.861C654.93 460.479 649.777 461.624 630.885 438.151C621.152 425.556 617.717 418.114 622.297 418.114C626.877 418.114 634.892 426.129 640.617 435.861ZM208.952 434.716C200.937 450.746 202.082 456.471 210.67 443.876C219.83 432.426 229.562 441.014 223.837 455.326C222.12 459.906 225.555 466.204 230.707 469.066C239.295 474.219 238.15 477.081 222.12 492.539C211.815 502.271 202.655 507.424 202.655 504.561C199.22 477.081 200.365 437.006 204.945 430.709C212.96 419.831 215.822 422.694 208.952 434.716ZM494.63 463.914C494.63 477.081 494.057 477.081 489.477 466.776C486.615 460.479 484.325 449.029 484.325 441.014C484.325 427.846 484.897 427.846 489.477 438.151C492.34 444.449 494.63 455.899 494.63 463.914ZM637.755 455.326C652.64 472.501 655.502 481.089 656.075 505.706C656.647 529.179 657.792 532.614 661.227 521.164C665.807 507.424 665.807 507.424 666.38 524.026C666.952 556.086 658.365 556.659 647.487 525.171C641.19 509.141 634.32 493.111 631.457 489.676C629.167 486.814 632.03 499.409 638.327 517.729C644.625 536.621 649.777 553.796 649.777 556.659C649.777 565.819 616 544.064 601.687 525.171C585.085 503.416 573.062 475.364 581.077 475.364C583.367 475.364 586.802 478.799 588.52 482.234C589.665 486.241 590.237 484.524 589.092 478.226C588.52 471.929 590.237 461.624 592.527 455.326C597.107 445.021 597.68 445.021 598.252 458.189C599.397 471.356 599.97 470.784 604.55 453.609C607.412 443.876 611.992 435.289 614.855 435.289C617.717 435.289 628.022 444.449 637.755 455.326ZM307.422 459.334C303.987 462.769 298.262 463.914 294.827 462.769C289.675 461.051 290.82 457.616 298.262 450.174C305.705 442.731 309.14 441.586 310.857 446.739C312.002 450.174 310.857 455.899 307.422 459.334ZM392.152 476.509C392.152 478.799 389.862 481.089 386.427 481.089C383.565 481.089 380.702 484.524 380.702 488.531C380.702 493.111 374.977 501.126 368.68 507.424L356.085 518.301L359.52 492.539C361.81 473.646 361.237 469.639 357.23 477.081C353.795 482.234 349.215 485.669 346.352 483.951C344.062 482.234 340.627 484.524 338.91 489.104C337.192 493.111 330.322 498.264 323.452 499.981C311.43 503.416 310.857 502.844 321.735 490.821C336.62 473.074 342.917 469.639 346.925 475.936C349.215 479.371 352.077 478.226 354.367 472.501C356.085 467.349 360.092 465.059 363.527 466.776C366.962 468.494 370.97 466.204 373.26 460.479C376.695 451.319 377.267 451.891 384.71 461.624C388.717 467.349 392.152 473.646 392.152 476.509ZM406.465 474.791C401.885 484.524 400.167 493.111 403.03 494.829C405.892 497.119 409.9 494.829 411.617 491.394C416.197 482.234 411.617 513.721 406.465 529.751C403.03 540.056 403.602 540.056 409.327 530.896C412.762 525.744 417.915 510.286 420.205 496.546L425.357 472.501L425.93 493.684C426.502 520.591 417.915 539.484 401.312 547.499C387.572 553.796 387.572 553.796 396.16 534.331C404.175 514.294 401.312 489.676 391.58 495.401C382.992 501.126 385.855 493.111 399.022 475.364C415.052 453.609 417.915 453.609 406.465 474.791ZM312.002 469.639C312.002 472.501 307.422 475.364 302.27 475.364C293.682 475.364 293.11 474.219 300.552 469.639C311.43 462.769 312.002 462.769 312.002 469.639ZM574.78 488.531C580.505 501.699 591.955 521.164 600.542 531.469C618.29 552.079 616.572 553.796 592.527 541.201C579.36 534.331 575.352 528.606 575.352 514.866C575.352 505.134 573.635 498.836 571.345 499.981C568.482 501.699 562.185 494.256 557.032 483.379C548.445 466.776 547.872 463.914 555.887 463.914C560.467 463.914 569.055 474.791 574.78 488.531ZM310.857 496.546C301.697 506.851 297.117 507.996 290.82 502.844C278.225 492.539 276.507 501.126 289.102 515.439C295.4 522.881 300.552 526.316 300.552 523.454C300.552 520.591 307.422 515.439 315.437 511.431C326.315 506.279 329.177 506.279 327.46 511.431C326.315 515.439 328.605 521.736 333.185 525.744C350.36 543.491 338.91 556.659 299.407 563.529C277.652 567.536 272.5 562.956 283.377 552.079C287.385 548.071 286.812 545.781 281.087 545.781C276.507 545.781 273.645 548.071 275.362 550.934C277.08 553.224 275.935 555.514 273.072 555.514C258.76 555.514 261.622 520.591 277.652 494.256C282.805 486.241 290.82 483.379 303.987 483.379L322.88 483.951L310.857 496.546ZM359.52 555.514C361.81 560.094 362.955 553.796 361.81 541.201C360.665 522.309 362.382 518.301 370.97 518.874C376.122 519.446 380.702 516.584 380.702 512.004C380.702 507.424 384.71 503.989 389.29 503.989C400.74 503.989 400.167 509.141 386.427 540.629C369.252 581.849 349.787 572.689 343.49 520.591L340.627 495.401L348.07 521.164C352.65 535.476 357.802 550.934 359.52 555.514ZM455.7 513.721C455.7 519.446 457.417 521.164 458.562 517.156C461.997 508.569 483.752 525.744 483.752 536.621C483.752 540.629 487.187 544.064 491.767 544.064C503.217 544.064 507.225 552.651 502.645 565.246C499.21 574.406 498.065 573.834 494.63 561.239C490.622 547.499 490.622 547.499 490.05 564.674C489.477 588.719 463.142 613.336 444.822 606.466C437.38 603.604 428.22 593.299 423.64 582.994C419.06 572.689 415.625 568.109 415.052 572.689C415.052 579.559 413.335 579.559 405.892 571.544C395.587 561.811 399.022 549.789 412.19 549.789C416.197 549.789 423.067 540.629 426.502 529.179C431.082 515.439 436.235 509.714 441.96 512.004C446.54 513.721 448.257 512.576 446.54 509.714C444.822 506.279 445.967 503.989 448.83 503.989C452.265 503.989 455.127 508.569 455.7 513.721ZM260.477 518.301C260.477 522.881 259.332 526.889 258.187 526.889C257.042 526.889 254.752 522.881 252.462 518.301C250.745 513.721 251.89 509.714 254.752 509.714C258.187 509.714 260.477 513.721 260.477 518.301ZM497.492 530.324C499.21 534.904 498.637 537.194 495.202 535.476C491.767 533.759 489.477 529.751 489.477 526.316C489.477 518.301 493.485 520.019 497.492 530.324Z" fill="black"/>
</svg>
