<svg width="801" height="738" viewBox="0 0 801 738" fill="none" xmlns="http://www.w3.org/2000/svg">
<path d="M493.438 12.2504C473.401 18.5479 457.943 25.4179 458.516 27.7079C460.233 35.7229 442.486 68.9279 438.478 64.9204C436.188 63.2029 434.471 64.3479 434.471 68.3554C434.471 72.3629 438.478 79.2329 443.058 83.8129C447.638 88.9654 451.646 100.988 452.218 110.72C452.218 125.033 453.363 126.75 456.798 118.163C460.806 107.285 461.378 107.858 464.813 120.453C468.821 136.483 459.661 150.223 452.218 138.773C449.356 133.62 445.921 135.91 441.341 146.215C431.036 168.543 417.296 164.535 416.723 138.773L415.578 117.59L412.143 137.628C408.708 155.948 408.136 157.093 401.838 146.215L394.968 134.765L394.396 146.215C394.396 155.948 393.251 155.948 388.671 149.078C385.808 144.498 382.946 134.193 382.373 126.178C381.801 113.01 381.228 113.583 377.793 129.04C372.068 155.375 362.908 149.078 361.191 117.59C359.473 91.8279 361.763 86.1029 380.083 64.3479C391.533 51.1804 404.128 40.3029 408.708 40.3029C417.296 40.3029 425.311 55.7604 424.166 71.7904C423.593 78.0879 426.456 74.0804 429.891 63.2029C433.898 52.3254 440.768 39.7304 445.348 35.7229C452.791 29.4254 452.218 29.4254 440.768 35.1504C428.746 40.8754 425.311 40.3029 419.013 31.1429C410.998 20.8379 409.853 21.4104 392.106 42.5929L373.213 64.9204L352.603 49.4629C335.428 36.2954 246.118 3.09036 241.538 8.24286C240.393 8.81536 238.676 22.5554 236.958 38.0129C228.943 104.995 231.806 100.415 201.463 98.6979C185.433 98.1254 159.671 102.133 139.633 108.43L105.283 119.88L139.633 117.018C165.968 114.728 178.563 116.445 194.021 124.46C204.898 130.185 213.486 137.628 212.913 141.063C212.341 144.498 215.776 147.36 220.356 147.36C235.813 147.36 224.936 135.338 196.311 120.453L168.258 106.14L187.723 104.423C222.646 100.988 232.378 106.14 236.958 133.048C239.821 151.94 242.111 155.375 244.973 146.788C248.981 136.483 249.553 136.483 252.988 145.643C255.278 151.368 256.996 156.52 256.996 157.665C256.996 160.528 243.256 157.665 236.386 153.085C232.951 151.368 228.371 150.795 226.653 153.085C224.363 154.803 208.333 157.665 190.013 158.81C172.266 159.955 154.518 163.39 151.083 167.398C147.076 171.978 147.648 172.55 152.801 169.688C157.381 166.825 159.671 169.688 159.671 177.13C159.671 193.733 155.091 192.588 128.183 167.398L105.283 146.215L128.183 170.833C140.778 184 153.373 194.305 156.808 192.588C160.243 191.443 163.678 196.023 164.251 203.465C164.823 213.198 160.816 217.205 145.358 221.785C127.038 227.51 124.176 226.938 113.871 213.198C101.848 198.313 98.9856 188.58 94.9781 157.665C92.6881 142.78 92.6881 142.78 91.5431 161.673C90.9706 188.58 107.001 230.945 116.161 225.22C120.168 222.93 119.596 224.648 115.016 230.373C111.008 234.953 92.6881 245.83 74.3681 254.418L40.5906 269.303L54.9031 296.783C63.4906 311.668 73.7956 327.698 77.8031 333.423C85.2456 341.438 84.6731 343.155 74.3681 346.59C68.0706 348.308 48.6056 371.208 31.4306 396.97L0.515625 443.343L18.2631 450.213C28.5681 454.22 50.3231 462.235 66.9256 469.105C83.5281 475.975 102.993 481.128 110.436 481.128C123.603 481.128 123.603 481.128 116.161 510.325C112.153 526.355 105.283 543.53 101.848 547.538C92.6881 558.415 97.2681 561.85 124.176 565.285C146.503 568.148 147.076 568.72 150.511 596.2C152.801 611.085 156.236 624.825 158.526 625.97C160.816 627.688 176.846 623.68 194.021 617.955C211.196 612.803 227.226 609.368 229.516 610.513C231.806 612.23 234.096 598.49 234.096 579.598C234.096 551.545 236.958 541.813 251.843 519.485C269.591 492.578 282.186 483.99 276.461 502.31C273.598 510.898 274.743 510.898 282.758 501.165C287.338 494.868 294.781 489.715 298.788 489.143C302.796 489.143 309.093 487.998 313.101 487.998C316.536 487.425 319.971 481.128 319.971 473.685C319.971 466.243 323.406 455.365 327.986 449.64C332.566 443.343 334.283 434.755 332.566 430.748C330.848 425.023 332.566 423.305 337.718 425.023C342.298 426.74 345.161 433.038 344.016 438.763C342.871 449.068 342.871 449.068 351.458 438.763C359.473 427.885 360.046 427.885 360.046 443.343C360.046 453.648 357.756 457.655 353.176 454.793C349.168 452.503 348.596 453.075 350.886 457.655C353.176 461.09 357.183 462.808 360.046 461.09C362.336 459.373 366.916 464.525 369.778 472.54C376.648 493.15 390.961 482.845 385.236 460.518C381.801 446.205 380.656 445.633 376.648 455.365C372.641 466.815 372.068 466.815 370.923 455.365C365.198 408.993 375.503 381.513 383.518 421.015C386.953 435.9 387.526 435.328 388.098 413C388.671 394.108 390.388 389.528 396.113 393.535C399.548 396.97 407.563 398.688 413.288 398.115C429.891 395.253 425.311 425.023 405.846 443.915C390.388 458.8 386.953 474.83 401.266 466.243C405.846 463.38 406.418 465.67 404.128 471.968C401.838 477.693 400.121 483.99 400.121 486.853C400.121 489.715 394.396 498.875 386.953 508.035C376.648 520.058 374.358 527.5 377.793 538.378L381.801 552.69L382.373 537.233C382.946 522.348 394.396 507.463 394.396 521.775C394.396 525.21 400.693 521.775 408.708 513.188C416.151 505.173 425.883 498.303 429.891 498.303C435.043 498.303 435.043 500.02 429.891 505.173C425.883 509.18 423.593 518.34 423.593 526.928C424.166 540.095 424.738 540.095 428.173 524.065C436.188 485.708 449.928 513.188 451.073 570.438C451.646 590.475 448.783 602.498 443.058 607.078C436.188 612.803 434.471 612.803 433.898 606.505C433.898 601.925 431.036 607.65 427.028 618.528C423.021 629.405 416.151 639.138 411.571 639.71C403.556 640.855 365.771 591.048 365.771 579.025C365.771 576.163 362.908 572.728 359.473 571.583C354.893 569.865 354.893 563.568 358.901 548.11C362.336 536.088 362.336 528.073 359.473 529.79C348.023 537.233 329.131 537.805 324.551 530.935C322.261 527.5 319.971 516.05 319.398 506.89C319.398 492.578 318.253 491.433 314.818 501.165C309.666 513.76 319.398 550.973 326.841 546.393C329.131 544.675 331.421 546.393 331.421 549.828C331.421 553.835 335.428 552.69 340.581 547.538C345.161 542.385 349.741 538.378 350.313 538.378C356.038 538.378 350.313 584.75 344.588 586.468C339.436 588.758 337.718 599.635 338.291 619.673L338.863 650.015L341.153 624.253C342.871 609.94 345.733 596.2 348.023 593.91C353.748 588.185 385.236 619.673 397.831 643.145L406.418 658.603L430.463 634.558C457.371 608.223 462.523 612.23 451.646 652.878C444.203 680.358 409.281 721.578 393.823 721.578C387.526 721.578 382.946 719.288 382.946 716.998C382.946 714.135 378.938 711.845 374.931 711.845C368.061 711.845 367.488 714.708 372.641 723.868C376.076 730.738 379.511 737.035 380.656 737.608C384.091 742.188 433.898 703.258 465.958 670.625C484.851 651.16 503.171 635.703 507.751 635.703C514.048 635.703 513.476 633.985 506.606 627.115C502.026 622.535 496.301 613.375 494.583 606.505C492.293 600.208 489.431 596.2 487.713 597.345C486.568 599.063 487.713 605.933 491.721 612.23C500.881 629.978 491.721 627.115 458.516 604.215C457.371 603.07 461.378 593.338 467.103 581.315L477.408 559.56L481.416 576.163C483.706 586.468 484.278 582.46 482.561 565.858C479.698 540.668 480.271 539.523 492.866 542.385C500.308 544.103 508.896 548.11 512.903 550.973C517.483 554.408 520.918 552.118 523.208 543.53C526.643 533.798 528.361 532.653 532.941 538.95C536.948 544.675 536.948 543.53 534.658 534.37C529.506 516.623 536.376 507.463 546.681 516.05C553.551 521.775 554.123 520.63 549.543 508.035C544.963 496.585 545.536 493.723 552.406 494.868C562.138 496.585 578.741 518.34 573.588 523.493C571.871 525.21 572.443 526.928 575.878 526.928C585.611 526.928 595.343 587.613 588.473 605.36C584.466 615.665 585.038 622.535 589.046 626.543C595.916 633.413 596.488 641.428 589.618 641.428C586.756 641.428 582.748 635.703 580.458 628.26L576.451 615.665L571.871 629.978L567.291 644.29L566.146 629.978L565.001 615.665L560.993 629.405L556.986 643.718L544.391 629.405C536.376 620.818 532.368 619.1 534.658 625.398C536.948 631.695 534.658 635.703 527.788 637.42C519.201 640.283 519.201 640.283 528.933 639.71C535.231 639.138 543.818 640.855 547.826 643.145C551.833 646.008 568.436 648.87 585.038 650.015C601.068 650.588 626.258 653.45 640.571 655.74L666.906 659.748L679.501 623.108C686.371 603.07 692.096 583.033 691.523 578.453C691.523 573.873 688.661 577.308 685.226 587.04C679.501 605.36 670.341 627.688 663.471 641.428C660.608 647.725 652.021 649.443 634.273 648.298C595.343 645.435 585.611 624.253 603.358 581.888C607.938 570.438 611.946 560.133 611.946 558.415C611.946 553.835 618.243 554.408 622.251 558.988C624.541 561.278 622.823 561.278 618.243 558.415C612.518 554.98 611.373 556.125 614.236 560.705C617.098 565.285 621.106 565.858 625.686 561.85C629.121 558.988 639.998 557.27 649.158 558.988C670.913 562.423 683.508 562.995 712.706 561.85L736.178 561.278L735.606 511.47L735.033 462.235L768.238 427.885C785.986 408.42 800.871 390.673 800.871 387.238C800.298 356.895 709.271 258.425 691.523 269.875C685.226 273.883 685.226 275.028 693.241 275.028C705.263 275.028 704.118 287.05 690.378 312.813C673.203 345.445 614.236 362.048 599.351 338.003C595.343 331.705 590.191 326.553 587.901 326.553C585.611 326.553 590.191 336.285 597.633 347.735L611.946 368.345L596.488 379.223C584.466 387.81 573.588 389.528 551.833 387.238C532.941 385.52 527.216 386.665 534.658 389.528C544.963 394.108 544.391 394.68 530.651 394.68C520.918 395.253 511.758 390.673 506.606 383.23C499.163 371.78 499.736 370.063 513.476 356.895C522.063 348.88 528.361 340.293 527.216 337.43C526.643 334.568 530.651 332.278 535.803 331.705C543.246 331.705 542.101 329.988 532.368 325.98C511.758 317.965 520.918 314.53 550.116 319.683C563.856 322.545 587.328 323.118 601.068 320.828L626.258 316.82L603.358 315.103L580.458 313.385L600.496 309.378C618.243 305.943 618.816 304.798 605.076 304.225C588.473 303.653 582.176 297.928 587.901 288.768C595.916 276.745 618.816 268.73 647.441 268.158C672.631 267.585 679.501 264.723 693.241 249.838C709.843 232.663 709.843 232.663 706.408 246.403C704.118 256.708 704.691 258.425 708.698 252.128C711.561 247.548 714.996 229.8 716.141 213.198L717.858 182.283L677.783 166.253C656.028 157.093 630.838 149.65 622.251 149.65C609.083 149.078 606.793 145.643 600.496 119.88C593.626 92.4004 593.053 91.2554 577.023 94.6904C561.566 98.1254 560.421 97.5529 560.421 79.8054C560.421 55.1879 542.673 0.227859 535.231 0.800359C531.796 0.800359 512.903 6.52536 493.438 12.2504ZM534.086 21.4104C531.796 32.8604 532.368 35.1504 536.376 29.4254C540.383 23.7004 543.818 29.9979 548.971 54.0429C555.841 87.8204 554.123 103.278 543.246 103.278C539.238 103.278 538.666 99.8429 543.246 92.4004C553.551 72.3629 549.543 72.3629 535.803 92.4004C528.361 103.278 518.056 111.293 512.903 111.293C507.751 110.72 504.888 112.438 506.606 115.3C508.323 118.163 507.751 120.453 504.888 121.025C502.598 121.025 495.728 122.17 490.003 123.315C484.851 124.46 481.416 123.315 483.133 120.453C484.851 118.163 484.278 111.293 482.561 106.14C479.698 98.6979 477.981 98.1254 473.973 104.423C469.966 110.148 468.821 109.575 468.821 101.56C468.821 95.8354 466.531 92.4004 463.668 94.1179C457.371 98.1254 451.646 84.3854 451.646 66.0654C451.646 47.1729 473.973 23.1279 494.011 19.6929C503.171 17.9754 515.193 14.5404 519.773 11.6779C534.658 3.09036 538.093 5.38036 534.086 21.4104ZM290.201 26.5629C311.956 31.7154 320.543 39.7304 331.993 66.0654C342.871 90.1104 347.451 125.033 337.718 109.575C333.711 103.278 331.993 105.568 330.276 118.163C328.558 136.483 318.253 139.918 299.361 128.468C287.911 121.598 287.338 122.17 289.628 133.62C292.491 146.215 292.491 146.215 283.331 134.765C274.743 123.888 274.171 123.888 278.178 134.193C281.041 142.208 279.896 143.925 274.171 140.49C269.018 137.628 267.873 138.2 270.736 142.78C273.026 146.215 277.033 147.933 279.896 146.215C285.621 142.78 291.346 150.223 294.208 166.253C296.498 177.13 294.781 176.558 277.033 163.39C266.728 154.803 256.423 144.498 254.706 139.918C252.988 134.765 248.408 133.048 244.973 135.338C240.966 137.628 239.821 137.055 242.111 133.048C243.828 129.613 243.256 120.453 239.821 112.438C233.523 95.8354 243.256 28.2804 253.561 21.9829C256.996 19.6929 263.293 18.5479 267.301 20.2654C271.881 21.9829 282.186 24.8454 290.201 26.5629ZM353.748 59.7679C357.756 64.9204 359.473 73.5079 357.183 80.3779C352.603 95.2629 349.741 92.9729 336.573 63.2029C326.841 40.8754 326.841 40.3029 336.573 45.4554C342.298 48.8904 349.741 55.1879 353.748 59.7679ZM591.336 106.713C593.626 111.865 593.626 121.598 591.336 127.895C589.046 134.193 590.191 137.628 593.053 135.91C596.488 133.62 598.778 140.49 599.351 150.795C600.496 185.145 560.421 229.8 538.666 218.35C531.223 214.343 524.353 217.778 507.751 234.38L486.568 256.135L512.903 242.395C542.673 227.51 555.268 226.365 573.016 235.525C582.176 240.678 583.893 240.105 580.458 234.38C577.023 229.228 578.741 228.083 585.611 230.945C591.336 233.235 598.778 234.953 602.213 234.953C606.793 234.953 606.221 237.243 601.641 241.823C597.633 245.83 594.771 252.7 594.771 257.28C594.771 265.868 567.291 297.928 559.848 297.928C557.558 297.928 556.413 292.775 557.558 286.478C558.703 280.18 557.558 273.883 555.268 272.165C552.406 271.02 550.688 273.883 550.688 279.608C550.688 300.218 548.398 303.653 536.948 303.653C525.498 303.653 525.498 303.08 533.513 290.485C542.101 277.318 542.101 276.745 528.361 279.608C507.751 283.615 494.583 276.745 503.171 266.44C508.896 259.57 507.178 258.425 492.293 260.715C470.538 263.005 469.393 255.563 490.576 242.395C499.163 236.67 507.751 229.8 510.041 226.938C516.338 217.205 510.041 215.488 499.736 224.075C490.576 231.518 490.576 230.945 496.301 220.64C507.178 201.748 519.773 160.528 512.903 164.535C509.468 166.825 508.323 164.535 510.613 158.238C512.903 152.513 512.331 149.65 508.323 151.94C505.461 154.23 503.743 159.955 505.461 165.108C507.178 170.833 504.316 182.283 500.308 192.015C493.438 205.755 492.866 206.328 495.728 194.878C499.736 180.565 499.736 177.13 496.301 149.65C494.583 135.338 513.476 117.018 534.658 111.865C540.956 110.72 554.123 107.285 563.283 103.85C587.328 96.4079 587.328 96.4079 591.336 106.713ZM354.321 123.315C354.321 137.055 351.458 143.353 345.733 143.353C335.428 143.353 334.856 137.055 344.016 117.59C352.603 98.6979 354.321 99.2704 354.321 123.315ZM483.133 149.65C480.271 158.238 480.843 160.528 485.423 158.238C493.438 153.085 493.438 160.528 485.996 171.978C481.416 178.848 480.271 178.848 480.271 172.55C480.271 167.97 478.553 166.253 476.836 167.97C474.546 170.26 475.691 175.413 479.698 179.42C489.431 192.015 482.561 240.678 468.821 254.418C453.363 269.875 453.363 256.708 469.393 233.235L481.416 214.915L467.103 231.518C456.226 244.113 449.928 246.975 441.913 243.54C436.188 240.678 429.318 239.533 426.456 240.105C423.593 240.678 423.021 236.098 424.738 229.228C426.456 222.358 425.311 218.923 421.876 221.213C415.578 225.22 418.441 211.48 429.891 182.283C435.616 166.253 465.958 142.208 484.851 138.2C485.996 137.628 484.851 143.353 483.133 149.65ZM364.626 158.81C371.496 164.535 381.228 178.848 385.808 190.87C394.396 212.053 394.396 213.198 382.946 216.06C373.213 218.923 372.641 220.64 378.366 228.655C384.091 236.098 383.518 235.525 373.786 227.51C360.618 216.633 348.596 214.915 348.596 224.075C348.596 235.525 332.566 218.35 328.558 202.32C326.841 194.305 323.978 189.153 322.261 190.87C317.108 196.023 342.298 247.548 348.023 244.113C353.748 240.678 380.083 297.355 374.931 301.935C369.778 307.088 349.741 279.608 345.733 262.433C344.016 254.418 338.291 245.83 334.283 244.113C322.833 240.105 307.948 202.893 306.231 174.268L304.513 151.368L328.558 149.65C344.588 149.078 356.611 151.94 364.626 158.81ZM642.861 159.955C644.578 162.818 655.456 166.825 666.333 168.543C677.783 170.833 685.226 174.84 683.508 178.275C681.218 181.138 686.371 183.428 694.386 183.428C709.271 183.428 719.003 192.015 710.416 197.168C707.553 198.885 706.408 206.328 707.553 213.77C709.843 224.075 705.263 231.518 689.233 245.258C677.783 255.563 666.333 262.433 664.043 261.288C652.021 253.273 625.686 244.685 618.816 245.83C609.656 247.548 614.808 225.793 626.831 211.48C639.426 197.168 628.548 193.733 613.663 207.473C606.221 214.343 600.496 216.633 600.496 213.198C600.496 209.763 603.358 205.183 606.221 203.465C609.656 201.175 610.801 197.168 609.083 194.305C607.366 191.443 614.236 184 624.541 177.703C646.296 164.535 641.716 162.245 618.243 174.84C606.793 180.565 600.496 189.153 598.206 203.465C595.343 218.35 591.336 223.503 583.321 223.503C569.581 223.503 568.436 216.06 581.031 205.755C585.611 201.748 594.771 188.58 601.068 176.558C609.083 160.528 615.953 154.803 626.258 154.803C633.701 154.803 641.143 157.093 642.861 159.955ZM401.266 184C406.991 194.878 411.571 199.458 411.571 194.305C411.571 189.725 415.578 180.565 420.158 174.268C428.173 164.535 428.173 166.253 420.158 185.718C410.998 209.19 406.991 215.488 404.701 211.48C390.388 188.008 379.511 159.955 384.663 161.673C388.671 162.818 396.113 173.123 401.266 184ZM256.423 178.848C277.606 193.16 297.071 216.633 299.361 229.8C299.933 234.38 303.941 244.113 307.948 252.128L315.963 266.44L299.361 252.128C290.201 244.113 286.193 241.823 290.201 246.403C303.368 261.86 297.071 264.15 275.888 251.555L254.133 238.96L268.446 254.99L282.758 271.02L268.446 263.578C255.851 256.708 254.706 256.708 261.576 264.723C272.453 277.89 261.576 282.47 234.668 275.028C221.501 271.593 205.471 261.86 197.456 251.555C179.136 229.8 177.991 217.205 195.738 233.235C202.608 239.533 212.341 246.975 216.921 249.265C221.501 251.555 215.776 245.258 204.326 234.38C180.853 213.198 164.823 186.29 168.831 174.84C170.548 170.833 184.861 167.398 204.326 166.825C230.661 166.253 241.538 168.543 256.423 178.848ZM282.758 177.703C299.933 188.58 313.673 214.343 305.658 222.358C303.941 224.075 302.796 222.358 302.796 218.923C302.796 214.915 292.491 201.748 279.896 189.153C254.133 163.39 255.278 160.528 282.758 177.703ZM179.136 232.663C184.288 246.403 181.998 246.975 157.953 239.533C143.641 234.953 139.061 231.518 143.641 228.083C156.236 220.64 175.701 222.93 179.136 232.663ZM393.251 281.325C391.533 295.065 391.533 294.493 378.366 276.745C370.923 266.44 364.053 252.128 362.908 245.258C360.618 233.808 361.763 233.808 377.793 249.838C389.816 261.86 394.968 272.165 393.251 281.325ZM175.128 252.7C202.608 265.868 210.623 284.76 184.861 275.028C176.846 271.593 145.931 269.303 116.161 268.73L61.7731 268.158L86.3906 255.563C117.878 238.388 144.213 237.815 175.128 252.7ZM411.571 269.303C411.571 288.195 402.983 286.478 396.686 266.44C390.961 248.693 391.533 247.548 401.266 252.7C406.991 255.563 411.571 263.005 411.571 269.303ZM451.646 263.005C453.363 263.578 451.646 265.868 448.783 268.158C445.348 270.448 439.623 278.463 435.616 286.478L428.746 300.79L431.608 284.188C435.043 269.303 433.898 268.158 426.456 274.455C421.303 279.035 417.296 279.608 417.296 276.745C417.296 267.585 429.318 258.998 439.051 260.715C444.776 261.86 449.928 263.005 451.646 263.005ZM634.273 260.143C627.403 265.868 600.496 268.73 600.496 263.578C600.496 260.715 608.511 257.853 618.816 257.853C628.548 257.853 635.418 258.998 634.273 260.143ZM243.828 288.195C247.263 290.485 259.858 290.485 272.453 287.05C287.338 283.043 301.651 283.043 314.246 286.478C344.588 295.065 341.153 288.195 310.238 278.463C282.758 269.303 282.758 269.303 305.086 272.165C329.703 275.028 346.878 287.05 340.581 297.355C337.718 301.363 326.841 302.508 312.528 300.218L288.483 297.355L305.658 307.088C322.261 316.82 322.261 316.82 309.666 321.4C297.643 325.98 295.926 328.27 294.781 344.873C294.208 348.88 289.056 354.033 282.758 356.323C275.316 358.613 280.468 359.758 297.071 360.33C315.963 360.903 320.543 362.62 314.246 366.628C301.078 375.215 276.461 373.498 268.446 363.765C264.438 359.185 257.568 355.178 252.988 355.178C248.408 355.178 240.966 351.17 236.386 347.163C229.516 339.72 231.806 338.575 255.278 336.285C280.468 334.568 279.323 333.995 247.263 333.423C227.226 332.85 211.196 329.988 211.196 327.125C211.196 319.11 234.668 303.653 248.408 303.08C256.423 303.08 252.416 299.645 236.958 292.775C214.631 282.47 196.311 283.043 211.768 292.775C218.638 296.783 218.638 297.928 211.768 297.928C205.471 297.928 205.471 299.645 211.196 306.515C216.921 313.385 216.921 315.103 208.906 315.103C203.753 315.103 199.746 317.393 199.746 320.255C199.746 323.118 188.868 324.263 175.701 323.118C156.236 321.4 153.946 321.973 165.396 325.98C177.991 330.56 177.991 331.133 168.258 332.278C156.808 332.85 156.808 332.85 168.258 337.43C179.136 342.01 179.136 342.01 167.113 348.308C138.488 363.765 89.2531 351.17 84.1006 327.125C82.9556 323.118 76.6581 313.385 69.2156 305.37C46.8881 282.47 54.9031 277.89 117.306 277.89C148.221 277.89 181.998 279.035 191.158 280.753C202.608 282.47 207.761 281.325 207.188 276.745C206.043 271.02 208.906 271.02 221.501 276.173C230.088 280.18 239.821 285.333 243.828 288.195ZM468.821 273.31C468.821 279.035 450.501 297.928 444.776 297.928C441.913 297.928 444.203 291.63 449.356 283.615C457.943 270.448 468.821 264.723 468.821 273.31ZM506.033 286.478C514.621 290.485 511.758 291.63 492.866 291.63C477.981 292.203 469.393 289.913 471.683 286.478C475.691 279.608 490.003 279.608 506.033 286.478ZM732.743 301.935C739.613 310.523 739.613 311.095 730.453 307.66C724.728 305.37 717.286 303.653 714.423 303.653C711.561 303.653 709.271 300.79 709.271 297.928C709.271 288.768 724.156 291.058 732.743 301.935ZM421.303 310.523C419.586 315.103 417.868 313.385 417.868 307.088C417.296 300.79 419.013 297.355 420.731 299.645C422.448 301.363 423.021 306.515 421.303 310.523ZM514.621 303.653C514.621 308.805 502.598 319.683 494.583 320.828C491.721 321.973 485.423 323.69 481.988 324.835C477.981 326.553 470.538 326.553 465.958 324.263C458.516 321.4 458.516 319.683 467.103 310.523C476.836 300.79 514.621 295.065 514.621 303.653ZM369.206 316.248C371.496 319.683 367.488 320.828 359.473 317.965C349.168 315.103 348.023 315.675 354.321 320.255C358.901 323.118 360.618 327.698 358.328 329.988C356.038 332.278 349.741 329.988 344.588 324.835C337.718 317.965 337.146 315.103 341.726 315.103C345.733 315.103 348.023 312.813 346.306 309.95C344.016 307.088 348.023 305.943 354.321 307.66C360.618 309.378 367.488 313.385 369.206 316.248ZM397.258 320.255C398.976 329.415 396.686 332.278 388.098 332.278C375.503 332.278 374.931 329.988 384.091 315.103C392.106 302.508 393.823 303.08 397.258 320.255ZM411.571 315.103C411.571 321.4 410.426 326.553 409.281 326.553C408.136 326.553 405.846 321.4 404.128 315.103C402.411 308.805 403.556 303.653 406.418 303.653C409.281 303.653 411.571 308.805 411.571 315.103ZM436.188 327.125C423.021 331.705 421.876 330.56 426.456 318.538C429.318 311.095 431.608 310.523 438.478 316.248C445.921 321.973 445.921 323.69 436.188 327.125ZM754.498 321.973C779.116 336.858 797.436 389.528 779.116 389.528C770.528 389.528 770.528 390.673 777.971 395.253C785.413 399.833 784.268 403.268 771.101 415.863C753.926 433.038 734.461 431.32 739.613 413C741.331 406.703 739.041 400.405 735.033 399.26C731.026 397.543 726.446 388.955 724.728 379.795C723.011 371.208 715.568 354.605 708.126 343.728C689.233 316.248 693.241 307.088 721.866 311.668C733.888 313.958 748.773 318.538 754.498 321.973ZM346.306 338.003C350.886 338.003 353.176 340.293 351.458 343.728C349.741 346.59 338.291 349.453 326.841 349.453L305.658 348.88L319.971 340.293L334.283 331.705L319.971 335.14C306.231 338.575 306.231 338.003 317.108 329.415C326.841 321.973 328.558 321.4 333.138 329.415C335.428 333.995 341.726 338.003 346.306 338.003ZM214.058 338.003C216.348 341.438 211.196 343.728 202.608 343.728C194.021 343.728 188.868 341.438 191.158 338.003C192.876 334.568 198.028 332.278 202.608 332.278C207.188 332.278 212.341 334.568 214.058 338.003ZM494.583 338.003C492.866 340.865 486.568 343.728 481.416 343.728C472.828 344.3 472.828 344.873 481.988 350.025C489.431 354.605 494.583 354.033 500.881 349.453C506.033 344.3 508.896 344.3 508.896 348.308C508.896 356.895 487.141 368.345 477.408 364.338C473.401 363.193 470.538 356.895 471.683 351.17C472.828 345.445 473.973 339.148 473.973 336.285C474.546 333.995 479.698 332.278 486.568 332.278C492.866 332.278 496.301 334.568 494.583 338.003ZM696.676 339.148C708.126 350.598 704.691 355.178 689.233 348.308C681.791 344.873 676.638 339.72 678.356 337.43C682.363 330.56 688.661 331.133 696.676 339.148ZM380.083 343.155C378.366 346.018 379.511 350.025 382.373 351.743C385.236 354.033 389.243 352.888 391.533 349.453C393.251 346.59 397.831 343.728 400.693 343.728C409.853 343.728 396.686 362.62 386.381 364.338C381.228 364.91 378.366 363.193 380.083 360.903C381.801 358.04 380.656 354.605 377.221 352.315C369.778 347.735 369.778 338.003 377.793 338.003C380.656 338.003 382.373 340.293 380.083 343.155ZM456.226 350.025C456.798 355.178 452.791 365.483 445.921 372.925C439.623 380.368 435.043 383.803 435.616 380.94C436.188 377.505 433.898 369.49 429.891 362.048C423.593 351.17 424.166 349.453 431.608 349.453C436.761 349.453 439.623 351.743 437.906 354.033C436.188 356.895 438.478 359.185 443.058 359.185C455.653 359.185 453.363 352.315 439.051 344.873L425.883 338.003L440.196 339.72C448.211 340.293 455.081 344.873 456.226 350.025ZM99.5581 363.193L112.153 376.36L97.2681 382.658L82.3831 388.955L98.4131 385.52C116.161 382.085 120.168 392.39 102.993 398.115C77.8031 406.13 78.9481 415.863 105.856 429.03C130.473 441.625 137.343 456.51 117.878 454.793C112.726 454.22 109.291 455.938 111.008 458.228C112.726 461.09 110.436 464.525 107.001 466.243C102.993 468.533 105.856 468.533 113.871 466.815C121.886 465.098 131.046 462.808 134.481 462.235C138.488 461.09 144.786 457.655 148.793 454.22C153.373 451.358 160.816 446.778 165.396 445.633C170.548 443.343 167.686 441.053 156.808 438.763C147.648 436.473 129.328 430.175 116.733 425.023L93.8331 415.29L113.871 411.855C127.038 409.565 129.328 407.848 120.741 407.275C109.863 406.703 108.718 405.558 115.016 398.688C119.023 394.108 124.748 392.39 127.611 394.108C130.473 395.825 131.046 394.108 129.328 391.245C121.886 379.795 169.976 353.46 203.181 350.598C223.218 348.88 234.096 350.025 234.096 354.605C234.096 358.04 228.371 362.048 221.501 363.193C189.441 370.063 187.151 371.78 208.906 370.635C224.936 369.49 231.806 371.208 230.088 375.788C228.943 379.795 223.218 382.085 218.066 380.94C212.913 380.368 211.768 380.94 215.776 382.085C234.668 388.955 216.348 400.978 186.578 401.55C169.976 401.55 169.403 402.123 181.426 406.703C188.296 409.565 198.601 410.71 204.326 408.993C211.196 406.703 210.051 408.993 200.318 417.58C192.876 424.45 190.013 429.603 192.876 429.603C196.311 429.603 200.891 426.74 202.608 423.878C208.906 414.145 215.776 417.58 212.913 429.03C211.196 435.328 202.036 443.343 191.731 446.778C181.998 450.213 164.251 459.373 152.801 466.815C140.778 474.83 131.046 479.41 131.046 477.12C131.046 474.258 119.596 471.968 105.856 471.395C91.5431 470.823 66.9256 463.38 50.8956 455.365C23.9881 441.625 22.2706 439.908 28.5681 427.885C35.4381 415.863 34.8656 415.863 25.1331 423.878C12.5381 434.183 14.2556 430.175 40.5906 390.673C53.7581 371.208 60.6281 366.628 75.5131 366.055C89.2531 365.483 90.3981 364.338 80.6656 362.62C73.7956 361.475 69.2156 357.468 70.9331 354.605C76.6581 346.018 86.3906 348.88 99.5581 363.193ZM705.263 364.91C715.568 374.643 732.171 407.848 732.171 419.298C732.171 422.733 720.721 414.718 706.408 401.55C692.668 388.955 679.501 378.078 677.783 378.078C675.493 378.078 688.088 390.673 704.691 406.703C733.888 434.183 734.461 434.755 719.576 435.328C710.416 435.328 703.546 438.19 703.546 441.625C703.546 445.633 696.103 446.778 682.363 444.488C668.623 442.77 664.616 443.343 672.058 446.205C681.218 450.213 680.073 451.358 664.043 454.22C653.738 456.51 642.288 456.51 639.426 454.793C635.418 452.503 634.846 459.373 637.708 474.83L641.716 498.303L626.258 492.578C618.243 489.715 605.648 483.99 598.778 479.983C587.328 474.258 586.756 474.258 594.198 482.845C601.068 491.433 600.496 492.578 587.901 492.578C579.886 492.578 571.871 490.86 569.581 488.57C567.291 486.28 560.993 483.99 555.841 483.99C550.688 483.99 540.383 470.823 531.223 452.503C514.048 418.153 512.331 412.428 519.201 412.428C525.498 412.428 537.521 438.19 537.521 451.93C537.521 457.655 542.673 466.815 548.971 472.54C562.138 484.563 563.856 477.693 551.833 461.663C536.948 442.198 542.673 438.19 560.993 455.938C570.153 465.098 577.023 468.533 574.733 463.38C573.016 458.228 563.856 449.068 555.268 442.198C538.666 430.175 526.643 403.84 539.238 408.42C543.246 410.138 545.536 413.573 544.963 417.008C544.391 419.87 547.826 426.168 553.551 430.748C562.138 437.618 562.711 437.045 555.841 428.458C550.116 421.015 550.116 418.725 555.841 416.435C562.138 414.145 561.566 412.428 555.841 407.848C550.116 403.84 552.406 401.55 565.573 399.26C591.336 394.108 609.656 403.268 622.823 427.885C629.121 439.908 634.273 446.205 634.846 442.198C634.846 437.045 639.426 435.9 648.013 438.19C659.463 441.053 659.463 441.053 646.296 433.038C638.281 428.458 631.411 419.87 630.838 414.145C630.266 408.42 628.548 398.115 626.831 390.673C624.541 380.368 626.258 378.65 636.563 379.795C643.433 380.94 645.723 380.94 641.716 379.795C631.983 376.36 644.006 360.903 656.028 360.903C660.608 360.903 662.326 358.04 660.036 354.033C653.738 344.3 692.096 353.46 705.263 364.91ZM350.313 359.185C346.306 360.33 338.291 360.33 333.138 359.185C327.413 357.468 330.848 356.323 340.008 356.323C349.741 356.323 353.748 357.468 350.313 359.185ZM417.868 372.353C420.731 372.353 423.021 375.788 423.021 380.368C423.021 385.52 417.868 388.383 411.571 387.81C399.548 387.238 397.258 379.795 404.128 362.62C408.136 352.888 408.708 352.888 410.426 362.048C411.571 367.773 415.006 372.353 417.868 372.353ZM640.571 357.468C640.571 362.62 617.671 364.91 614.236 360.33C612.518 357.468 617.671 355.178 625.686 355.178C633.701 355.178 640.571 356.323 640.571 357.468ZM142.496 366.628C142.496 369.49 139.061 372.353 134.481 372.353C129.901 372.353 124.176 369.49 122.458 366.628C120.741 363.193 124.176 360.903 130.473 360.903C137.343 360.903 142.496 363.193 142.496 366.628ZM365.198 364.91C362.908 377.505 366.343 383.803 373.213 379.795C376.648 377.505 375.503 382.658 369.778 391.245C364.626 399.833 361.763 406.703 364.053 406.703C366.916 406.703 364.053 409.565 358.328 413C352.603 416.435 346.306 417.58 344.588 415.863C342.298 414.145 344.588 412.428 349.168 412.428C356.038 412.428 356.038 411.283 348.596 406.703C343.443 403.84 337.718 403.84 333.138 407.848C323.978 415.29 322.833 402.695 331.421 381.513C338.863 362.048 347.451 362.62 345.161 382.085C344.016 391.245 344.588 393.535 346.306 387.81C348.023 382.658 352.031 378.078 354.893 378.078C357.756 378.078 359.473 376.36 359.473 373.498C358.328 366.628 360.046 360.903 362.908 360.903C364.626 360.903 365.198 362.62 365.198 364.91ZM262.721 370.635C262.721 373.498 254.706 379.795 245.546 384.948C225.508 396.398 222.073 388.955 240.966 375.788C254.706 366.055 262.721 364.338 262.721 370.635ZM299.361 386.665C305.086 391.245 307.948 397.543 305.086 401.55C302.223 406.13 303.368 407.275 308.521 403.84C313.101 400.978 314.818 402.123 313.101 407.275C311.383 411.855 307.376 414.718 303.941 414.145C301.078 413.573 293.636 418.725 287.911 425.595C277.606 437.618 277.606 437.618 287.911 429.603C300.506 419.87 314.246 417.008 314.246 424.45C314.246 427.885 316.536 428.458 319.971 426.74C323.406 424.45 323.978 427.313 321.688 433.038C318.826 440.48 319.971 441.625 326.268 438.19C330.848 435.9 332.566 435.328 330.276 437.618C328.558 439.908 325.123 441.625 323.406 441.625C321.116 441.053 313.101 447.923 305.658 456.51C298.216 465.67 291.346 469.678 291.346 465.67C291.346 462.235 293.636 457.083 297.071 455.365C299.933 453.648 305.658 446.205 309.093 439.335C311.956 432.465 306.803 436.473 297.071 447.923C282.186 465.67 275.316 469.678 258.141 469.678C228.371 469.678 210.623 463.953 215.203 456.51C217.493 452.503 219.783 441.053 220.356 430.748C221.501 409.565 228.371 400.405 254.133 387.238C275.316 376.36 285.048 375.788 299.361 386.665ZM483.133 381.513C500.881 388.383 518.628 441.053 502.598 441.053C499.736 441.053 498.591 443.343 500.308 446.778C506.033 455.365 490.003 453.648 475.691 443.343C468.248 438.19 463.096 428.458 463.096 419.87C463.096 404.985 463.668 404.985 471.111 415.29C478.553 425.595 479.126 425.595 476.263 411.283C473.973 399.833 476.263 395.825 484.278 394.108C491.721 391.818 489.431 389.528 474.546 385.52C463.668 382.085 459.088 378.65 464.241 378.65C469.393 378.078 477.981 379.795 483.133 381.513ZM615.953 395.253C617.098 404.985 615.381 405.558 605.648 399.26C595.343 392.963 595.343 392.39 605.076 388.383C610.228 386.665 614.808 384.375 614.808 384.375C615.381 383.803 615.381 388.955 615.953 395.253ZM456.798 415.29V426.74L451.646 415.29C448.783 408.993 446.493 399.833 446.493 395.253C445.921 387.81 446.493 387.81 451.646 395.253C454.508 399.833 456.798 408.993 456.798 415.29ZM419.586 459.373C418.441 472.54 413.288 487.425 408.136 492.005C399.548 500.593 399.548 500.02 405.273 488.57C415.006 469.105 413.288 456.51 401.838 460.518C394.396 463.38 395.541 460.518 405.273 450.213C413.288 441.625 420.158 435.328 420.731 435.328C421.303 435.328 421.303 446.205 419.586 459.373ZM445.348 453.648C446.493 439.908 457.371 447.35 468.821 469.678C483.133 497.73 488.286 500.02 476.836 472.54C465.386 444.488 466.531 442.77 485.423 460.518C497.446 471.968 503.171 474.258 506.033 469.105C509.468 464.525 508.323 463.38 502.598 466.243C498.018 468.533 499.736 466.243 506.033 461.09C512.331 455.938 516.911 448.495 515.766 445.06C514.048 439.908 515.193 439.908 520.346 445.06C530.078 454.22 534.658 501.738 526.643 506.318C523.208 508.608 520.346 515.478 520.346 522.348C520.346 530.363 517.483 532.653 511.186 530.363C506.606 528.645 504.316 529.218 506.033 532.653C511.186 540.668 508.896 540.095 475.691 524.065C451.646 512.615 444.776 506.318 441.913 492.005C440.196 481.128 436.761 477.12 434.471 481.128C431.036 486.28 429.318 486.28 425.311 480.555C423.021 476.548 423.593 472.54 427.601 470.823C431.608 469.678 434.471 460.518 435.043 450.785C435.616 433.038 435.616 433.038 440.196 446.778C442.486 454.793 444.776 457.655 445.348 453.648ZM743.621 443.915C735.606 453.648 720.721 455.365 720.721 447.35C720.721 442.77 731.026 438.19 745.911 435.9C748.773 435.9 747.628 439.335 743.621 443.915ZM720.721 455.365C724.156 459.945 726.446 466.243 725.301 469.105C724.728 471.968 719.003 467.96 713.278 460.518C702.401 445.633 708.698 441.053 720.721 455.365ZM199.746 458.228C192.876 462.808 192.876 463.953 201.463 467.388C211.196 470.823 211.196 471.395 201.463 482.845C191.158 494.868 191.158 494.868 205.471 486.28C215.776 479.41 221.501 478.838 226.081 483.418C234.096 491.433 227.226 504.6 199.746 533.798C176.273 560.133 180.281 561.85 208.333 537.805L228.371 520.058V533.798C228.371 542.958 223.791 549.828 215.203 553.835C198.601 561.85 125.321 562.995 125.321 555.553C125.321 552.69 121.313 551.545 116.733 553.263C101.276 559.56 107.573 544.103 132.191 516.623C148.793 498.303 150.511 495.44 137.916 506.318C124.748 518.34 119.596 520.63 119.596 514.333C119.596 500.02 140.778 477.693 166.541 464.525C191.731 451.93 216.921 447.35 199.746 458.228ZM702.973 458.228C718.431 466.243 733.316 508.035 728.736 529.218C724.156 551.545 717.858 555.553 686.371 555.553C656.601 555.553 638.853 545.248 626.258 521.203C618.816 507.463 618.816 505.173 626.258 506.318C630.838 506.89 636.563 509.753 638.853 512.615C641.716 514.905 639.426 514.905 634.846 512.615C627.403 508.035 627.403 509.18 634.273 517.195C642.288 527.5 654.883 524.638 648.013 514.333C646.296 510.325 644.578 498.303 644.578 487.425C644.578 466.815 649.731 462.808 690.951 453.075C692.096 452.503 697.248 454.793 702.973 458.228ZM283.903 483.99C283.903 488.57 281.041 490.288 278.178 488.57C274.743 486.28 263.293 494.868 252.988 507.463C235.241 528.073 234.096 528.645 239.821 513.76C242.683 504.6 248.408 492.578 251.271 486.28C258.141 473.685 283.903 471.395 283.903 483.99ZM607.938 496.585C603.931 497.73 600.496 501.738 600.496 504.6C600.496 508.035 602.213 509.18 605.076 508.035C607.366 506.318 615.953 515.478 624.541 527.5C633.128 540.095 638.281 549.828 635.418 549.828C621.106 549.828 611.946 541.24 611.373 527.5C610.801 517.195 608.511 521.775 603.931 540.668L597.061 569.293L590.763 543.53C587.901 529.79 582.748 513.76 581.031 508.608C577.596 501.738 579.886 498.303 590.191 496.585C608.511 493.15 615.953 493.15 607.938 496.585ZM465.386 524.638C476.836 528.645 476.836 553.263 466.531 572.728C459.088 585.895 458.516 584.75 456.798 553.835C455.653 536.088 455.081 521.203 455.653 521.203C456.226 521.203 460.233 522.92 465.386 524.638ZM227.226 584.75C226.653 593.338 224.936 599.635 223.218 598.49C222.073 596.773 218.066 597.918 214.631 600.78C211.196 603.643 199.173 608.223 187.723 611.658C170.548 616.238 166.541 615.665 160.816 606.505C156.808 600.78 153.946 589.903 153.946 582.46C153.946 571.01 156.808 569.293 176.846 568.72C192.303 568.148 198.601 570.438 196.311 575.018C194.021 578.453 196.883 576.735 202.608 571.583C216.921 558.415 228.943 564.713 227.226 584.75ZM483.706 626.543C494.011 634.558 493.438 636.275 469.966 659.748L445.348 684.365L454.508 663.183C459.088 651.16 463.096 636.275 463.096 629.978C463.096 616.238 468.248 615.665 483.706 626.543Z" fill="black"/>
<path d="M306.233 592.193C298.218 603.071 285.623 613.376 278.753 614.521C271.31 616.238 276.463 616.811 290.203 615.666L314.82 613.948L310.813 631.123C307.95 646.008 308.523 648.298 316.538 645.436C322.263 643.146 325.698 644.863 325.698 650.588C325.698 666.046 314.248 681.503 302.225 681.503C294.783 681.503 291.92 679.213 294.783 674.061C297.073 670.626 291.92 673.488 283.905 680.931C275.318 688.946 267.875 694.098 266.73 692.381C265.585 691.236 261.578 683.793 258.143 675.778C251.273 661.466 251.273 661.466 254.708 678.641C256.425 687.801 259.288 696.961 260.433 698.106C262.15 699.823 280.47 695.243 301.653 688.373L340.01 675.778L353.178 691.236L366.918 707.266L357.758 688.946C352.605 678.641 348.598 666.618 348.598 660.893C348.598 653.451 346.308 654.596 337.148 664.901C331.423 672.343 326.27 675.778 325.698 671.771C325.698 668.336 327.988 664.328 330.85 663.183C333.713 662.038 331.995 647.726 326.843 631.696C319.973 609.941 314.82 602.498 309.095 604.216C302.225 607.078 302.225 605.933 309.668 597.346C319.973 584.751 327.415 572.728 323.98 572.728C322.263 572.728 314.82 581.316 306.233 592.193Z" fill="black"/>
<path d="M245.548 594.483C245.548 598.49 240.395 606.505 234.098 612.803C225.51 621.39 224.938 624.253 230.663 624.253C235.243 624.253 240.968 632.268 242.685 642.573L247.265 660.893L253.563 641.428C258.715 625.97 258.715 620.818 252.99 619.673C248.983 618.528 245.548 615.093 245.548 612.23C245.548 608.795 247.838 607.65 250.7 609.368C253.563 611.658 255.28 608.795 254.708 604.215C252.99 593.91 245.548 585.895 245.548 594.483Z" fill="black"/>
</svg>
